<svg width="25" height="25" viewBox="0 0 25 25" fill="#6B7280" xmlns="http://www.w3.org/2000/svg">
<path d="M12.2617 2.45312C6.75172 2.45312 2.26172 6.94312 2.26172 12.4531C2.26172 17.9631 6.75172 22.4531 12.2617 22.4531C17.7717 22.4531 22.2617 17.9631 22.2617 12.4531C22.2617 6.94312 17.7717 2.45312 12.2617 2.45312ZM16.6117 16.0231C16.4717 16.2631 16.2217 16.3931 15.9617 16.3931C15.8317 16.3931 15.7017 16.3631 15.5817 16.2831L12.4817 14.4331C11.7117 13.9731 11.1417 12.9631 11.1417 12.0731V7.97312C11.1417 7.56313 11.4817 7.22312 11.8917 7.22312C12.3017 7.22312 12.6417 7.56313 12.6417 7.97312V12.0731C12.6417 12.4331 12.9417 12.9631 13.2517 13.1431L16.3517 14.9931C16.7117 15.2031 16.8317 15.6631 16.6117 16.0231Z" fill="#6B7280"/>
</svg>
