<svg width="45" height="44" viewBox="0 0 45 44" fill="none" xmlns="http://www.w3.org/2000/svg">
<rect x="1" y="0.5" width="43" height="43" rx="21.5" stroke="#00AC77"/>
<path d="M31.5 15.9805C28.17 15.6505 24.82 15.4805 21.48 15.4805C19.5 15.4805 17.52 15.5805 15.54 15.7805L13.5 15.9805" stroke="#00AC77" stroke-width="1.5" stroke-linecap="round" stroke-linejoin="round"/>
<path d="M19 14.97L19.22 13.66C19.38 12.71 19.5 12 21.19 12H23.81C25.5 12 25.63 12.75 25.78 13.67L26 14.97" stroke="#00AC77" stroke-width="1.5" stroke-linecap="round" stroke-linejoin="round"/>
<path d="M29.3484 19.1396L28.6984 29.2096C28.5884 30.7796 28.4984 31.9996 25.7084 31.9996H19.2884C16.4984 31.9996 16.4084 30.7796 16.2984 29.2096L15.6484 19.1396" stroke="#00AC77" stroke-width="1.5" stroke-linecap="round" stroke-linejoin="round"/>
<path d="M20.8281 26.5H24.1581" stroke="#00AC77" stroke-width="1.5" stroke-linecap="round" stroke-linejoin="round"/>
<path d="M20 22.5H25" stroke="#00AC77" stroke-width="1.5" stroke-linecap="round" stroke-linejoin="round"/>
</svg>
