<svg width="20" height="20" viewBox="0 0 20 20" fill="none" xmlns="http://www.w3.org/2000/svg">
<path d="M11.85 8.93341V9.43341H12.35H14.925C15.4502 9.43341 15.551 9.59631 15.5557 9.60678C15.5602 9.61675 15.6163 9.79965 15.2674 10.1936L15.2662 10.1949L9.62451 16.6116L9.62449 16.6116L8.95816 17.3696C8.95815 17.3696 8.95814 17.3696 8.95813 17.3696C8.75258 17.6029 8.58177 17.7319 8.45892 17.7925C8.37477 17.834 8.33292 17.8349 8.3207 17.8337C8.31071 17.8265 8.28035 17.7985 8.24506 17.713C8.19301 17.5871 8.15001 17.3778 8.15001 17.0667V11.0667V10.5667H7.65001H5.07501C4.54981 10.5667 4.44902 10.4038 4.4443 10.3934C4.4398 10.3834 4.38374 10.2005 4.73264 9.8066L4.73384 9.80523L10.3755 3.38856L10.3755 3.38854L11.0419 2.63059C11.042 2.63047 11.0421 2.63035 11.0422 2.63023C11.0422 2.63022 11.0422 2.63021 11.0422 2.63021C11.2476 2.3971 11.4183 2.26818 11.5411 2.20762C11.6252 2.16611 11.6671 2.16521 11.6793 2.16644C11.6893 2.17361 11.7197 2.20169 11.755 2.28712C11.807 2.41308 11.85 2.62231 11.85 2.93341V8.93341ZM8.31681 17.833C8.31684 17.833 8.31754 17.8331 8.31888 17.8335L8.31681 17.833ZM8.3222 17.8347C8.32357 17.8353 8.3242 17.8357 8.32418 17.8358C8.32415 17.8359 8.32347 17.8356 8.3222 17.8347ZM11.6832 2.16715C11.6832 2.1672 11.6825 2.1671 11.6811 2.16667L11.6832 2.16715ZM11.6778 2.16542C11.6765 2.16483 11.6758 2.16442 11.6758 2.16436C11.6759 2.1643 11.6765 2.1646 11.6778 2.16542Z" fill="#374151" stroke="#374151"/>
</svg>
