<svg width="23" height="24" viewBox="0 0 23 24" fill="none" xmlns="http://www.w3.org/2000/svg">
<path d="M9.899 2.45031C10.5438 1.86031 11.5847 1.86031 12.211 2.45031L13.6664 3.80031C13.9428 4.05031 14.4678 4.26031 14.8362 4.26031H16.4022C17.3786 4.26031 18.1799 5.13031 18.1799 6.19031V7.89031C18.1799 8.29031 18.3734 8.85031 18.6037 9.15031L19.8472 10.7303C20.3906 11.4303 20.3906 12.5603 19.8472 13.2403L18.6037 14.8203C18.3734 15.1203 18.1799 15.6803 18.1799 16.0803V17.7803C18.1799 18.8403 17.3786 19.7103 16.4022 19.7103H14.8362C14.4678 19.7103 13.952 19.9203 13.6756 20.1703L12.2202 21.5203C11.5755 22.1103 10.5346 22.1103 9.90822 21.5203L8.45283 20.1703C8.1765 19.9203 7.65145 19.7103 7.29221 19.7103H5.68024C4.70385 19.7103 3.90247 18.8403 3.90247 17.7803V16.0703C3.90247 15.6803 3.71824 15.1103 3.48796 14.8203L2.24444 13.2303C1.71019 12.5403 1.71019 11.4203 2.24444 10.7303L3.48796 9.14031C3.71824 8.84031 3.90247 8.28031 3.90247 7.89031V6.20031C3.90247 5.14031 4.70385 4.27031 5.68024 4.27031H7.27379C7.64224 4.27031 8.15807 4.06031 8.43441 3.81031L9.899 2.45031Z" stroke="#9CA3AF" stroke-width="1.5" stroke-linecap="round" stroke-linejoin="round"/>
<path d="M11.0547 8.12988V12.9599" stroke="#9CA3AF" stroke-width="1.5" stroke-linecap="round" stroke-linejoin="round"/>
<path d="M11.0469 16H11.0551" stroke="#9CA3AF" stroke-width="2" stroke-linecap="round" stroke-linejoin="round"/>
</svg>
