<svg width="107" height="40" viewBox="0 0 107 27" fill="none" xmlns="http://www.w3.org/2000/svg">
<path d="M0.200684 25.7241V6.69103H5.23488V10.0491H5.45807C5.85485 8.93386 6.51616 8.05407 7.44199 7.40972C8.36782 6.76538 9.47551 6.4432 10.7651 6.4432C12.0711 6.4432 13.183 6.76951 14.1005 7.42212C15.0181 8.06646 15.6298 8.94211 15.9356 10.0491H16.134C16.5226 8.95864 17.2252 8.08712 18.242 7.43451C19.267 6.77364 20.478 6.4432 21.875 6.4432C23.6523 6.4432 25.0947 7.00907 26.2024 8.14081C27.3184 9.26429 27.8764 10.8586 27.8764 12.9239V25.7241H22.6066V13.9647C22.6066 12.9073 22.3255 12.1143 21.7634 11.5856C21.2013 11.0569 20.4987 10.7926 19.6555 10.7926C18.6966 10.7926 17.9485 11.0982 17.4112 11.7095C16.8739 12.3126 16.6052 13.1097 16.6052 14.101V25.7241H11.4842V13.8532C11.4842 12.9197 11.2156 12.1762 10.6783 11.6228C10.1492 11.0693 9.45071 10.7926 8.58274 10.7926C7.99583 10.7926 7.46679 10.9412 6.99561 11.2386C6.53269 11.5278 6.16484 11.9367 5.89205 12.4654C5.61926 12.9858 5.48287 13.5971 5.48287 14.2993V25.7241H0.200684Z" fill="#111827"/>
<path d="M35.3848 26.0834C34.1696 26.0834 33.0867 25.8728 32.1361 25.4515C31.1855 25.0219 30.4332 24.3899 29.8794 23.5556C29.3338 22.713 29.061 21.6639 29.061 20.4082C29.061 19.3508 29.2553 18.4628 29.6438 17.7441C30.0323 17.0254 30.5613 16.4471 31.2309 16.0093C31.9005 15.5715 32.661 15.241 33.5124 15.018C34.3721 14.7949 35.2732 14.638 36.2155 14.5471C37.3232 14.4315 38.216 14.3241 38.8938 14.2249C39.5716 14.1176 40.0635 13.9606 40.3694 13.7541C40.6752 13.5476 40.8281 13.2419 40.8281 12.8371V12.7628C40.8281 11.978 40.5801 11.3708 40.0842 10.9412C39.5964 10.5117 38.9021 10.2969 38.001 10.2969C37.0504 10.2969 36.294 10.5076 35.7319 10.9289C35.1698 11.3419 34.7978 11.8623 34.616 12.4902L29.7306 12.0936C29.9786 10.9371 30.4663 9.93755 31.1937 9.09494C31.9212 8.24407 32.8594 7.59146 34.0084 7.13711C35.1657 6.67451 36.5048 6.4432 38.0258 6.4432C39.0839 6.4432 40.0966 6.56712 41.0637 6.81494C42.0392 7.06277 42.903 7.4469 43.6552 7.96733C44.4157 8.48777 45.015 9.1569 45.4531 9.97472C45.8913 10.7843 46.1103 11.7549 46.1103 12.8867V25.7241H41.1009V23.0847H40.9521C40.6463 23.6795 40.2371 24.2041 39.7246 24.6584C39.2121 25.1045 38.5962 25.4556 37.8771 25.7117C37.1579 25.9595 36.3271 26.0834 35.3848 26.0834ZM36.8975 22.4404C37.6745 22.4404 38.3606 22.2876 38.9558 21.9819C39.551 21.668 40.018 21.2467 40.3569 20.718C40.6959 20.1893 40.8653 19.5904 40.8653 18.9212V16.9015C40.7 17.0089 40.4727 17.108 40.1834 17.1989C39.9023 17.2815 39.584 17.3599 39.2286 17.4343C38.8731 17.5004 38.5177 17.5623 38.1622 17.6202C37.8068 17.6697 37.4844 17.7152 37.1951 17.7565C36.5751 17.8473 36.0337 17.9919 35.5707 18.1902C35.1078 18.3884 34.7482 18.6569 34.492 18.9956C34.2357 19.326 34.1076 19.7391 34.1076 20.2347C34.1076 20.9534 34.368 21.5028 34.8888 21.8828C35.4178 22.2545 36.0874 22.4404 36.8975 22.4404Z" fill="#111827"/>
<path d="M48.1133 25.7241V6.69103H53.2343V10.0119H53.4327C53.7799 8.83059 54.3627 7.93842 55.181 7.33538C55.9994 6.72407 56.9418 6.41842 58.0081 6.41842C58.2727 6.41842 58.5578 6.43494 58.8637 6.46798C59.1695 6.50103 59.4382 6.54646 59.6697 6.60429V11.2882C59.4217 11.2139 59.0786 11.1478 58.6405 11.0899C58.2024 11.0321 57.8015 11.0032 57.4377 11.0032C56.6607 11.0032 55.9663 11.1726 55.3546 11.5112C54.7512 11.8417 54.2717 12.3043 53.9163 12.8991C53.5691 13.4939 53.3955 14.1795 53.3955 14.956V25.7241H48.1133Z" fill="#111827"/>
<path d="M65.0918 20.2471L65.1042 13.9152H65.873L71.9736 6.69103H78.0369L69.8408 16.2571H68.5885L65.0918 20.2471ZM60.3056 25.7241V0.34668H65.5878V25.7241H60.3056ZM72.2092 25.7241L66.6046 17.4343L70.126 13.7045L78.3965 25.7241H72.2092Z" fill="#111827"/>
<path d="M86.4288 26.0958C84.4696 26.0958 82.7833 25.6993 81.3698 24.9062C79.9645 24.1049 78.8816 22.9732 78.1211 21.511C77.3606 20.0406 76.9803 18.3017 76.9803 16.2943C76.9803 14.3365 77.3606 12.6182 78.1211 11.1395C78.8816 9.66081 79.9521 8.50842 81.3326 7.68233C82.7213 6.85625 84.3498 6.4432 86.218 6.4432C87.4745 6.4432 88.6441 6.64559 89.727 7.05038C90.8182 7.4469 91.7688 8.04581 92.5789 8.84712C93.3973 9.64842 94.0338 10.6562 94.4884 11.8706C94.9431 13.0767 95.1704 14.4893 95.1704 16.1084V17.5582H79.0883V14.2869H90.1982C90.1982 13.5269 90.0329 12.8536 89.7022 12.2671C89.3716 11.6806 88.9128 11.2221 88.3259 10.8917C87.7472 10.553 87.0735 10.3836 86.3048 10.3836C85.5029 10.3836 84.792 10.5695 84.1721 10.9412C83.5603 11.3047 83.0809 11.7962 82.7337 12.4158C82.3865 13.0271 82.2088 13.7086 82.2005 14.4604V17.5706C82.2005 18.5123 82.3741 19.326 82.7213 20.0117C83.0768 20.6973 83.5769 21.226 84.2217 21.5978C84.8664 21.9695 85.6311 22.1554 86.5156 22.1554C87.1025 22.1554 87.6398 22.0728 88.1275 21.9076C88.6152 21.7423 89.0327 21.4945 89.3798 21.1641C89.727 20.8336 89.9916 20.4289 90.1734 19.9497L95.0588 20.2719C94.8108 21.4449 94.3024 22.4693 93.5337 23.3449C92.7732 24.2123 91.7895 24.8897 90.5826 25.3771C89.384 25.8562 87.9994 26.0958 86.4288 26.0958Z" fill="#111827"/>
<path d="M106.653 6.69103V10.6562H95.1833V6.69103H106.653ZM97.7872 2.13103H103.069V19.8754C103.069 20.3628 103.144 20.7428 103.293 21.0154C103.441 21.2797 103.648 21.4656 103.913 21.573C104.185 21.6804 104.499 21.7341 104.855 21.7341C105.103 21.7341 105.351 21.7134 105.599 21.6721C105.847 21.6226 106.037 21.5854 106.169 21.5606L107 25.4886C106.735 25.5712 106.364 25.6663 105.884 25.7736C105.405 25.8893 104.822 25.9595 104.136 25.9843C102.863 26.0339 101.747 25.8645 100.788 25.4762C99.8372 25.088 99.0974 24.4849 98.5684 23.6671C98.0393 22.8493 97.7789 21.8167 97.7872 20.5693V2.13103Z" fill="#111827"/>
</svg>
