<svg width="23" height="24" viewBox="0 0 23 24" fill="none" xmlns="http://www.w3.org/2000/svg">
<path d="M15.6607 18.4297H11.9761L7.87712 21.3897C7.26918 21.8297 6.44938 21.3598 6.44938 20.5598V18.4297C3.686 18.4297 1.84375 16.4297 1.84375 13.4297V7.42969C1.84375 4.42969 3.686 2.42969 6.44938 2.42969H15.6607C18.424 2.42969 20.2663 4.42969 20.2663 7.42969V13.4297C20.2663 16.4297 18.424 18.4297 15.6607 18.4297Z" stroke="#9CA3AF" stroke-width="1.5" stroke-miterlimit="10" stroke-linecap="round" stroke-linejoin="round"/>
<path d="M11.0525 11.3604V11.1504C11.0525 10.4704 11.4394 10.1104 11.8263 9.82037C12.2039 9.54037 12.5815 9.18039 12.5815 8.52039C12.5815 7.60039 11.8999 6.86035 11.0525 6.86035C10.205 6.86035 9.52344 7.60039 9.52344 8.52039" stroke="#9CA3AF" stroke-width="1.5" stroke-linecap="round" stroke-linejoin="round"/>
<path d="M11.0502 13.75H11.0585" stroke="#9CA3AF" stroke-width="1.5" stroke-linecap="round" stroke-linejoin="round"/>
</svg>
