<svg width="327" height="66" viewBox="0 0 327 66" fill="none" xmlns="http://www.w3.org/2000/svg">
<path d="M8.42045 57.6364C8.42045 58.5568 8.25426 59.3523 7.92188 60.0227C7.58949 60.6932 7.13352 61.2102 6.55398 61.5739C5.97443 61.9375 5.3125 62.1193 4.56818 62.1193C3.82386 62.1193 3.16193 61.9375 2.58239 61.5739C2.00284 61.2102 1.54688 60.6932 1.21449 60.0227C0.882102 59.3523 0.715909 58.5568 0.715909 57.6364C0.715909 56.7159 0.882102 55.9205 1.21449 55.25C1.54688 54.5795 2.00284 54.0625 2.58239 53.6989C3.16193 53.3352 3.82386 53.1534 4.56818 53.1534C5.3125 53.1534 5.97443 53.3352 6.55398 53.6989C7.13352 54.0625 7.58949 54.5795 7.92188 55.25C8.25426 55.9205 8.42045 56.7159 8.42045 57.6364ZM7.39773 57.6364C7.39773 56.8807 7.27131 56.2429 7.01847 55.723C6.76847 55.2031 6.42898 54.8097 6 54.5426C5.57386 54.2756 5.09659 54.142 4.56818 54.142C4.03977 54.142 3.56108 54.2756 3.1321 54.5426C2.70597 54.8097 2.36648 55.2031 2.11364 55.723C1.86364 56.2429 1.73864 56.8807 1.73864 57.6364C1.73864 58.392 1.86364 59.0298 2.11364 59.5497C2.36648 60.0696 2.70597 60.4631 3.1321 60.7301C3.56108 60.9972 4.03977 61.1307 4.56818 61.1307C5.09659 61.1307 5.57386 60.9972 6 60.7301C6.42898 60.4631 6.76847 60.0696 7.01847 59.5497C7.27131 59.0298 7.39773 58.392 7.39773 57.6364ZM10.0911 62V55.4545H11.0627V56.4432H11.1309C11.2502 56.1193 11.4661 55.8565 11.7786 55.6548C12.0911 55.4531 12.4434 55.3523 12.8354 55.3523C12.9093 55.3523 13.0016 55.3537 13.1124 55.3565C13.2232 55.3594 13.307 55.3636 13.3638 55.3693V56.392C13.3297 56.3835 13.2516 56.3707 13.1294 56.3537C13.0101 56.3338 12.8837 56.3239 12.7502 56.3239C12.432 56.3239 12.1479 56.3906 11.8979 56.5241C11.6507 56.6548 11.4547 56.8366 11.3098 57.0696C11.1678 57.2997 11.0968 57.5625 11.0968 57.858V62H10.0911ZM16.8583 62.1364C16.3128 62.1364 15.8313 61.9986 15.4137 61.723C14.9961 61.4446 14.6694 61.0526 14.4336 60.5469C14.1978 60.0384 14.0799 59.4375 14.0799 58.7443C14.0799 58.0568 14.1978 57.4602 14.4336 56.9545C14.6694 56.4489 14.9975 56.0582 15.418 55.7827C15.8384 55.5071 16.3242 55.3693 16.8753 55.3693C17.3015 55.3693 17.6381 55.4403 17.8853 55.5824C18.1353 55.7216 18.3256 55.8807 18.4563 56.0597C18.5898 56.2358 18.6935 56.3807 18.7674 56.4943H18.8526V53.2727H19.8583V62H18.8867V60.9943H18.7674C18.6935 61.1136 18.5884 61.2642 18.452 61.446C18.3157 61.625 18.1211 61.7855 17.8682 61.9276C17.6154 62.0668 17.2788 62.1364 16.8583 62.1364ZM16.9947 61.233C17.3981 61.233 17.739 61.1278 18.0174 60.9176C18.2958 60.7045 18.5074 60.4105 18.6523 60.0355C18.7972 59.6577 18.8697 59.2216 18.8697 58.7273C18.8697 58.2386 18.7986 57.8111 18.6566 57.4446C18.5145 57.0753 18.3043 56.7884 18.0259 56.5838C17.7475 56.3764 17.4038 56.2727 16.9947 56.2727C16.5685 56.2727 16.2134 56.3821 15.9293 56.6009C15.6481 56.8168 15.4364 57.1108 15.2944 57.483C15.1552 57.8523 15.0856 58.267 15.0856 58.7273C15.0856 59.1932 15.1566 59.6165 15.2986 59.9972C15.4435 60.375 15.6566 60.6761 15.9378 60.9006C16.2219 61.1222 16.5742 61.233 16.9947 61.233ZM24.6141 62.1364C23.9835 62.1364 23.4394 61.9972 22.982 61.7188C22.5275 61.4375 22.1766 61.0455 21.9295 60.5426C21.6852 60.0369 21.563 59.4489 21.563 58.7784C21.563 58.108 21.6852 57.517 21.9295 57.0057C22.1766 56.4915 22.5204 56.0909 22.9607 55.804C23.4039 55.5142 23.921 55.3693 24.5119 55.3693C24.8528 55.3693 25.1894 55.4261 25.5218 55.5398C25.8542 55.6534 26.1568 55.8381 26.4295 56.0938C26.7022 56.3466 26.9195 56.6818 27.0815 57.0994C27.2434 57.517 27.3244 58.0312 27.3244 58.642V59.0682H22.2789V58.1989H26.3016C26.3016 57.8295 26.2278 57.5 26.0801 57.2102C25.9352 56.9205 25.7278 56.6918 25.4579 56.5241C25.1909 56.3565 24.8755 56.2727 24.5119 56.2727C24.1113 56.2727 23.7647 56.3722 23.4721 56.571C23.1823 56.767 22.9593 57.0227 22.8031 57.3381C22.6468 57.6534 22.5687 57.9915 22.5687 58.3523V58.9318C22.5687 59.4261 22.6539 59.8452 22.8244 60.1889C22.9977 60.5298 23.2377 60.7898 23.5445 60.9688C23.8514 61.1449 24.2079 61.233 24.6141 61.233C24.8784 61.233 25.117 61.196 25.3301 61.1222C25.546 61.0455 25.732 60.9318 25.8883 60.7812C26.0445 60.6278 26.1653 60.4375 26.2505 60.2102L27.2221 60.483C27.1198 60.8125 26.948 61.1023 26.7065 61.3523C26.465 61.5994 26.1667 61.7926 25.8116 61.9318C25.4565 62.0682 25.0573 62.1364 24.6141 62.1364ZM28.8842 62V55.4545H29.8558V56.4432H29.924C30.0433 56.1193 30.2592 55.8565 30.5717 55.6548C30.8842 55.4531 31.2365 55.3523 31.6285 55.3523C31.7024 55.3523 31.7947 55.3537 31.9055 55.3565C32.0163 55.3594 32.1001 55.3636 32.1569 55.3693V56.392C32.1228 56.3835 32.0447 56.3707 31.9226 56.3537C31.8032 56.3338 31.6768 56.3239 31.5433 56.3239C31.2251 56.3239 30.941 56.3906 30.691 56.5241C30.4439 56.6548 30.2478 56.8366 30.103 57.0696C29.9609 57.2997 29.8899 57.5625 29.8899 57.858V62H28.8842Z" fill="#00AC77"/>
<path d="M85.5052 62V53.2727H88.454C89.1387 53.2727 89.6984 53.3963 90.133 53.6435C90.5705 53.8878 90.8944 54.2188 91.1046 54.6364C91.3148 55.054 91.4199 55.5199 91.4199 56.0341C91.4199 56.5483 91.3148 57.0156 91.1046 57.4361C90.8972 57.8565 90.5762 58.1918 90.1415 58.4418C89.7069 58.6889 89.1501 58.8125 88.4711 58.8125H86.3574V57.875H88.437C88.9057 57.875 89.2822 57.794 89.5663 57.6321C89.8503 57.4702 90.0563 57.2514 90.1842 56.9759C90.3148 56.6974 90.3802 56.3835 90.3802 56.0341C90.3802 55.6847 90.3148 55.3722 90.1842 55.0966C90.0563 54.821 89.8489 54.6051 89.562 54.4489C89.2751 54.2898 88.8944 54.2102 88.4199 54.2102H86.562V62H85.5052ZM94.9421 62.1534C94.5274 62.1534 94.1509 62.0753 93.8129 61.919C93.4748 61.7599 93.2063 61.5312 93.0075 61.233C92.8086 60.9318 92.7092 60.5682 92.7092 60.142C92.7092 59.767 92.783 59.4631 92.9308 59.2301C93.0785 58.9943 93.2759 58.8097 93.5231 58.6761C93.7703 58.5426 94.043 58.4432 94.3413 58.3778C94.6424 58.3097 94.945 58.2557 95.249 58.2159C95.6467 58.1648 95.9691 58.1264 96.2163 58.1009C96.4663 58.0724 96.6481 58.0256 96.7617 57.9602C96.8782 57.8949 96.9365 57.7812 96.9365 57.6193V57.5852C96.9365 57.1648 96.8214 56.8381 96.5913 56.6051C96.364 56.3722 96.0188 56.2557 95.5558 56.2557C95.0757 56.2557 94.6992 56.3608 94.4265 56.571C94.1538 56.7812 93.962 57.0057 93.8512 57.2443L92.8967 56.9034C93.0671 56.5057 93.2944 56.196 93.5785 55.9744C93.8654 55.75 94.1779 55.5937 94.516 55.5057C94.8569 55.4148 95.1921 55.3693 95.5217 55.3693C95.7319 55.3693 95.9734 55.3949 96.2461 55.446C96.5217 55.4943 96.7873 55.5952 97.043 55.7486C97.3015 55.902 97.516 56.1335 97.6865 56.4432C97.8569 56.7528 97.9421 57.1676 97.9421 57.6875V62H96.9365V61.1136H96.8853C96.8171 61.2557 96.7035 61.4077 96.5444 61.5696C96.3853 61.7315 96.1737 61.8693 95.9095 61.983C95.6453 62.0966 95.3228 62.1534 94.9421 62.1534ZM95.0955 61.25C95.4933 61.25 95.8285 61.1719 96.1012 61.0156C96.3768 60.8594 96.5842 60.6577 96.7234 60.4105C96.8654 60.1634 96.9365 59.9034 96.9365 59.6307V58.7102C96.8938 58.7614 96.8001 58.8082 96.6552 58.8509C96.5132 58.8906 96.3484 58.9261 96.1609 58.9574C95.9762 58.9858 95.7958 59.0114 95.6197 59.0341C95.4464 59.054 95.3058 59.071 95.1978 59.0852C94.9365 59.1193 94.6921 59.1747 94.4649 59.2514C94.2404 59.3253 94.0586 59.4375 93.9194 59.5881C93.783 59.7358 93.7149 59.9375 93.7149 60.1932C93.7149 60.5426 93.8441 60.8068 94.1026 60.9858C94.364 61.1619 94.695 61.25 95.0955 61.25ZM102.467 62.1364C101.853 62.1364 101.325 61.9915 100.882 61.7017C100.438 61.4119 100.097 61.0128 99.8589 60.5043C99.6202 59.9957 99.5009 59.4148 99.5009 58.7614C99.5009 58.0966 99.6231 57.5099 99.8674 57.0014C100.115 56.4901 100.458 56.0909 100.899 55.804C101.342 55.5142 101.859 55.3693 102.45 55.3693C102.91 55.3693 103.325 55.4545 103.694 55.625C104.063 55.7955 104.366 56.0341 104.602 56.3409C104.838 56.6477 104.984 57.0057 105.041 57.4148H104.035C103.958 57.1165 103.788 56.8523 103.524 56.6222C103.262 56.3892 102.91 56.2727 102.467 56.2727C102.075 56.2727 101.731 56.375 101.436 56.5795C101.143 56.7812 100.914 57.0668 100.749 57.4361C100.588 57.8026 100.507 58.233 100.507 58.7273C100.507 59.233 100.586 59.6733 100.745 60.0483C100.907 60.4233 101.134 60.7145 101.427 60.9219C101.722 61.1293 102.069 61.233 102.467 61.233C102.728 61.233 102.965 61.1875 103.178 61.0966C103.392 61.0057 103.572 60.875 103.72 60.7045C103.867 60.5341 103.972 60.3295 104.035 60.0909H105.041C104.984 60.4773 104.843 60.8253 104.619 61.1349C104.397 61.4418 104.103 61.6861 103.737 61.8679C103.373 62.0469 102.95 62.1364 102.467 62.1364ZM107.478 59.6136L107.461 58.3693H107.666L110.529 55.4545H111.774L108.723 58.5398H108.637L107.478 59.6136ZM106.541 62V53.2727H107.547V62H106.541ZM110.7 62L108.143 58.7614L108.859 58.0625L111.978 62H110.7ZM115.024 62.1534C114.61 62.1534 114.233 62.0753 113.895 61.919C113.557 61.7599 113.289 61.5312 113.09 61.233C112.891 60.9318 112.791 60.5682 112.791 60.142C112.791 59.767 112.865 59.4631 113.013 59.2301C113.161 58.9943 113.358 58.8097 113.605 58.6761C113.852 58.5426 114.125 58.4432 114.423 58.3778C114.725 58.3097 115.027 58.2557 115.331 58.2159C115.729 58.1648 116.051 58.1264 116.298 58.1009C116.548 58.0724 116.73 58.0256 116.844 57.9602C116.96 57.8949 117.019 57.7812 117.019 57.6193V57.5852C117.019 57.1648 116.904 56.8381 116.673 56.6051C116.446 56.3722 116.101 56.2557 115.638 56.2557C115.158 56.2557 114.781 56.3608 114.509 56.571C114.236 56.7812 114.044 57.0057 113.933 57.2443L112.979 56.9034C113.149 56.5057 113.377 56.196 113.661 55.9744C113.948 55.75 114.26 55.5937 114.598 55.5057C114.939 55.4148 115.274 55.3693 115.604 55.3693C115.814 55.3693 116.056 55.3949 116.328 55.446C116.604 55.4943 116.869 55.5952 117.125 55.7486C117.384 55.902 117.598 56.1335 117.769 56.4432C117.939 56.7528 118.024 57.1676 118.024 57.6875V62H117.019V61.1136H116.968C116.899 61.2557 116.786 61.4077 116.627 61.5696C116.468 61.7315 116.256 61.8693 115.992 61.983C115.727 62.0966 115.405 62.1534 115.024 62.1534ZM115.178 61.25C115.575 61.25 115.911 61.1719 116.183 61.0156C116.459 60.8594 116.666 60.6577 116.806 60.4105C116.948 60.1634 117.019 59.9034 117.019 59.6307V58.7102C116.976 58.7614 116.882 58.8082 116.737 58.8509C116.595 58.8906 116.431 58.9261 116.243 58.9574C116.058 58.9858 115.878 59.0114 115.702 59.0341C115.529 59.054 115.388 59.071 115.28 59.0852C115.019 59.1193 114.774 59.1747 114.547 59.2514C114.323 59.3253 114.141 59.4375 114.002 59.5881C113.865 59.7358 113.797 59.9375 113.797 60.1932C113.797 60.5426 113.926 60.8068 114.185 60.9858C114.446 61.1619 114.777 61.25 115.178 61.25ZM122.532 64.5909C122.046 64.5909 121.629 64.5284 121.279 64.4034C120.93 64.2812 120.638 64.1193 120.406 63.9176C120.175 63.7188 119.992 63.5057 119.856 63.2784L120.657 62.7159C120.748 62.8352 120.863 62.9716 121.002 63.125C121.141 63.2812 121.332 63.4162 121.573 63.5298C121.817 63.6463 122.137 63.7045 122.532 63.7045C123.06 63.7045 123.496 63.5767 123.84 63.321C124.184 63.0653 124.356 62.6648 124.356 62.1193V60.7898H124.271C124.197 60.9091 124.092 61.0568 123.955 61.233C123.822 61.4062 123.629 61.5611 123.376 61.6974C123.126 61.831 122.788 61.8977 122.361 61.8977C121.833 61.8977 121.359 61.7727 120.938 61.5227C120.521 61.2727 120.19 60.9091 119.945 60.4318C119.704 59.9545 119.583 59.375 119.583 58.6932C119.583 58.0227 119.701 57.4389 119.937 56.9418C120.173 56.4418 120.501 56.0554 120.921 55.7827C121.342 55.5071 121.827 55.3693 122.379 55.3693C122.805 55.3693 123.143 55.4403 123.393 55.5824C123.646 55.7216 123.839 55.8807 123.972 56.0597C124.109 56.2358 124.214 56.3807 124.288 56.4943H124.39V55.4545H125.361V62.1875C125.361 62.75 125.234 63.2074 124.978 63.5597C124.725 63.9148 124.384 64.1747 123.955 64.3395C123.529 64.5071 123.055 64.5909 122.532 64.5909ZM122.498 60.9943C122.901 60.9943 123.242 60.902 123.521 60.7173C123.799 60.5327 124.011 60.267 124.156 59.9205C124.3 59.5739 124.373 59.1591 124.373 58.6761C124.373 58.2045 124.302 57.7884 124.16 57.4276C124.018 57.0668 123.808 56.7841 123.529 56.5795C123.251 56.375 122.907 56.2727 122.498 56.2727C122.072 56.2727 121.717 56.3807 121.433 56.5966C121.151 56.8125 120.94 57.1023 120.798 57.4659C120.658 57.8295 120.589 58.233 120.589 58.6761C120.589 59.1307 120.66 59.5327 120.802 59.8821C120.947 60.2287 121.16 60.5014 121.441 60.7003C121.725 60.8963 122.077 60.9943 122.498 60.9943ZM127.232 62V55.4545H128.238V62H127.232ZM127.744 54.3636C127.548 54.3636 127.379 54.2969 127.237 54.1634C127.097 54.0298 127.028 53.8693 127.028 53.6818C127.028 53.4943 127.097 53.3338 127.237 53.2003C127.379 53.0668 127.548 53 127.744 53C127.94 53 128.107 53.0668 128.247 53.2003C128.389 53.3338 128.46 53.4943 128.46 53.6818C128.46 53.8693 128.389 54.0298 128.247 54.1634C128.107 54.2969 127.94 54.3636 127.744 54.3636ZM131.116 58.0625V62H130.11V55.4545H131.082V56.4773H131.167C131.32 56.1449 131.553 55.8778 131.866 55.6761C132.178 55.4716 132.582 55.3693 133.076 55.3693C133.519 55.3693 133.907 55.4602 134.239 55.642C134.572 55.821 134.83 56.0938 135.015 56.4602C135.2 56.8239 135.292 57.2841 135.292 57.8409V62H134.286V57.9091C134.286 57.3949 134.153 56.9943 133.886 56.7074C133.619 56.4176 133.252 56.2727 132.786 56.2727C132.465 56.2727 132.178 56.3423 131.925 56.4815C131.675 56.6207 131.478 56.8239 131.333 57.0909C131.188 57.358 131.116 57.6818 131.116 58.0625ZM139.802 64.5909C139.316 64.5909 138.898 64.5284 138.549 64.4034C138.199 64.2812 137.908 64.1193 137.675 63.9176C137.445 63.7188 137.262 63.5057 137.126 63.2784L137.927 62.7159C138.018 62.8352 138.133 62.9716 138.272 63.125C138.411 63.2812 138.601 63.4162 138.843 63.5298C139.087 63.6463 139.407 63.7045 139.802 63.7045C140.33 63.7045 140.766 63.5767 141.11 63.321C141.454 63.0653 141.626 62.6648 141.626 62.1193V60.7898H141.54C141.466 60.9091 141.361 61.0568 141.225 61.233C141.091 61.4062 140.898 61.5611 140.645 61.6974C140.395 61.831 140.057 61.8977 139.631 61.8977C139.103 61.8977 138.628 61.7727 138.208 61.5227C137.79 61.2727 137.459 60.9091 137.215 60.4318C136.974 59.9545 136.853 59.375 136.853 58.6932C136.853 58.0227 136.971 57.4389 137.206 56.9418C137.442 56.4418 137.77 56.0554 138.191 55.7827C138.611 55.5071 139.097 55.3693 139.648 55.3693C140.074 55.3693 140.412 55.4403 140.662 55.5824C140.915 55.7216 141.108 55.8807 141.242 56.0597C141.378 56.2358 141.483 56.3807 141.557 56.4943H141.66V55.4545H142.631V62.1875C142.631 62.75 142.503 63.2074 142.248 63.5597C141.995 63.9148 141.654 64.1747 141.225 64.3395C140.799 64.5071 140.324 64.5909 139.802 64.5909ZM139.768 60.9943C140.171 60.9943 140.512 60.902 140.79 60.7173C141.069 60.5327 141.28 60.267 141.425 59.9205C141.57 59.5739 141.643 59.1591 141.643 58.6761C141.643 58.2045 141.572 57.7884 141.429 57.4276C141.287 57.0668 141.077 56.7841 140.799 56.5795C140.52 56.375 140.177 56.2727 139.768 56.2727C139.341 56.2727 138.986 56.3807 138.702 56.5966C138.421 56.8125 138.209 57.1023 138.067 57.4659C137.928 57.8295 137.858 58.233 137.858 58.6761C137.858 59.1307 137.929 59.5327 138.072 59.8821C138.216 60.2287 138.429 60.5014 138.711 60.7003C138.995 60.8963 139.347 60.9943 139.768 60.9943Z" fill="#00AC77"/>
<path d="M193.027 55.4545C192.976 55.0227 192.769 54.6875 192.405 54.4489C192.041 54.2102 191.595 54.0909 191.067 54.0909C190.681 54.0909 190.343 54.1534 190.053 54.2784C189.766 54.4034 189.541 54.5753 189.38 54.794C189.22 55.0128 189.141 55.2614 189.141 55.5398C189.141 55.7727 189.196 55.973 189.307 56.1406C189.421 56.3054 189.566 56.4432 189.742 56.554C189.918 56.6619 190.103 56.7514 190.296 56.8224C190.489 56.8906 190.666 56.946 190.828 56.9886L191.715 57.2273C191.942 57.2869 192.195 57.3693 192.473 57.4744C192.755 57.5795 193.023 57.723 193.279 57.9048C193.537 58.0838 193.75 58.3139 193.918 58.5952C194.086 58.8764 194.169 59.2216 194.169 59.6307C194.169 60.1023 194.046 60.5284 193.799 60.9091C193.554 61.2898 193.196 61.5923 192.725 61.8168C192.256 62.0412 191.686 62.1534 191.016 62.1534C190.391 62.1534 189.85 62.0526 189.392 61.8509C188.938 61.6491 188.58 61.3679 188.318 61.0071C188.06 60.6463 187.914 60.2273 187.88 59.75H188.97C188.999 60.0795 189.11 60.3523 189.303 60.5682C189.499 60.7812 189.746 60.9403 190.044 61.0455C190.345 61.1477 190.669 61.1989 191.016 61.1989C191.419 61.1989 191.782 61.1335 192.103 61.0028C192.424 60.8693 192.678 60.6847 192.865 60.4489C193.053 60.2102 193.147 59.9318 193.147 59.6136C193.147 59.3239 193.066 59.0881 192.904 58.9062C192.742 58.7244 192.529 58.5767 192.264 58.4631C192 58.3494 191.715 58.25 191.408 58.1648L190.334 57.858C189.652 57.6619 189.113 57.3821 188.715 57.0185C188.317 56.6548 188.118 56.179 188.118 55.5909C188.118 55.1023 188.25 54.6761 188.514 54.3125C188.782 53.946 189.139 53.6619 189.588 53.4602C190.04 53.2557 190.544 53.1534 191.101 53.1534C191.664 53.1534 192.164 53.2543 192.601 53.456C193.039 53.6548 193.385 53.9276 193.641 54.2741C193.899 54.6207 194.036 55.0142 194.05 55.4545H193.027ZM196.806 58.0625V62H195.801V53.2727H196.806V56.4773H196.891C197.045 56.1392 197.275 55.8707 197.582 55.6719C197.891 55.4702 198.303 55.3693 198.818 55.3693C199.264 55.3693 199.654 55.4588 199.989 55.6378C200.325 55.8139 200.585 56.0852 200.769 56.4517C200.957 56.8153 201.051 57.2784 201.051 57.8409V62H200.045V57.9091C200.045 57.3892 199.91 56.9872 199.64 56.7031C199.373 56.4162 199.002 56.2727 198.528 56.2727C198.198 56.2727 197.903 56.3423 197.641 56.4815C197.383 56.6207 197.178 56.8239 197.028 57.0909C196.88 57.358 196.806 57.6818 196.806 58.0625ZM202.92 62V55.4545H203.926V62H202.92ZM203.432 54.3636C203.236 54.3636 203.067 54.2969 202.925 54.1634C202.785 54.0298 202.716 53.8693 202.716 53.6818C202.716 53.4943 202.785 53.3338 202.925 53.2003C203.067 53.0668 203.236 53 203.432 53C203.628 53 203.795 53.0668 203.935 53.2003C204.077 53.3338 204.148 53.4943 204.148 53.6818C204.148 53.8693 204.077 54.0298 203.935 54.1634C203.795 54.2969 203.628 54.3636 203.432 54.3636ZM205.798 64.4545V55.4545H206.77V56.4943H206.889C206.963 56.3807 207.065 56.2358 207.196 56.0597C207.329 55.8807 207.52 55.7216 207.767 55.5824C208.017 55.4403 208.355 55.3693 208.781 55.3693C209.332 55.3693 209.818 55.5071 210.238 55.7827C210.659 56.0582 210.987 56.4489 211.223 56.9545C211.459 57.4602 211.576 58.0568 211.576 58.7443C211.576 59.4375 211.459 60.0384 211.223 60.5469C210.987 61.0526 210.66 61.4446 210.243 61.723C209.825 61.9986 209.343 62.1364 208.798 62.1364C208.378 62.1364 208.041 62.0668 207.788 61.9276C207.535 61.7855 207.341 61.625 207.204 61.446C207.068 61.2642 206.963 61.1136 206.889 60.9943H206.804V64.4545H205.798ZM206.787 58.7273C206.787 59.2216 206.859 59.6577 207.004 60.0355C207.149 60.4105 207.361 60.7045 207.639 60.9176C207.917 61.1278 208.258 61.233 208.662 61.233C209.082 61.233 209.433 61.1222 209.714 60.9006C209.998 60.6761 210.211 60.375 210.353 59.9972C210.498 59.6165 210.571 59.1932 210.571 58.7273C210.571 58.267 210.5 57.8523 210.358 57.483C210.218 57.1108 210.007 56.8168 209.723 56.6009C209.441 56.3821 209.088 56.2727 208.662 56.2727C208.253 56.2727 207.909 56.3764 207.63 56.5838C207.352 56.7884 207.142 57.0753 207 57.4446C206.858 57.8111 206.787 58.2386 206.787 58.7273ZM213.141 64.4545V55.4545H214.112V56.4943H214.231C214.305 56.3807 214.408 56.2358 214.538 56.0597C214.672 55.8807 214.862 55.7216 215.109 55.5824C215.359 55.4403 215.697 55.3693 216.123 55.3693C216.675 55.3693 217.16 55.5071 217.581 55.7827C218.001 56.0582 218.329 56.4489 218.565 56.9545C218.801 57.4602 218.919 58.0568 218.919 58.7443C218.919 59.4375 218.801 60.0384 218.565 60.5469C218.329 61.0526 218.003 61.4446 217.585 61.723C217.168 61.9986 216.686 62.1364 216.141 62.1364C215.72 62.1364 215.383 62.0668 215.131 61.9276C214.878 61.7855 214.683 61.625 214.547 61.446C214.41 61.2642 214.305 61.1136 214.231 60.9943H214.146V64.4545H213.141ZM214.129 58.7273C214.129 59.2216 214.202 59.6577 214.346 60.0355C214.491 60.4105 214.703 60.7045 214.981 60.9176C215.26 61.1278 215.601 61.233 216.004 61.233C216.425 61.233 216.775 61.1222 217.057 60.9006C217.341 60.6761 217.554 60.375 217.696 59.9972C217.841 59.6165 217.913 59.1932 217.913 58.7273C217.913 58.267 217.842 57.8523 217.7 57.483C217.561 57.1108 217.349 56.8168 217.065 56.6009C216.784 56.3821 216.43 56.2727 216.004 56.2727C215.595 56.2727 215.251 56.3764 214.973 56.5838C214.695 56.7884 214.484 57.0753 214.342 57.4446C214.2 57.8111 214.129 58.2386 214.129 58.7273ZM220.483 62V55.4545H221.489V62H220.483ZM220.994 54.3636C220.798 54.3636 220.629 54.2969 220.487 54.1634C220.348 54.0298 220.278 53.8693 220.278 53.6818C220.278 53.4943 220.348 53.3338 220.487 53.2003C220.629 53.0668 220.798 53 220.994 53C221.19 53 221.358 53.0668 221.497 53.2003C221.639 53.3338 221.71 53.4943 221.71 53.6818C221.71 53.8693 221.639 54.0298 221.497 54.1634C221.358 54.2969 221.19 54.3636 220.994 54.3636ZM224.366 58.0625V62H223.361V55.4545H224.332V56.4773H224.418C224.571 56.1449 224.804 55.8778 225.116 55.6761C225.429 55.4716 225.832 55.3693 226.327 55.3693C226.77 55.3693 227.158 55.4602 227.49 55.642C227.822 55.821 228.081 56.0938 228.266 56.4602C228.45 56.8239 228.543 57.2841 228.543 57.8409V62H227.537V57.9091C227.537 57.3949 227.403 56.9943 227.136 56.7074C226.869 56.4176 226.503 56.2727 226.037 56.2727C225.716 56.2727 225.429 56.3423 225.176 56.4815C224.926 56.6207 224.729 56.8239 224.584 57.0909C224.439 57.358 224.366 57.6818 224.366 58.0625ZM233.052 64.5909C232.566 64.5909 232.149 64.5284 231.799 64.4034C231.45 64.2812 231.159 64.1193 230.926 63.9176C230.696 63.7188 230.512 63.5057 230.376 63.2784L231.177 62.7159C231.268 62.8352 231.383 62.9716 231.522 63.125C231.662 63.2812 231.852 63.4162 232.093 63.5298C232.338 63.6463 232.657 63.7045 233.052 63.7045C233.581 63.7045 234.017 63.5767 234.361 63.321C234.704 63.0653 234.876 62.6648 234.876 62.1193V60.7898H234.791C234.717 60.9091 234.612 61.0568 234.476 61.233C234.342 61.4062 234.149 61.5611 233.896 61.6974C233.646 61.831 233.308 61.8977 232.882 61.8977C232.353 61.8977 231.879 61.7727 231.459 61.5227C231.041 61.2727 230.71 60.9091 230.466 60.4318C230.224 59.9545 230.103 59.375 230.103 58.6932C230.103 58.0227 230.221 57.4389 230.457 56.9418C230.693 56.4418 231.021 56.0554 231.441 55.7827C231.862 55.5071 232.348 55.3693 232.899 55.3693C233.325 55.3693 233.663 55.4403 233.913 55.5824C234.166 55.7216 234.359 55.8807 234.493 56.0597C234.629 56.2358 234.734 56.3807 234.808 56.4943H234.91V55.4545H235.882V62.1875C235.882 62.75 235.754 63.2074 235.498 63.5597C235.245 63.9148 234.905 64.1747 234.476 64.3395C234.049 64.5071 233.575 64.5909 233.052 64.5909ZM233.018 60.9943C233.422 60.9943 233.762 60.902 234.041 60.7173C234.319 60.5327 234.531 60.267 234.676 59.9205C234.821 59.5739 234.893 59.1591 234.893 58.6761C234.893 58.2045 234.822 57.7884 234.68 57.4276C234.538 57.0668 234.328 56.7841 234.049 56.5795C233.771 56.375 233.427 56.2727 233.018 56.2727C232.592 56.2727 232.237 56.3807 231.953 56.5966C231.672 56.8125 231.46 57.1023 231.318 57.4659C231.179 57.8295 231.109 58.233 231.109 58.6761C231.109 59.1307 231.18 59.5327 231.322 59.8821C231.467 60.2287 231.68 60.5014 231.961 60.7003C232.245 60.8963 232.598 60.9943 233.018 60.9943Z" fill="#9CA3AF"/>
<path d="M287.465 62H286.357L289.562 53.2727H290.653L293.857 62H292.749L290.141 54.6534H290.073L287.465 62ZM287.874 58.5909H292.34V59.5284H287.874V58.5909ZM295.11 62V55.4545H296.082V56.4432H296.15C296.269 56.1193 296.485 55.8565 296.798 55.6548C297.11 55.4531 297.463 55.3523 297.855 55.3523C297.928 55.3523 298.021 55.3537 298.132 55.3565C298.242 55.3594 298.326 55.3636 298.383 55.3693V56.392C298.349 56.3835 298.271 56.3707 298.149 56.3537C298.029 56.3338 297.903 56.3239 297.769 56.3239C297.451 56.3239 297.167 56.3906 296.917 56.5241C296.67 56.6548 296.474 56.8366 296.329 57.0696C296.187 57.2997 296.116 57.5625 296.116 57.858V62H295.11ZM299.605 62V55.4545H300.577V56.4432H300.645C300.764 56.1193 300.98 55.8565 301.293 55.6548C301.605 55.4531 301.957 55.3523 302.349 55.3523C302.423 55.3523 302.516 55.3537 302.626 55.3565C302.737 55.3594 302.821 55.3636 302.878 55.3693V56.392C302.844 56.3835 302.766 56.3707 302.643 56.3537C302.524 56.3338 302.398 56.3239 302.264 56.3239C301.946 56.3239 301.662 56.3906 301.412 56.5241C301.165 56.6548 300.969 56.8366 300.824 57.0696C300.682 57.2997 300.611 57.5625 300.611 57.858V62H299.605ZM304.1 62V55.4545H305.106V62H304.1ZM304.611 54.3636C304.415 54.3636 304.246 54.2969 304.104 54.1634C303.965 54.0298 303.895 53.8693 303.895 53.6818C303.895 53.4943 303.965 53.3338 304.104 53.2003C304.246 53.0668 304.415 53 304.611 53C304.807 53 304.975 53.0668 305.114 53.2003C305.256 53.3338 305.327 53.4943 305.327 53.6818C305.327 53.8693 305.256 54.0298 305.114 54.1634C304.975 54.2969 304.807 54.3636 304.611 54.3636ZM312.33 55.4545L309.909 62H308.887L306.466 55.4545H307.557L309.364 60.6705H309.432L311.239 55.4545H312.33ZM316.197 62.1364C315.567 62.1364 315.023 61.9972 314.565 61.7188C314.111 61.4375 313.76 61.0455 313.513 60.5426C313.268 60.0369 313.146 59.4489 313.146 58.7784C313.146 58.108 313.268 57.517 313.513 57.0057C313.76 56.4915 314.104 56.0909 314.544 55.804C314.987 55.5142 315.504 55.3693 316.095 55.3693C316.436 55.3693 316.773 55.4261 317.105 55.5398C317.437 55.6534 317.74 55.8381 318.013 56.0938C318.285 56.3466 318.503 56.6818 318.665 57.0994C318.827 57.517 318.907 58.0312 318.907 58.642V59.0682H313.862V58.1989H317.885C317.885 57.8295 317.811 57.5 317.663 57.2102C317.518 56.9205 317.311 56.6918 317.041 56.5241C316.774 56.3565 316.459 56.2727 316.095 56.2727C315.694 56.2727 315.348 56.3722 315.055 56.571C314.765 56.767 314.542 57.0227 314.386 57.3381C314.23 57.6534 314.152 57.9915 314.152 58.3523V58.9318C314.152 59.4261 314.237 59.8452 314.407 60.1889C314.581 60.5298 314.821 60.7898 315.128 60.9688C315.434 61.1449 315.791 61.233 316.197 61.233C316.461 61.233 316.7 61.196 316.913 61.1222C317.129 61.0455 317.315 60.9318 317.471 60.7812C317.628 60.6278 317.748 60.4375 317.834 60.2102L318.805 60.483C318.703 60.8125 318.531 61.1023 318.29 61.3523C318.048 61.5994 317.75 61.7926 317.395 61.9318C317.04 62.0682 316.64 62.1364 316.197 62.1364ZM322.939 62.1364C322.393 62.1364 321.912 61.9986 321.494 61.723C321.077 61.4446 320.75 61.0526 320.514 60.5469C320.278 60.0384 320.161 59.4375 320.161 58.7443C320.161 58.0568 320.278 57.4602 320.514 56.9545C320.75 56.4489 321.078 56.0582 321.499 55.7827C321.919 55.5071 322.405 55.3693 322.956 55.3693C323.382 55.3693 323.719 55.4403 323.966 55.5824C324.216 55.7216 324.406 55.8807 324.537 56.0597C324.67 56.2358 324.774 56.3807 324.848 56.4943H324.933V53.2727H325.939V62H324.967V60.9943H324.848C324.774 61.1136 324.669 61.2642 324.533 61.446C324.396 61.625 324.202 61.7855 323.949 61.9276C323.696 62.0668 323.359 62.1364 322.939 62.1364ZM323.075 61.233C323.479 61.233 323.82 61.1278 324.098 60.9176C324.376 60.7045 324.588 60.4105 324.733 60.0355C324.878 59.6577 324.95 59.2216 324.95 58.7273C324.95 58.2386 324.879 57.8111 324.737 57.4446C324.595 57.0753 324.385 56.7884 324.107 56.5838C323.828 56.3764 323.484 56.2727 323.075 56.2727C322.649 56.2727 322.294 56.3821 322.01 56.6009C321.729 56.8168 321.517 57.1108 321.375 57.483C321.236 57.8523 321.166 58.267 321.166 58.7273C321.166 59.1932 321.237 59.6165 321.379 59.9972C321.524 60.375 321.737 60.6761 322.018 60.9006C322.303 61.1222 322.655 61.233 323.075 61.233Z" fill="#9CA3AF"/>
<circle cx="16" cy="16" r="16" fill="#00AC77"/>
<path d="M10.1667 16.8335L13.5 20.1668L21.8333 11.8335" stroke="white" stroke-width="2" stroke-linecap="round" stroke-linejoin="round"/>
<rect x="32" y="15" width="68" height="2" fill="#00AC77"/>
<circle cx="114" cy="16" r="15" stroke="#00AC77" stroke-width="2"/>
<circle cx="114" cy="16" r="5" fill="#00AC77"/>
<rect x="130" y="15" width="68" height="2" fill="#D1D5DB"/>
<circle cx="212" cy="16" r="15" stroke="#9CA3AF" stroke-width="2"/>
<circle cx="212" cy="16" r="5" fill="#D1D5DB"/>
<rect x="228" y="15" width="68" height="2" fill="#D1D5DB"/>
<circle cx="311" cy="16" r="15" stroke="#D1D5DB" stroke-width="2"/>
</svg>
