<svg width="25" height="24" viewBox="0 0 25 24" fill="none" xmlns="http://www.w3.org/2000/svg">
<path d="M2.26172 2H4.00172C5.08172 2 5.93172 2.93 5.84172 4L5.01172 13.96C4.87172 15.59 6.16171 16.99 7.80171 16.99H18.4517C19.8917 16.99 21.1517 15.81 21.2617 14.38L21.8017 6.88C21.9217 5.22 20.6617 3.87 18.9917 3.87H6.08173" stroke="white" stroke-width="1.5" stroke-miterlimit="10" stroke-linecap="round" stroke-linejoin="round"/>
<path d="M16.5117 22C17.2021 22 17.7617 21.4404 17.7617 20.75C17.7617 20.0596 17.2021 19.5 16.5117 19.5C15.8214 19.5 15.2617 20.0596 15.2617 20.75C15.2617 21.4404 15.8214 22 16.5117 22Z" stroke="white" stroke-width="1.5" stroke-miterlimit="10" stroke-linecap="round" stroke-linejoin="round"/>
<path d="M8.51172 22C9.20207 22 9.76172 21.4404 9.76172 20.75C9.76172 20.0596 9.20207 19.5 8.51172 19.5C7.82136 19.5 7.26172 20.0596 7.26172 20.75C7.26172 21.4404 7.82136 22 8.51172 22Z" stroke="white" stroke-width="1.5" stroke-miterlimit="10" stroke-linecap="round" stroke-linejoin="round"/>
<path d="M9.26172 8H21.2617" stroke="white" stroke-width="1.5" stroke-miterlimit="10" stroke-linecap="round" stroke-linejoin="round"/>
</svg>
