<svg width="17" height="16" viewBox="0 0 17 16" fill="none" xmlns="http://www.w3.org/2000/svg">
<path fill-rule="evenodd" clip-rule="evenodd" d="M8.49466 0.000312664C8.50313 0.000104207 8.5116 0 8.52007 0V0.00125151C8.859 0.0179621 9.19053 0.202062 9.36613 0.55625L11.4068 4.69375L15.9724 5.35625C16.7911 5.475 17.1193 6.48438 16.5255 7.0625L13.2224 10.2812L14.0036 14.8281C14.1443 15.6438 13.2849 16.2656 12.5536 15.8813L8.49466 13.7508L4.43569 15.8813C3.70444 16.2656 2.84507 15.6438 2.98569 14.8281L3.76694 10.2812L0.463819 7.0625C-0.129931 6.48438 0.198194 5.475 1.01694 5.35625L5.58257 4.69375L7.62319 0.55625C7.7988 0.202062 8.13032 0.0179621 8.46926 0.00125151V0C8.47773 0 8.4862 0.000104207 8.49466 0.000312664Z" fill="#FBBF24"/>
</svg>
