<svg width="23" height="24" viewBox="0 0 23 24" fill="none" xmlns="http://www.w3.org/2000/svg">
<path d="M12.6476 3.50965L14.2688 7.02965C14.4898 7.51965 15.0794 7.98965 15.5768 8.07965L18.5152 8.60965C20.3943 8.94965 20.8364 10.4296 19.4823 11.8896L17.1979 14.3696C16.8111 14.7896 16.5992 15.5996 16.719 16.1796L17.373 19.2496C17.8888 21.6796 16.7005 22.6196 14.7201 21.3496L11.966 19.5796C11.4685 19.2596 10.6487 19.2596 10.1421 19.5796L7.38795 21.3496C5.41674 22.6196 4.21927 21.6696 4.7351 19.2496L5.3891 16.1796C5.50885 15.5996 5.29699 14.7896 4.91012 14.3696L2.62572 11.8896C1.28088 10.4296 1.71381 8.94965 3.59291 8.60965L6.5313 8.07965C7.0195 7.98965 7.60902 7.51965 7.83009 7.02965L9.45127 3.50965C10.3356 1.59965 11.7725 1.59965 12.6476 3.50965Z" stroke="#9CA3AF" stroke-width="1.5" stroke-linecap="round" stroke-linejoin="round"/>
</svg>
