<svg width="25" height="24" viewBox="0 0 25 24" fill="none" xmlns="http://www.w3.org/2000/svg">
<path d="M21.2617 5.98047C17.9317 5.65047 14.5817 5.48047 11.2417 5.48047C9.26172 5.48047 7.28172 5.58047 5.30172 5.78047L3.26172 5.98047" stroke="white" stroke-width="1.5" stroke-linecap="round" stroke-linejoin="round"/>
<path d="M8.76172 4.97L8.98172 3.66C9.14172 2.71 9.26172 2 10.9517 2H13.5717C15.2617 2 15.3917 2.75 15.5417 3.67L15.7617 4.97" stroke="white" stroke-width="1.5" stroke-linecap="round" stroke-linejoin="round"/>
<path d="M19.1121 9.13965L18.4621 19.2096C18.3521 20.7796 18.2621 21.9996 15.4721 21.9996H9.05211C6.26211 21.9996 6.17211 20.7796 6.06211 19.2096L5.41211 9.13965" stroke="white" stroke-width="1.5" stroke-linecap="round" stroke-linejoin="round"/>
<path d="M10.5918 16.5H13.9218" stroke="white" stroke-width="1.5" stroke-linecap="round" stroke-linejoin="round"/>
<path d="M9.76172 12.5H14.7617" stroke="white" stroke-width="1.5" stroke-linecap="round" stroke-linejoin="round"/>
</svg>
