<svg width="25" height="24" viewBox="0 0 25 24" fill="none" xmlns="http://www.w3.org/2000/svg">
<path d="M9.26172 11V10C9.26172 8.34 9.76172 7 12.2617 7C14.7617 7 15.2617 8.34 15.2617 10V11" stroke="#00AC77" stroke-width="1.5" stroke-linecap="round" stroke-linejoin="round"/>
<path d="M12.2621 14.6004C12.5935 14.6004 12.8621 14.3318 12.8621 14.0004C12.8621 13.669 12.5935 13.4004 12.2621 13.4004C11.9307 13.4004 11.6621 13.669 11.6621 14.0004C11.6621 14.3318 11.9307 14.6004 12.2621 14.6004Z" stroke="#00AC77" stroke-width="1.5" stroke-linecap="round" stroke-linejoin="round"/>
<path d="M14.7617 17H9.76172C7.76172 17 7.26172 16.5 7.26172 14.5V13.5C7.26172 11.5 7.76172 11 9.76172 11H14.7617C16.7617 11 17.2617 11.5 17.2617 13.5V14.5C17.2617 16.5 16.7617 17 14.7617 17Z" stroke="#00AC77" stroke-width="1.5" stroke-linecap="round" stroke-linejoin="round"/>
<path d="M12.2617 22C17.7846 22 22.2617 17.5228 22.2617 12C22.2617 6.47715 17.7846 2 12.2617 2C6.73887 2 2.26172 6.47715 2.26172 12C2.26172 17.5228 6.73887 22 12.2617 22Z" stroke="#00AC77" stroke-width="1.5" stroke-linecap="round" stroke-linejoin="round"/>
</svg>
