<svg width="41" height="41" viewBox="0 0 41 41" fill="none" xmlns="http://www.w3.org/2000/svg">
<rect width="41" height="41" rx="6" fill="white"/>
<path d="M10.9398 23.1756V18.2993H12.2287V19.1596H12.2859C12.3875 18.8739 12.5568 18.6485 12.7938 18.4834C13.0309 18.3183 13.3145 18.2358 13.6447 18.2358C13.9791 18.2358 14.2637 18.3194 14.4987 18.4866C14.7336 18.6517 14.8902 18.876 14.9685 19.1596H15.0193C15.1188 18.8802 15.2987 18.657 15.559 18.4898C15.8215 18.3204 16.1315 18.2358 16.4892 18.2358C16.9442 18.2358 17.3136 18.3808 17.5972 18.6707C17.8829 18.9586 18.0258 19.367 18.0258 19.8962V23.1756H16.6765V20.1628C16.6765 19.8919 16.6046 19.6887 16.4606 19.5533C16.3167 19.4178 16.1368 19.3501 15.9209 19.3501C15.6754 19.3501 15.4839 19.4284 15.3463 19.585C15.2087 19.7395 15.14 19.9438 15.14 20.1978V23.1756H13.8288V20.1343C13.8288 19.8951 13.76 19.7046 13.6224 19.5628C13.487 19.421 13.3081 19.3501 13.0859 19.3501C12.9357 19.3501 12.8002 19.3882 12.6796 19.4644C12.561 19.5385 12.4669 19.6432 12.397 19.7787C12.3272 19.912 12.2922 20.0686 12.2922 20.2485V23.1756H10.9398Z" fill="#111827"/>
<path d="M19.9482 23.2677C19.637 23.2677 19.3598 23.2137 19.1164 23.1058C18.873 22.9957 18.6804 22.8338 18.5386 22.6201C18.3989 22.4042 18.3291 22.1354 18.3291 21.8137C18.3291 21.5428 18.3788 21.3152 18.4783 21.1311C18.5778 20.947 18.7132 20.7988 18.8846 20.6867C19.0561 20.5745 19.2508 20.4898 19.4688 20.4327C19.6889 20.3755 19.9196 20.3353 20.1609 20.312C20.4445 20.2824 20.6731 20.2549 20.8466 20.2295C21.0202 20.202 21.1461 20.1618 21.2244 20.1089C21.3027 20.0559 21.3419 19.9776 21.3419 19.8739V19.8549C21.3419 19.6538 21.2784 19.4983 21.1514 19.3882C21.0265 19.2781 20.8487 19.2231 20.618 19.2231C20.3746 19.2231 20.181 19.2771 20.0371 19.385C19.8931 19.4908 19.7979 19.6242 19.7513 19.785L18.5005 19.6834C18.564 19.3871 18.6889 19.131 18.8751 18.9152C19.0614 18.6972 19.3016 18.53 19.5958 18.4136C19.8921 18.295 20.235 18.2358 20.6244 18.2358C20.8953 18.2358 21.1546 18.2675 21.4022 18.331C21.6519 18.3945 21.8731 18.4929 22.0657 18.6263C22.2604 18.7596 22.4139 18.931 22.526 19.1406C22.6382 19.348 22.6943 19.5967 22.6943 19.8866V23.1756H21.4117V22.4994H21.3736C21.2953 22.6518 21.1905 22.7862 21.0593 22.9026C20.9281 23.0169 20.7704 23.1068 20.5863 23.1724C20.4022 23.2359 20.1894 23.2677 19.9482 23.2677ZM20.3355 22.3343C20.5344 22.3343 20.7101 22.2952 20.8625 22.2169C21.0149 22.1364 21.1345 22.0285 21.2212 21.893C21.308 21.7576 21.3514 21.6041 21.3514 21.4327V20.9152C21.3091 20.9427 21.2509 20.9681 21.1768 20.9914C21.1048 21.0126 21.0233 21.0327 20.9323 21.0517C20.8413 21.0687 20.7503 21.0846 20.6593 21.0994C20.5683 21.1121 20.4858 21.1237 20.4117 21.1343C20.2529 21.1576 20.1143 21.1946 19.9958 21.2454C19.8773 21.2962 19.7852 21.365 19.7196 21.4518C19.654 21.5364 19.6212 21.6422 19.6212 21.7692C19.6212 21.9534 19.6878 22.0941 19.8212 22.1915C19.9566 22.2867 20.1281 22.3343 20.3355 22.3343Z" fill="#111827"/>
<path d="M23.2071 23.1756V18.2993H24.5183V19.1501H24.5691C24.658 18.8474 24.8072 18.6189 25.0167 18.4644C25.2262 18.3077 25.4675 18.2294 25.7405 18.2294C25.8083 18.2294 25.8813 18.2337 25.9596 18.2421C26.0379 18.2506 26.1067 18.2622 26.166 18.2771V19.4771C26.1025 19.458 26.0146 19.4411 25.9025 19.4263C25.7903 19.4115 25.6876 19.4041 25.5945 19.4041C25.3956 19.4041 25.2178 19.4475 25.0612 19.5342C24.9067 19.6189 24.7839 19.7374 24.6929 19.8898C24.604 20.0422 24.5596 20.2179 24.5596 20.4168V23.1756H23.2071Z" fill="#111827"/>
<path d="M27.5542 21.7724L27.5574 20.1501H27.7542L29.3162 18.2993H30.8686L28.7701 20.7501H28.4495L27.5542 21.7724ZM26.3288 23.1756V16.6738H27.6812V23.1756H26.3288ZM29.3765 23.1756L27.9415 21.0517L28.8432 20.0962L30.9607 23.1756H29.3765Z" fill="#111827"/>
<path d="M33.0172 23.2709C32.5156 23.2709 32.0839 23.1693 31.7219 22.9661C31.3621 22.7608 31.0849 22.4708 30.8902 22.0962C30.6955 21.7195 30.5981 21.274 30.5981 20.7597C30.5981 20.2581 30.6955 19.8178 30.8902 19.439C31.0849 19.0601 31.359 18.7649 31.7124 18.5533C32.068 18.3416 32.4849 18.2358 32.9633 18.2358C33.285 18.2358 33.5844 18.2876 33.8617 18.3913C34.1411 18.4929 34.3845 18.6464 34.5919 18.8517C34.8014 19.057 34.9644 19.3152 35.0808 19.6263C35.1972 19.9353 35.2554 20.2972 35.2554 20.7121V21.0835H31.1378V20.2454H33.9823C33.9823 20.0507 33.94 19.8782 33.8553 19.7279C33.7707 19.5776 33.6532 19.4602 33.503 19.3755C33.3548 19.2887 33.1823 19.2453 32.9855 19.2453C32.7802 19.2453 32.5982 19.293 32.4394 19.3882C32.2828 19.4813 32.1601 19.6073 32.0712 19.766C31.9823 19.9226 31.9368 20.0972 31.9346 20.2898V21.0867C31.9346 21.3279 31.9791 21.5364 32.068 21.7121C32.159 21.8878 32.287 22.0232 32.4521 22.1184C32.6172 22.2137 32.813 22.2613 33.0394 22.2613C33.1897 22.2613 33.3273 22.2401 33.4522 22.1978C33.577 22.1555 33.6839 22.092 33.7728 22.0073C33.8617 21.9227 33.9294 21.819 33.976 21.6962L35.2268 21.7788C35.1633 22.0793 35.0332 22.3417 34.8363 22.5661C34.6416 22.7883 34.3898 22.9619 34.0808 23.0867C33.7739 23.2095 33.4194 23.2709 33.0172 23.2709Z" fill="#111827"/>
<path d="M38.1953 18.2993V19.3152H35.2587V18.2993H38.1953ZM35.9254 17.131H37.2778V21.6772C37.2778 21.802 37.2969 21.8994 37.3349 21.9692C37.373 22.037 37.426 22.0846 37.4937 22.1121C37.5635 22.1396 37.644 22.1534 37.735 22.1534C37.7985 22.1534 37.8619 22.1481 37.9254 22.1375C37.9889 22.1248 38.0376 22.1153 38.0715 22.1089L38.2842 23.1153C38.2165 23.1365 38.1212 23.1608 37.9985 23.1883C37.8757 23.218 37.7265 23.2359 37.5508 23.2423C37.2249 23.255 36.9392 23.2116 36.6937 23.1121C36.4503 23.0127 36.2608 22.8582 36.1254 22.6486C35.9899 22.4391 35.9233 22.1745 35.9254 21.8549V17.131Z" fill="#111827"/>
<path d="M9.71004 18.0249C8.57223 17.679 7.41074 18.0977 6.75146 19.0935L6.62703 19.2808L6.6268 19.2806L5.7763 20.5591L5.32479 21.2479C4.95416 21.8069 4.37464 21.8715 3.95375 21.7424C3.53486 21.6149 3.08671 21.2387 3.08671 20.5663C3.08671 19.8934 3.53486 19.517 3.95419 19.3894C4.06947 19.3541 4.19681 19.3332 4.32862 19.3332C4.67669 19.3332 5.05559 19.478 5.32479 19.8842L5.56652 20.2489L6.41457 18.9682C5.74256 18.0631 4.63447 17.6911 3.54357 18.0253C2.40599 18.3718 1.67053 19.3694 1.67053 20.5663C1.67053 21.7629 2.40599 22.76 3.54357 23.1068C4.2482 23.3222 4.96176 23.2428 5.55981 22.9147C5.56719 24.1068 4.75622 24.5586 3.9991 24.5415C3.39143 24.5278 2.98818 24.3904 2.52059 24.0072L1.97906 24.8004C2.58695 25.256 3.26968 25.5249 4.04579 25.5249C5.57009 25.5249 6.94829 24.6074 6.65138 21.8139L7.47776 20.5656L7.92949 19.884C8.29967 19.3247 8.87807 19.2601 9.29942 19.3892C9.71897 19.5167 10.1671 19.8932 10.1671 20.566C10.1671 21.2384 9.71897 21.6147 9.29942 21.7422C8.88142 21.8708 8.30012 21.8072 7.92949 21.2477L7.68731 20.882L6.83681 22.1605C7.34483 22.8472 8.10508 23.2266 8.91739 23.2266C9.17833 23.2266 9.44463 23.1877 9.71026 23.107C10.8478 22.7598 11.5831 21.7626 11.5831 20.566C11.5833 19.369 10.8481 18.3718 9.71004 18.0249Z" fill="#00AC77"/>
<path d="M10.9967 15.5364L10.1089 16.8674C9.63276 17.5812 8.66497 17.7759 7.94751 17.3022L8.83531 15.9712C9.31144 15.2571 10.2792 15.0624 10.9967 15.5364Z" fill="#00AC77"/>
</svg>
