<svg width="16" height="16" viewBox="0 0 16 16" fill="none" xmlns="http://www.w3.org/2000/svg">
<path d="M8.01219 0C7.67074 0 7.32929 0.184375 7.15257 0.55625L5.1967 4.69375L0.820701 5.35625C0.0359567 5.475 -0.27854 6.48438 0.290549 7.0625L3.45648 10.2812L2.70768 14.8281C2.5729 15.6438 3.39658 16.2656 4.09746 15.8813L8.01219 13.7375V0Z" fill="#F59E0B"/>
<path d="M7.96217 0C8.30362 0 8.64508 0.184375 8.82179 0.55625L10.7777 4.69375L15.1537 5.35625C15.9384 5.475 16.2529 6.48438 15.6838 7.0625L12.5179 10.2812L13.2667 14.8281C13.4015 15.6438 12.5778 16.2656 11.8769 15.8813L7.96217 13.7375V0Z" fill="#F59E0B"/>
</svg>
