<svg width="20" height="20" viewBox="0 0 32 32" fill="none" xmlns="http://www.w3.org/2000/svg">
<path d="M29.2934 24.4393C29.2934 24.9193 29.1867 25.4127 28.9601 25.8927C28.7334 26.3727 28.4401 26.826 28.0534 27.2527C27.4001 27.9727 26.6801 28.4927 25.8667 28.826C25.0667 29.1594 24.2001 29.3327 23.2667 29.3327C21.9067 29.3327 20.4534 29.0127 18.9201 28.3594C17.3867 27.706 15.8534 26.826 14.3334 25.7194C12.8001 24.5994 11.3467 23.3593 9.96008 21.986C8.58675 20.5993 7.34675 19.146 6.24008 17.626C5.14675 16.106 4.26675 14.586 3.62675 13.0793C2.98675 11.5593 2.66675 10.106 2.66675 8.71935C2.66675 7.81268 2.82675 6.94602 3.14675 6.14602C3.46675 5.33268 3.97341 4.58602 4.68008 3.91935C5.53341 3.07935 6.46675 2.66602 7.45342 2.66602C7.82675 2.66602 8.20008 2.74602 8.53342 2.90602C8.88008 3.06602 9.18675 3.30602 9.42675 3.65268L12.5201 8.01268C12.7601 8.34602 12.9334 8.65268 13.0534 8.94602C13.1734 9.22602 13.2401 9.50602 13.2401 9.75935C13.2401 10.0793 13.1467 10.3993 12.9601 10.706C12.7867 11.0127 12.5334 11.3327 12.2134 11.6527L11.2001 12.706C11.0534 12.8527 10.9867 13.026 10.9867 13.2393C10.9867 13.346 11.0001 13.4393 11.0267 13.546C11.0667 13.6527 11.1067 13.7327 11.1334 13.8127C11.3734 14.2527 11.7867 14.826 12.3734 15.5193C12.9734 16.2127 13.6134 16.9193 14.3067 17.626C15.0267 18.3327 15.7201 18.986 16.4267 19.586C17.1201 20.1727 17.6934 20.5727 18.1467 20.8127C18.2134 20.8393 18.2934 20.8793 18.3867 20.9193C18.4934 20.9593 18.6001 20.9727 18.7201 20.9727C18.9467 20.9727 19.1201 20.8927 19.2667 20.746L20.2801 19.746C20.6134 19.4127 20.9334 19.1593 21.2401 18.9993C21.5467 18.8127 21.8534 18.7193 22.1867 18.7193C22.4401 18.7193 22.7067 18.7727 23.0001 18.8927C23.2934 19.0127 23.6001 19.186 23.9334 19.4127L28.3467 22.546C28.6934 22.786 28.9334 23.066 29.0801 23.3993C29.2134 23.7327 29.2934 24.066 29.2934 24.4393Z" stroke="#00AC77" stroke-width="1.5" stroke-miterlimit="10"/>
<path d="M24.6667 11.9987C24.6667 11.1987 24.04 9.97203 23.1067 8.97203C22.2533 8.05203 21.12 7.33203 20 7.33203" stroke="#00AC77" stroke-width="1.5" stroke-linecap="round" stroke-linejoin="round"/>
<path d="M29.3333 11.9993C29.3333 6.83935 25.16 2.66602 20 2.66602" stroke="#00AC77" stroke-width="1.5" stroke-linecap="round" stroke-linejoin="round"/>
</svg>
