<svg width="22" height="21" viewBox="0 0 22 21" fill="none" xmlns="http://www.w3.org/2000/svg">
<path d="M14.0274 11.1294H12.1348C10.5823 11.1294 9.31769 9.92939 9.31769 8.43773V6.62939C9.31769 6.28773 9.02988 6.00439 8.66357 6.00439H5.89881C3.88412 6.00439 2.25317 7.25439 2.25317 9.48773V15.0211C2.25317 17.2544 3.88412 18.5044 5.89881 18.5044H11.0359C13.0505 18.5044 14.6815 17.2544 14.6815 15.0211V11.7544C14.6815 11.4044 14.385 11.1294 14.0274 11.1294Z" fill="#374151"/>
<path d="M16.0508 1.8374H14.3327H13.382H10.9138C8.94269 1.8374 7.34663 3.0374 7.27686 5.17907C7.32919 5.17907 7.37279 5.17074 7.42512 5.17074H9.89334H10.844H12.5622C14.5769 5.17074 16.2078 6.42074 16.2078 8.65407V10.2957V12.5541V14.1957C16.2078 14.2457 16.1991 14.2874 16.1991 14.3291C18.144 14.2707 19.6964 13.0374 19.6964 10.8624V9.22074V6.9624V5.32074C19.6964 3.0874 18.0655 1.8374 16.0508 1.8374Z" fill="#374151"/>
<path d="M10.9572 6.12902C10.6869 5.87069 10.2246 6.04569 10.2246 6.40402V8.58736C10.2246 9.50402 11.0357 10.254 12.03 10.254C12.6492 10.2624 13.5127 10.2624 14.254 10.2624C14.629 10.2624 14.8209 9.84569 14.5593 9.59569C13.6086 8.68736 11.9166 7.06236 10.9572 6.12902Z" fill="#374151"/>
</svg>
