<svg width="25" height="85" viewBox="0 0 25 85" fill="none" xmlns="http://www.w3.org/2000/svg">
<path d="M12.8778 13.4304C14.6009 13.4304 15.9978 12.0336 15.9978 10.3104C15.9978 8.5873 14.6009 7.19043 12.8778 7.19043C11.1547 7.19043 9.75781 8.5873 9.75781 10.3104C9.75781 12.0336 11.1547 13.4304 12.8778 13.4304Z" stroke="#6B7280" stroke-width="1.5"/>
<path d="M4.49666 8.49C6.46666 -0.169998 19.2967 -0.159997 21.2567 8.5C22.4067 13.58 19.2467 17.88 16.4767 20.54C14.4667 22.48 11.2867 22.48 9.26666 20.54C6.50666 17.88 3.34666 13.57 4.49666 8.49Z" stroke="#6B7280" stroke-width="1.5"/>
<path d="M12.875 80.5C17.0171 80.5 20.375 77.1421 20.375 73C20.375 68.8579 17.0171 65.5 12.875 65.5C8.73286 65.5 5.375 68.8579 5.375 73C5.375 77.1421 8.73286 80.5 12.875 80.5Z" stroke="#6B7280" stroke-width="1.5" stroke-linecap="round" stroke-linejoin="round"/>
<path d="M12.875 76C14.5319 76 15.875 74.6569 15.875 73C15.875 71.3431 14.5319 70 12.875 70C11.2181 70 9.875 71.3431 9.875 73C9.875 74.6569 11.2181 76 12.875 76Z" stroke="#6B7280" stroke-width="1.5" stroke-linecap="round" stroke-linejoin="round"/>
<path d="M12.875 65V63" stroke="#6B7280" stroke-width="1.5" stroke-linecap="round" stroke-linejoin="round"/>
<path d="M4.875 73H2.875" stroke="#6B7280" stroke-width="1.5" stroke-linecap="round" stroke-linejoin="round"/>
<path d="M12.875 81V83" stroke="#6B7280" stroke-width="1.5" stroke-linecap="round" stroke-linejoin="round"/>
<path d="M20.875 73H22.875" stroke="#6B7280" stroke-width="1.5" stroke-linecap="round" stroke-linejoin="round"/>
<path d="M12.875 25L12.875 59" stroke="#6B7280" stroke-width="1.14039" stroke-linecap="round" stroke-dasharray="2.28 2.28"/>
</svg>
<svg width="25" height="85" viewBox="0 0 25 85" fill="none" xmlns="http://www.w3.org/2000/svg">
<path d="M12.8778 13.4304C14.6009 13.4304 15.9978 12.0336 15.9978 10.3104C15.9978 8.5873 14.6009 7.19043 12.8778 7.19043C11.1547 7.19043 9.75781 8.5873 9.75781 10.3104C9.75781 12.0336 11.1547 13.4304 12.8778 13.4304Z" stroke="#6B7280" stroke-width="1.5"/>
<path d="M4.49666 8.49C6.46666 -0.169998 19.2967 -0.159997 21.2567 8.5C22.4067 13.58 19.2467 17.88 16.4767 20.54C14.4667 22.48 11.2867 22.48 9.26666 20.54C6.50666 17.88 3.34666 13.57 4.49666 8.49Z" stroke="#6B7280" stroke-width="1.5"/>
<path d="M12.875 80.5C17.0171 80.5 20.375 77.1421 20.375 73C20.375 68.8579 17.0171 65.5 12.875 65.5C8.73286 65.5 5.375 68.8579 5.375 73C5.375 77.1421 8.73286 80.5 12.875 80.5Z" stroke="#6B7280" stroke-width="1.5" stroke-linecap="round" stroke-linejoin="round"/>
<path d="M12.875 76C14.5319 76 15.875 74.6569 15.875 73C15.875 71.3431 14.5319 70 12.875 70C11.2181 70 9.875 71.3431 9.875 73C9.875 74.6569 11.2181 76 12.875 76Z" stroke="#6B7280" stroke-width="1.5" stroke-linecap="round" stroke-linejoin="round"/>
<path d="M12.875 65V63" stroke="#6B7280" stroke-width="1.5" stroke-linecap="round" stroke-linejoin="round"/>
<path d="M4.875 73H2.875" stroke="#6B7280" stroke-width="1.5" stroke-linecap="round" stroke-linejoin="round"/>
<path d="M12.875 81V83" stroke="#6B7280" stroke-width="1.5" stroke-linecap="round" stroke-linejoin="round"/>
<path d="M20.875 73H22.875" stroke="#6B7280" stroke-width="1.5" stroke-linecap="round" stroke-linejoin="round"/>
<path d="M12.875 25L12.875 59" stroke="#6B7280" stroke-width="1.14039" stroke-linecap="round" stroke-dasharray="2.28 2.28"/>
</svg>
