<svg width="170" height="24" viewBox="0 0 170 24" fill="none" xmlns="http://www.w3.org/2000/svg">
<path d="M21.97 18.33C21.97 18.69 21.89 19.06 21.72 19.42C21.55 19.78 21.33 20.12 21.04 20.44C20.55 20.98 20.01 21.37 19.4 21.62C18.8 21.87 18.15 22 17.45 22C16.43 22 15.34 21.76 14.19 21.27C13.04 20.78 11.89 20.12 10.75 19.29C9.6 18.45 8.51 17.52 7.47 16.49C6.44 15.45 5.51 14.36 4.68 13.22C3.86 12.08 3.2 10.94 2.72 9.81C2.24 8.67 2 7.58 2 6.54C2 5.86 2.12 5.21 2.36 4.61C2.6 4 2.98 3.44 3.51 2.94C4.15 2.31 4.85 2 5.59 2C5.87 2 6.15 2.06 6.4 2.18C6.66 2.3 6.89 2.48 7.07 2.74L9.39 6.01C9.57 6.26 9.7 6.49 9.79 6.71C9.88 6.92 9.93 7.13 9.93 7.32C9.93 7.56 9.86 7.8 9.72 8.03C9.59 8.26 9.4 8.5 9.16 8.74L8.4 9.53C8.29 9.64 8.24 9.77 8.24 9.93C8.24 10.01 8.25 10.08 8.27 10.16C8.3 10.24 8.33 10.3 8.35 10.36C8.53 10.69 8.84 11.12 9.28 11.64C9.73 12.16 10.21 12.69 10.73 13.22C11.27 13.75 11.79 14.24 12.32 14.69C12.84 15.13 13.27 15.43 13.61 15.61C13.66 15.63 13.72 15.66 13.79 15.69C13.87 15.72 13.95 15.73 14.04 15.73C14.21 15.73 14.34 15.67 14.45 15.56L15.21 14.81C15.46 14.56 15.7 14.37 15.93 14.25C16.16 14.11 16.39 14.04 16.64 14.04C16.83 14.04 17.03 14.08 17.25 14.17C17.47 14.26 17.7 14.39 17.95 14.56L21.26 16.91C21.52 17.09 21.7 17.3 21.81 17.55C21.91 17.8 21.97 18.05 21.97 18.33Z" stroke="white" stroke-width="1.5" stroke-miterlimit="10"/>
<path d="M18.5 9C18.5 8.4 18.03 7.48 17.33 6.73C16.69 6.04 15.84 5.5 15 5.5" stroke="white" stroke-width="1.5" stroke-linecap="round" stroke-linejoin="round"/>
<path d="M22 9C22 5.13 18.87 2 15 2" stroke="white" stroke-width="1.5" stroke-linecap="round" stroke-linejoin="round"/>
<path d="M37.0281 17V6.81818H39.1808V11.0192H43.5508V6.81818H45.6986V17H43.5508V12.794H39.1808V17H37.0281ZM57.005 11.9091C57.005 13.0194 56.7945 13.964 56.3736 14.7429C55.956 15.5218 55.3859 16.1167 54.6633 16.5277C53.9441 16.9354 53.1354 17.1392 52.2372 17.1392C51.3324 17.1392 50.5203 16.9337 49.8011 16.5227C49.0819 16.1117 48.5135 15.5168 48.0959 14.7379C47.6783 13.959 47.4694 13.0161 47.4694 11.9091C47.4694 10.7988 47.6783 9.85417 48.0959 9.07528C48.5135 8.2964 49.0819 7.70312 49.8011 7.29545C50.5203 6.88447 51.3324 6.67898 52.2372 6.67898C53.1354 6.67898 53.9441 6.88447 54.6633 7.29545C55.3859 7.70312 55.956 8.2964 56.3736 9.07528C56.7945 9.85417 57.005 10.7988 57.005 11.9091ZM54.8224 11.9091C54.8224 11.1899 54.7147 10.5833 54.4993 10.0895C54.2872 9.59564 53.9872 9.22112 53.5994 8.96591C53.2116 8.7107 52.7576 8.5831 52.2372 8.5831C51.7168 8.5831 51.2628 8.7107 50.875 8.96591C50.4872 9.22112 50.1856 9.59564 49.9702 10.0895C49.758 10.5833 49.652 11.1899 49.652 11.9091C49.652 12.6283 49.758 13.2348 49.9702 13.7287C50.1856 14.2225 50.4872 14.5971 50.875 14.8523C51.2628 15.1075 51.7168 15.2351 52.2372 15.2351C52.7576 15.2351 53.2116 15.1075 53.5994 14.8523C53.9872 14.5971 54.2872 14.2225 54.4993 13.7287C54.7147 13.2348 54.8224 12.6283 54.8224 11.9091ZM57.922 8.59304V6.81818H66.2842V8.59304H63.167V17H61.0392V8.59304H57.922ZM67.8363 17V6.81818H69.989V15.2251H74.3541V17H67.8363ZM78.1074 6.81818V17H75.9547V6.81818H78.1074ZM88.5698 6.81818V17H86.7105L82.2808 10.5916H82.2062V17H80.0535V6.81818H81.9427L86.3376 13.2216H86.4271V6.81818H88.5698ZM90.5234 17V6.81818H97.3842V8.59304H92.6761V11.0192H97.0312V12.794H92.6761V15.2251H97.4041V17H90.5234ZM108.209 9.74645C108.17 9.34541 107.999 9.03385 107.697 8.81179C107.396 8.58972 106.986 8.47869 106.469 8.47869C106.118 8.47869 105.821 8.52841 105.579 8.62784C105.337 8.72396 105.152 8.85819 105.023 9.03054C104.897 9.20289 104.834 9.39844 104.834 9.61719C104.827 9.79948 104.865 9.95857 104.948 10.0945C105.034 10.2304 105.152 10.348 105.301 10.4474C105.45 10.5436 105.622 10.6281 105.818 10.701C106.014 10.7706 106.222 10.8303 106.444 10.88L107.359 11.0987C107.803 11.1982 108.211 11.3307 108.582 11.4964C108.953 11.6622 109.275 11.866 109.547 12.108C109.818 12.3499 110.029 12.6349 110.178 12.9631C110.331 13.2912 110.408 13.6674 110.412 14.0916C110.408 14.7147 110.249 15.255 109.935 15.7124C109.623 16.1664 109.172 16.5194 108.582 16.7713C107.996 17.0199 107.288 17.1442 106.459 17.1442C105.637 17.1442 104.921 17.0182 104.312 16.7663C103.705 16.5144 103.231 16.1416 102.89 15.6477C102.552 15.1506 102.374 14.5357 102.358 13.8033H104.441C104.464 14.1446 104.562 14.4297 104.734 14.6584C104.91 14.8838 105.144 15.0545 105.435 15.1705C105.73 15.2831 106.063 15.3395 106.435 15.3395C106.799 15.3395 107.116 15.2865 107.384 15.1804C107.656 15.0743 107.866 14.9268 108.015 14.7379C108.165 14.549 108.239 14.3319 108.239 14.0866C108.239 13.858 108.171 13.6657 108.035 13.5099C107.903 13.3542 107.707 13.2216 107.449 13.1122C107.193 13.0028 106.88 12.9034 106.509 12.8139L105.4 12.5355C104.542 12.3267 103.864 12.0002 103.367 11.5561C102.87 11.112 102.623 10.5137 102.626 9.76136C102.623 9.14489 102.787 8.6063 103.118 8.1456C103.453 7.6849 103.912 7.32528 104.496 7.06676C105.079 6.80824 105.742 6.67898 106.484 6.67898C107.24 6.67898 107.899 6.80824 108.463 7.06676C109.03 7.32528 109.47 7.6849 109.785 8.1456C110.1 8.6063 110.263 9.13991 110.273 9.74645H108.209ZM118.324 6.81818H120.477V13.4304C120.477 14.1728 120.299 14.8224 119.945 15.3793C119.593 15.9361 119.101 16.3703 118.468 16.6818C117.835 16.9901 117.097 17.1442 116.256 17.1442C115.41 17.1442 114.671 16.9901 114.038 16.6818C113.405 16.3703 112.913 15.9361 112.562 15.3793C112.21 14.8224 112.035 14.1728 112.035 13.4304V6.81818H114.187V13.2464C114.187 13.6342 114.272 13.9789 114.441 14.2805C114.613 14.5821 114.855 14.8191 115.167 14.9915C115.478 15.1638 115.841 15.25 116.256 15.25C116.673 15.25 117.036 15.1638 117.344 14.9915C117.656 14.8191 117.896 14.5821 118.065 14.2805C118.238 13.9789 118.324 13.6342 118.324 13.2464V6.81818ZM122.423 17V6.81818H126.44C127.212 6.81818 127.87 6.96567 128.413 7.26065C128.957 7.55232 129.371 7.95833 129.656 8.47869C129.945 8.99574 130.089 9.59233 130.089 10.2685C130.089 10.9446 129.943 11.5412 129.651 12.0582C129.36 12.5753 128.937 12.978 128.384 13.2663C127.833 13.5547 127.167 13.6989 126.385 13.6989H123.825V11.9737H126.037C126.451 11.9737 126.793 11.9025 127.061 11.7599C127.333 11.6141 127.535 11.4136 127.668 11.1584C127.804 10.8999 127.872 10.6032 127.872 10.2685C127.872 9.9304 127.804 9.63542 127.668 9.38352C127.535 9.12831 127.333 8.93111 127.061 8.7919C126.789 8.64938 126.445 8.57812 126.027 8.57812H124.575V17H122.423ZM131.662 17V6.81818H135.679C136.451 6.81818 137.109 6.96567 137.653 7.26065C138.196 7.55232 138.611 7.95833 138.896 8.47869C139.184 8.99574 139.328 9.59233 139.328 10.2685C139.328 10.9446 139.182 11.5412 138.891 12.0582C138.599 12.5753 138.177 12.978 137.623 13.2663C137.073 13.5547 136.407 13.6989 135.624 13.6989H133.064V11.9737H135.276C135.691 11.9737 136.032 11.9025 136.301 11.7599C136.572 11.6141 136.775 11.4136 136.907 11.1584C137.043 10.8999 137.111 10.6032 137.111 10.2685C137.111 9.9304 137.043 9.63542 136.907 9.38352C136.775 9.12831 136.572 8.93111 136.301 8.7919C136.029 8.64938 135.684 8.57812 135.266 8.57812H133.815V17H131.662ZM150.258 11.9091C150.258 13.0194 150.048 13.964 149.627 14.7429C149.209 15.5218 148.639 16.1167 147.916 16.5277C147.197 16.9354 146.389 17.1392 145.49 17.1392C144.585 17.1392 143.773 16.9337 143.054 16.5227C142.335 16.1117 141.767 15.5168 141.349 14.7379C140.931 13.959 140.723 13.0161 140.723 11.9091C140.723 10.7988 140.931 9.85417 141.349 9.07528C141.767 8.2964 142.335 7.70312 143.054 7.29545C143.773 6.88447 144.585 6.67898 145.49 6.67898C146.389 6.67898 147.197 6.88447 147.916 7.29545C148.639 7.70312 149.209 8.2964 149.627 9.07528C150.048 9.85417 150.258 10.7988 150.258 11.9091ZM148.076 11.9091C148.076 11.1899 147.968 10.5833 147.752 10.0895C147.54 9.59564 147.24 9.22112 146.853 8.96591C146.465 8.7107 146.011 8.5831 145.49 8.5831C144.97 8.5831 144.516 8.7107 144.128 8.96591C143.74 9.22112 143.439 9.59564 143.223 10.0895C143.011 10.5833 142.905 11.1899 142.905 11.9091C142.905 12.6283 143.011 13.2348 143.223 13.7287C143.439 14.2225 143.74 14.5971 144.128 14.8523C144.516 15.1075 144.97 15.2351 145.49 15.2351C146.011 15.2351 146.465 15.1075 146.853 14.8523C147.24 14.5971 147.54 14.2225 147.752 13.7287C147.968 13.2348 148.076 12.6283 148.076 11.9091ZM152.028 17V6.81818H156.045C156.814 6.81818 157.47 6.95573 158.014 7.23082C158.56 7.5026 158.976 7.88873 159.261 8.3892C159.55 8.88636 159.694 9.47135 159.694 10.1442C159.694 10.8203 159.548 11.402 159.256 11.8892C158.965 12.3731 158.542 12.7443 157.989 13.0028C157.438 13.2614 156.772 13.3906 155.99 13.3906H153.3V11.6605H155.642C156.053 11.6605 156.394 11.6042 156.666 11.4915C156.938 11.3788 157.14 11.2098 157.273 10.9844C157.409 10.759 157.477 10.4789 157.477 10.1442C157.477 9.80611 157.409 9.52107 157.273 9.28906C157.14 9.05705 156.936 8.88139 156.661 8.76207C156.389 8.63944 156.046 8.57812 155.632 8.57812H154.18V17H152.028ZM157.526 12.3665L160.057 17H157.68L155.205 12.3665H157.526ZM161.002 8.59304V6.81818H169.365V8.59304H166.247V17H164.12V8.59304H161.002Z" fill="white"/>
</svg>
