<svg width="49" height="64" viewBox="0 0 49 64" xlink:href= "http://www.facebook.com/" fill="none" xmlns="http://www.w3.org/2000/svg" >
<circle cx="25" cy="24" r="24" fill="#1877F2" fill-opacity="0.1"/>
<path d="M1.18244 62V54.7273H5.69239V55.6719H2.27974V57.8878H5.36923V58.8288H2.27974V62H1.18244ZM8.56442 62.1207C8.21877 62.1207 7.90627 62.0568 7.62692 61.929C7.34756 61.7988 7.12621 61.6106 6.96286 61.3643C6.80187 61.1181 6.72138 60.8163 6.72138 60.4588C6.72138 60.151 6.78056 59.8977 6.89894 59.6989C7.01731 59.5 7.17711 59.3426 7.37834 59.2266C7.57957 59.1106 7.80448 59.023 8.05305 58.9638C8.30163 58.9046 8.55495 58.8596 8.813 58.8288C9.1397 58.791 9.40485 58.7602 9.60845 58.7365C9.81205 58.7105 9.96001 58.669 10.0523 58.6122C10.1447 58.5554 10.1908 58.4631 10.1908 58.3352V58.3104C10.1908 58.0002 10.1032 57.7599 9.92805 57.5895C9.75523 57.419 9.49718 57.3338 9.15391 57.3338C8.79643 57.3338 8.5147 57.4131 8.30874 57.5717C8.10514 57.728 7.96428 57.902 7.88615 58.0938L6.88828 57.8665C7.00665 57.535 7.17948 57.2675 7.40675 57.0639C7.63639 56.858 7.90036 56.7088 8.19865 56.6165C8.49695 56.5218 8.81063 56.4744 9.1397 56.4744C9.35751 56.4744 9.58833 56.5005 9.83217 56.5526C10.0784 56.6023 10.308 56.6946 10.5211 56.8295C10.7365 56.9645 10.9129 57.1574 11.0502 57.4084C11.1875 57.657 11.2562 57.9801 11.2562 58.3778V62H10.2192V61.2543H10.1766C10.108 61.3916 10.005 61.5265 9.86769 61.6591C9.73037 61.7917 9.554 61.9018 9.33857 61.9893C9.12313 62.0769 8.86508 62.1207 8.56442 62.1207ZM8.79524 61.2685C9.0888 61.2685 9.33975 61.2105 9.54808 61.0945C9.75878 60.9785 9.91859 60.8269 10.0275 60.6399C10.1388 60.4505 10.1944 60.2481 10.1944 60.0327V59.3295C10.1565 59.3674 10.0831 59.4029 9.97422 59.4361C9.86769 59.4669 9.74576 59.4941 9.60845 59.5178C9.47114 59.5391 9.33738 59.5592 9.20717 59.5781C9.07697 59.5947 8.96806 59.6089 8.88047 59.6207C8.6745 59.6468 8.48629 59.6906 8.31584 59.7521C8.14775 59.8137 8.01281 59.9025 7.91101 60.0185C7.81158 60.1321 7.76186 60.2836 7.76186 60.473C7.76186 60.7358 7.85893 60.9347 8.05305 61.0696C8.24718 61.2022 8.49458 61.2685 8.79524 61.2685ZM15.008 62.1101C14.4801 62.1101 14.0255 61.9905 13.6444 61.7514C13.2656 61.5099 12.9744 61.1773 12.7708 60.7536C12.5672 60.3298 12.4654 59.8445 12.4654 59.2976C12.4654 58.7436 12.5696 58.2547 12.7779 57.831C12.9862 57.4048 13.2798 57.0722 13.6586 56.8331C14.0374 56.594 14.4836 56.4744 14.9974 56.4744C15.4117 56.4744 15.781 56.5514 16.1053 56.7053C16.4296 56.8568 16.6912 57.0698 16.8901 57.3445C17.0913 57.6191 17.2109 57.9399 17.2488 58.3068H16.2154C16.1586 58.0511 16.0284 57.831 15.8248 57.6463C15.6235 57.4616 15.3536 57.3693 15.0151 57.3693C14.7192 57.3693 14.4599 57.4474 14.2374 57.6037C14.0172 57.7576 13.8456 57.9777 13.7225 58.2642C13.5994 58.5483 13.5378 58.8845 13.5378 59.2727C13.5378 59.6705 13.5982 60.0137 13.7189 60.3026C13.8397 60.5914 14.0101 60.8151 14.2303 60.9737C14.4528 61.1323 14.7144 61.2116 15.0151 61.2116C15.2163 61.2116 15.3986 61.175 15.562 61.1016C15.7277 61.0258 15.8662 60.9181 15.9775 60.7784C16.0911 60.6387 16.1704 60.4706 16.2154 60.2741H17.2488C17.2109 60.6269 17.0961 60.9418 16.9043 61.2188C16.7126 61.4957 16.4557 61.7135 16.1337 61.8722C15.8141 62.0308 15.4389 62.1101 15.008 62.1101ZM20.7751 62.1101C20.2377 62.1101 19.7749 61.9953 19.3866 61.7656C19.0007 61.5336 18.7024 61.2081 18.4917 60.7891C18.2834 60.3677 18.1792 59.8741 18.1792 59.3082C18.1792 58.7495 18.2834 58.2571 18.4917 57.831C18.7024 57.4048 18.996 57.0722 19.3724 56.8331C19.7512 56.594 20.1939 56.4744 20.7005 56.4744C21.0083 56.4744 21.3066 56.5253 21.5954 56.6271C21.8842 56.7289 22.1435 56.8887 22.3731 57.1065C22.6028 57.3243 22.7839 57.6072 22.9164 57.9553C23.049 58.3009 23.1153 58.7211 23.1153 59.2159V59.5923H18.7794V58.7969H22.0748C22.0748 58.5175 22.018 58.2701 21.9044 58.0547C21.7907 57.8369 21.6309 57.6652 21.425 57.5398C21.2214 57.4143 20.9823 57.3516 20.7076 57.3516C20.4093 57.3516 20.1489 57.425 19.9264 57.5717C19.7062 57.7161 19.5358 57.9055 19.415 58.1399C19.2966 58.3719 19.2375 58.6241 19.2375 58.8963V59.5178C19.2375 59.8823 19.3014 60.1925 19.4292 60.4482C19.5594 60.7038 19.7405 60.8991 19.9725 61.0341C20.2046 61.1667 20.4756 61.233 20.7858 61.233C20.987 61.233 21.1705 61.2045 21.3362 61.1477C21.5019 61.0885 21.6451 61.0009 21.7659 60.8849C21.8866 60.7689 21.9789 60.6257 22.0429 60.4553L23.0478 60.6364C22.9673 60.9323 22.8229 61.1915 22.6146 61.4141C22.4086 61.6342 22.1494 61.8059 21.8369 61.929C21.5268 62.0497 21.1728 62.1101 20.7751 62.1101ZM24.4186 62V54.7273H25.4804V57.4297H25.5443C25.6059 57.3161 25.6947 57.1847 25.8107 57.0355C25.9267 56.8864 26.0876 56.7562 26.2936 56.6449C26.4996 56.5312 26.7718 56.4744 27.1104 56.4744C27.5507 56.4744 27.9437 56.5857 28.2894 56.8082C28.635 57.0308 28.9061 57.3516 29.1026 57.7706C29.3014 58.1896 29.4009 58.6939 29.4009 59.2834C29.4009 59.8729 29.3026 60.3783 29.1061 60.7997C28.9096 61.2187 28.6397 61.5419 28.2965 61.7692C27.9532 61.9941 27.5614 62.1065 27.121 62.1065C26.7896 62.1065 26.5185 62.0509 26.3078 61.9396C26.0995 61.8284 25.9361 61.6982 25.8178 61.549C25.6994 61.3999 25.6082 61.2673 25.5443 61.1513H25.4555V62H24.4186ZM25.4591 59.2727C25.4591 59.6562 25.5147 59.9924 25.626 60.2812C25.7373 60.5701 25.8983 60.7962 26.109 60.9595C26.3197 61.1205 26.5777 61.201 26.8831 61.201C27.2003 61.201 27.4655 61.117 27.6786 60.9489C27.8916 60.7784 28.0526 60.5476 28.1615 60.2564C28.2728 59.9652 28.3284 59.6373 28.3284 59.2727C28.3284 58.9129 28.274 58.5897 28.1651 58.3033C28.0585 58.0168 27.8975 57.7907 27.6821 57.625C27.469 57.4593 27.2027 57.3764 26.8831 57.3764C26.5753 57.3764 26.3149 57.4557 26.1019 57.6143C25.8912 57.773 25.7314 57.9943 25.6225 58.2784C25.5135 58.5625 25.4591 58.8939 25.4591 59.2727ZM32.9307 62.1101C32.4194 62.1101 31.9731 61.9929 31.592 61.7585C31.2108 61.5241 30.9149 61.1963 30.7042 60.7749C30.4935 60.3535 30.3881 59.861 30.3881 59.2976C30.3881 58.7318 30.4935 58.237 30.7042 57.8132C30.9149 57.3894 31.2108 57.0604 31.592 56.826C31.9731 56.5916 32.4194 56.4744 32.9307 56.4744C33.4421 56.4744 33.8884 56.5916 34.2695 56.826C34.6507 57.0604 34.9466 57.3894 35.1573 57.8132C35.368 58.237 35.4734 58.7318 35.4734 59.2976C35.4734 59.861 35.368 60.3535 35.1573 60.7749C34.9466 61.1963 34.6507 61.5241 34.2695 61.7585C33.8884 61.9929 33.4421 62.1101 32.9307 62.1101ZM32.9343 61.2188C33.2657 61.2188 33.5404 61.1312 33.7582 60.956C33.976 60.7808 34.1369 60.5476 34.2411 60.2564C34.3476 59.9652 34.4009 59.6444 34.4009 59.294C34.4009 58.946 34.3476 58.6264 34.2411 58.3352C34.1369 58.0417 33.976 57.8061 33.7582 57.6286C33.5404 57.451 33.2657 57.3622 32.9343 57.3622C32.6005 57.3622 32.3235 57.451 32.1033 57.6286C31.8855 57.8061 31.7234 58.0417 31.6168 58.3352C31.5127 58.6264 31.4606 58.946 31.4606 59.294C31.4606 59.6444 31.5127 59.9652 31.6168 60.2564C31.7234 60.5476 31.8855 60.7808 32.1033 60.956C32.3235 61.1312 32.6005 61.2188 32.9343 61.2188ZM38.9961 62.1101C38.4848 62.1101 38.0385 61.9929 37.6574 61.7585C37.2762 61.5241 36.9803 61.1963 36.7696 60.7749C36.5589 60.3535 36.4535 59.861 36.4535 59.2976C36.4535 58.7318 36.5589 58.237 36.7696 57.8132C36.9803 57.3894 37.2762 57.0604 37.6574 56.826C38.0385 56.5916 38.4848 56.4744 38.9961 56.4744C39.5075 56.4744 39.9538 56.5916 40.3349 56.826C40.7161 57.0604 41.012 57.3894 41.2227 57.8132C41.4334 58.237 41.5387 58.7318 41.5387 59.2976C41.5387 59.861 41.4334 60.3535 41.2227 60.7749C41.012 61.1963 40.7161 61.5241 40.3349 61.7585C39.9538 61.9929 39.5075 62.1101 38.9961 62.1101ZM38.9997 61.2188C39.3311 61.2188 39.6057 61.1312 39.8235 60.956C40.0413 60.7808 40.2023 60.5476 40.3065 60.2564C40.413 59.9652 40.4663 59.6444 40.4663 59.294C40.4663 58.946 40.413 58.6264 40.3065 58.3352C40.2023 58.0417 40.0413 57.8061 39.8235 57.6286C39.6057 57.451 39.3311 57.3622 38.9997 57.3622C38.6659 57.3622 38.3889 57.451 38.1687 57.6286C37.9509 57.8061 37.7887 58.0417 37.6822 58.3352C37.578 58.6264 37.526 58.946 37.526 59.294C37.526 59.6444 37.578 59.9652 37.6822 60.2564C37.7887 60.5476 37.9509 60.7808 38.1687 60.956C38.3889 61.1312 38.6659 61.2188 38.9997 61.2188ZM43.7405 60.1499L43.7334 58.8537H43.9181L46.0913 56.5455H47.3627L44.884 59.1733H44.7171L43.7405 60.1499ZM42.7639 62V54.7273H43.8257V62H42.7639ZM46.2085 62L44.2554 59.4077L44.9869 58.6655L47.5118 62H46.2085Z" fill="#1877F2"/>
<path d="M30.2792 25.25L30.8496 21.6305H27.2831V19.2816C27.2831 18.2914 27.7813 17.3262 29.3786 17.3262H31V14.2445C31 14.2445 29.5286 14 28.1218 14C25.1847 14 23.2649 15.7336 23.2649 18.8719V21.6305H20V25.25H23.2649V34H27.2831V25.25H30.2792Z" fill="#1877F2"/>
</svg>
