<svg width="48" height="64" viewBox="0 0 48 64" fill="none" xmlns="http://www.w3.org/2000/svg">
<circle cx="24" cy="24" r="24" fill="#1DA1F2" fill-opacity="0.1"/>
<path d="M5.81668 55.6719V54.7273H11.4452V55.6719H9.17605V62H8.0823V55.6719H5.81668ZM13.2013 62L11.5962 56.5455H12.6935L13.7624 60.5511H13.8157L14.8881 56.5455H15.9854L17.0507 60.5334H17.104L18.1658 56.5455H19.2631L17.6615 62H16.5784L15.4705 58.0618H15.3888L14.2809 62H13.2013ZM20.3107 62V56.5455H21.3725V62H20.3107ZM20.847 55.7038C20.6623 55.7038 20.5037 55.6423 20.3711 55.5192C20.2409 55.3937 20.1758 55.2446 20.1758 55.0717C20.1758 54.8965 20.2409 54.7474 20.3711 54.6243C20.5037 54.4988 20.6623 54.4361 20.847 54.4361C21.0316 54.4361 21.1891 54.4988 21.3193 54.6243C21.4518 54.7474 21.5181 54.8965 21.5181 55.0717C21.5181 55.2446 21.4518 55.3937 21.3193 55.5192C21.1891 55.6423 21.0316 55.7038 20.847 55.7038ZM25.3871 56.5455V57.3977H22.4077V56.5455H25.3871ZM23.2067 55.2386H24.2685V60.3984C24.2685 60.6044 24.2993 60.7595 24.3609 60.8636C24.4224 60.9654 24.5017 61.0353 24.5988 61.0732C24.6982 61.1087 24.8059 61.1264 24.9219 61.1264C25.0072 61.1264 25.0817 61.1205 25.1457 61.1087C25.2096 61.0968 25.2593 61.0874 25.2948 61.0803L25.4866 61.9574C25.425 61.9811 25.3374 62.0047 25.2238 62.0284C25.1102 62.0545 24.9681 62.0687 24.7977 62.071C24.5183 62.0758 24.2579 62.026 24.0164 61.9219C23.7749 61.8177 23.5796 61.6567 23.4305 61.4389C23.2813 61.2211 23.2067 60.9477 23.2067 60.6186V55.2386ZM29.1478 56.5455V57.3977H26.1684V56.5455H29.1478ZM26.9674 55.2386H28.0292V60.3984C28.0292 60.6044 28.06 60.7595 28.1216 60.8636C28.1831 60.9654 28.2624 61.0353 28.3595 61.0732C28.4589 61.1087 28.5666 61.1264 28.6826 61.1264C28.7679 61.1264 28.8424 61.1205 28.9064 61.1087C28.9703 61.0968 29.02 61.0874 29.0555 61.0803L29.2473 61.9574C29.1857 61.9811 29.0981 62.0047 28.9845 62.0284C28.8709 62.0545 28.7288 62.0687 28.5584 62.071C28.279 62.0758 28.0186 62.026 27.7771 61.9219C27.5356 61.8177 27.3403 61.6567 27.1912 61.4389C27.042 61.2211 26.9674 60.9477 26.9674 60.6186V55.2386ZM32.6546 62.1101C32.1172 62.1101 31.6544 61.9953 31.2661 61.7656C30.8803 61.5336 30.582 61.2081 30.3713 60.7891C30.1629 60.3677 30.0588 59.8741 30.0588 59.3082C30.0588 58.7495 30.1629 58.2571 30.3713 57.831C30.582 57.4048 30.8755 57.0722 31.2519 56.8331C31.6307 56.594 32.0734 56.4744 32.5801 56.4744C32.8878 56.4744 33.1861 56.5253 33.475 56.6271C33.7638 56.7289 34.023 56.8887 34.2527 57.1065C34.4823 57.3243 34.6634 57.6072 34.796 57.9553C34.9286 58.3009 34.9948 58.7211 34.9948 59.2159V59.5923H30.6589V58.7969H33.9544C33.9544 58.5175 33.8975 58.2701 33.7839 58.0547C33.6703 57.8369 33.5105 57.6652 33.3045 57.5398C33.1009 57.4143 32.8618 57.3516 32.5872 57.3516C32.2889 57.3516 32.0285 57.425 31.8059 57.5717C31.5857 57.7161 31.4153 57.9055 31.2946 58.1399C31.1762 58.3719 31.117 58.6241 31.117 58.8963V59.5178C31.117 59.8823 31.1809 60.1925 31.3088 60.4482C31.439 60.7038 31.6201 60.8991 31.8521 61.0341C32.0841 61.1667 32.3552 61.233 32.6653 61.233C32.8665 61.233 33.05 61.2045 33.2157 61.1477C33.3814 61.0885 33.5247 61.0009 33.6454 60.8849C33.7661 60.7689 33.8585 60.6257 33.9224 60.4553L34.9274 60.6364C34.8469 60.9323 34.7025 61.1915 34.4941 61.4141C34.2882 61.6342 34.0289 61.8059 33.7164 61.929C33.4063 62.0497 33.0524 62.1101 32.6546 62.1101ZM36.2129 62V56.5455H37.2392V57.4119H37.296C37.3955 57.1184 37.5706 56.8875 37.8216 56.7195C38.0749 56.549 38.3614 56.4638 38.681 56.4638C38.7473 56.4638 38.8254 56.4661 38.9153 56.4709C39.0077 56.4756 39.0799 56.4815 39.132 56.4886V57.5043C39.0893 57.4924 39.0136 57.4794 38.9047 57.4652C38.7958 57.4486 38.6869 57.4403 38.578 57.4403C38.327 57.4403 38.1033 57.4936 37.9068 57.6001C37.7127 57.7043 37.5588 57.8499 37.4452 58.0369C37.3315 58.2216 37.2747 58.4323 37.2747 58.669V62H36.2129Z" fill="#1DA1F2"/>
<path d="M32.6358 19.7351C32.6504 19.9429 32.6504 20.1508 32.6504 20.3586C32.6504 26.6968 27.9074 34 19.2386 34C16.5679 34 14.0869 33.2132 12 31.8477C12.3795 31.8922 12.7443 31.907 13.1383 31.907C15.342 31.907 17.3706 31.15 18.9905 29.8586C16.9182 29.8141 15.1815 28.4336 14.5831 26.5336C14.875 26.5781 15.1669 26.6078 15.4734 26.6078C15.8966 26.6078 16.3198 26.5484 16.7139 26.4445C14.554 25.9992 12.934 24.0695 12.934 21.7391V21.6797C13.5615 22.036 14.2912 22.2586 15.0647 22.2883C13.795 21.4273 12.9632 19.9578 12.9632 18.2953C12.9632 17.4047 13.1966 16.5883 13.6053 15.8758C15.9257 18.7851 19.4137 20.6851 23.3248 20.8929C23.2519 20.5367 23.2081 20.1656 23.2081 19.7945C23.2081 17.1523 25.3096 15 27.9219 15C29.2792 15 30.5051 15.5789 31.3661 16.5141C32.4314 16.3063 33.453 15.9055 34.3579 15.3563C34.0076 16.4696 33.2633 17.4047 32.2855 17.9984C33.2342 17.8946 34.1536 17.6273 35 17.2563C34.358 18.2062 33.5553 19.0523 32.6358 19.7351V19.7351Z" fill="#1DA1F2"/>
</svg>
