<svg width="48" height="65" viewBox="0 0 48 65" fill="none" xmlns="http://www.w3.org/2000/svg">
<circle cx="24" cy="24" r="24" fill="#29A9EA" fill-opacity="0.1"/>
<path d="M1.89336 55.6719V54.7273H7.52191V55.6719H5.25273V62H4.15898V55.6719H1.89336ZM10.2803 62.1101C9.7429 62.1101 9.28007 61.9953 8.89181 61.7656C8.50592 61.5336 8.20763 61.2081 7.99692 60.7891C7.78859 60.3677 7.68442 59.8741 7.68442 59.3082C7.68442 58.7495 7.78859 58.2571 7.99692 57.831C8.20763 57.4048 8.50119 57.0722 8.87761 56.8331C9.25639 56.594 9.6991 56.4744 10.2057 56.4744C10.5135 56.4744 10.8118 56.5253 11.1006 56.6271C11.3894 56.7289 11.6487 56.8887 11.8783 57.1065C12.108 57.3243 12.2891 57.6072 12.4216 57.9553C12.5542 58.3009 12.6205 58.7211 12.6205 59.2159V59.5923H8.28457V58.7969H11.58C11.58 58.5175 11.5232 58.2701 11.4096 58.0547C11.2959 57.8369 11.1361 57.6652 10.9302 57.5398C10.7266 57.4143 10.4875 57.3516 10.2128 57.3516C9.91454 57.3516 9.65412 57.425 9.43158 57.5717C9.21141 57.7161 9.04096 57.9055 8.92022 58.1399C8.80185 58.3719 8.74266 58.6241 8.74266 58.8963V59.5178C8.74266 59.8823 8.80658 60.1925 8.93442 60.4482C9.06463 60.7038 9.24574 60.8991 9.47775 61.0341C9.70976 61.1667 9.98083 61.233 10.291 61.233C10.4922 61.233 10.6757 61.2045 10.8414 61.1477C11.0071 61.0885 11.1503 61.0009 11.2711 60.8849C11.3918 60.7689 11.4841 60.6257 11.5481 60.4553L12.553 60.6364C12.4725 60.9323 12.3281 61.1915 12.1198 61.4141C11.9138 61.6342 11.6546 61.8059 11.3421 61.929C11.032 62.0497 10.678 62.1101 10.2803 62.1101ZM14.9004 54.7273V62H13.8386V54.7273H14.9004ZM18.7197 62.1101C18.1823 62.1101 17.7194 61.9953 17.3312 61.7656C16.9453 61.5336 16.647 61.2081 16.4363 60.7891C16.228 60.3677 16.1238 59.8741 16.1238 59.3082C16.1238 58.7495 16.228 58.2571 16.4363 57.831C16.647 57.4048 16.9406 57.0722 17.317 56.8331C17.6958 56.594 18.1385 56.4744 18.6451 56.4744C18.9529 56.4744 19.2512 56.5253 19.54 56.6271C19.8288 56.7289 20.0881 56.8887 20.3177 57.1065C20.5473 57.3243 20.7284 57.6072 20.861 57.9553C20.9936 58.3009 21.0599 58.7211 21.0599 59.2159V59.5923H16.7239V58.7969H20.0194C20.0194 58.5175 19.9626 58.2701 19.8489 58.0547C19.7353 57.8369 19.5755 57.6652 19.3695 57.5398C19.1659 57.4143 18.9268 57.3516 18.6522 57.3516C18.3539 57.3516 18.0935 57.425 17.871 57.5717C17.6508 57.7161 17.4803 57.9055 17.3596 58.1399C17.2412 58.3719 17.182 58.6241 17.182 58.8963V59.5178C17.182 59.8823 17.246 60.1925 17.3738 60.4482C17.504 60.7038 17.6851 60.8991 17.9171 61.0341C18.1491 61.1667 18.4202 61.233 18.7303 61.233C18.9316 61.233 19.115 61.2045 19.2808 61.1477C19.4465 61.0885 19.5897 61.0009 19.7104 60.8849C19.8312 60.7689 19.9235 60.6257 19.9874 60.4553L20.9924 60.6364C20.9119 60.9323 20.7675 61.1915 20.5592 61.4141C20.3532 61.6342 20.094 61.8059 19.7815 61.929C19.4713 62.0497 19.1174 62.1101 18.7197 62.1101ZM24.5649 64.1591C24.1317 64.1591 23.7588 64.1023 23.4463 63.9886C23.1362 63.875 22.8828 63.7247 22.6863 63.5376C22.4899 63.3506 22.3431 63.1458 22.246 62.9233L23.1587 62.5469C23.2226 62.651 23.3078 62.7611 23.4143 62.8771C23.5232 62.9955 23.67 63.0961 23.8547 63.179C24.0417 63.2618 24.282 63.3033 24.5756 63.3033C24.978 63.3033 25.3106 63.205 25.5734 63.0085C25.8362 62.8144 25.9676 62.5043 25.9676 62.0781V61.0057H25.9001C25.8362 61.1217 25.7439 61.2507 25.6231 61.3928C25.5048 61.5348 25.3414 61.6579 25.1331 61.7621C24.9247 61.8662 24.6537 61.9183 24.3199 61.9183C23.889 61.9183 23.5007 61.8177 23.1551 61.6165C22.8118 61.4129 22.5396 61.1134 22.3383 60.718C22.1395 60.3203 22.04 59.8314 22.04 59.2514C22.04 58.6714 22.1383 58.1742 22.3348 57.7599C22.5337 57.3456 22.8059 57.0284 23.1515 56.8082C23.4972 56.5857 23.889 56.4744 24.327 56.4744C24.6655 56.4744 24.939 56.5312 25.1473 56.6449C25.3556 56.7562 25.5178 56.8864 25.6338 57.0355C25.7522 57.1847 25.8433 57.3161 25.9072 57.4297H25.9854V56.5455H27.0258V62.1207C27.0258 62.5895 26.9169 62.9742 26.6991 63.2749C26.4813 63.5755 26.1866 63.7981 25.8149 63.9425C25.4456 64.0869 25.0289 64.1591 24.5649 64.1591ZM24.5542 61.0376C24.8596 61.0376 25.1177 60.9666 25.3284 60.8246C25.5415 60.6802 25.7024 60.4742 25.8113 60.2067C25.9226 59.9368 25.9783 59.6136 25.9783 59.2372C25.9783 58.8703 25.9238 58.5471 25.8149 58.2678C25.706 57.9884 25.5462 57.7706 25.3355 57.6143C25.1248 57.4557 24.8644 57.3764 24.5542 57.3764C24.2346 57.3764 23.9683 57.4593 23.7552 57.625C23.5422 57.7884 23.3812 58.0109 23.2723 58.2926C23.1658 58.5743 23.1125 58.8892 23.1125 59.2372C23.1125 59.5947 23.1669 59.9084 23.2758 60.1783C23.3847 60.4482 23.5457 60.6589 23.7588 60.8104C23.9742 60.9619 24.2394 61.0376 24.5542 61.0376ZM28.4898 62V56.5455H29.5161V57.4119H29.5729C29.6724 57.1184 29.8476 56.8875 30.0985 56.7195C30.3518 56.549 30.6383 56.4638 30.9579 56.4638C31.0242 56.4638 31.1023 56.4661 31.1923 56.4709C31.2846 56.4756 31.3568 56.4815 31.4089 56.4886V57.5043C31.3663 57.4924 31.2905 57.4794 31.1816 57.4652C31.0727 57.4486 30.9638 57.4403 30.8549 57.4403C30.604 57.4403 30.3802 57.4936 30.1837 57.6001C29.9896 57.7043 29.8357 57.8499 29.7221 58.0369C29.6085 58.2216 29.5516 58.4323 29.5516 58.669V62H28.4898ZM33.9063 62.1207C33.5606 62.1207 33.2481 62.0568 32.9688 61.929C32.6894 61.7988 32.4681 61.6106 32.3047 61.3643C32.1437 61.1181 32.0632 60.8163 32.0632 60.4588C32.0632 60.151 32.1224 59.8977 32.2408 59.6989C32.3592 59.5 32.519 59.3426 32.7202 59.2266C32.9214 59.1106 33.1463 59.023 33.3949 58.9638C33.6435 58.9046 33.8968 58.8596 34.1548 58.8288C34.4815 58.791 34.7467 58.7602 34.9503 58.7365C35.1539 58.7105 35.3019 58.669 35.3942 58.6122C35.4865 58.5554 35.5327 58.4631 35.5327 58.3352V58.3104C35.5327 58.0002 35.4451 57.7599 35.2699 57.5895C35.0971 57.419 34.839 57.3338 34.4958 57.3338C34.1383 57.3338 33.8565 57.4131 33.6506 57.5717C33.447 57.728 33.3061 57.902 33.228 58.0938L32.2301 57.8665C32.3485 57.535 32.5213 57.2675 32.7486 57.0639C32.9782 56.858 33.2422 56.7088 33.5405 56.6165C33.8388 56.5218 34.1525 56.4744 34.4815 56.4744C34.6994 56.4744 34.9302 56.5005 35.174 56.5526C35.4202 56.6023 35.6499 56.6946 35.8629 56.8295C36.0784 56.9645 36.2547 57.1574 36.3921 57.4084C36.5294 57.657 36.598 57.9801 36.598 58.3778V62H35.5611V61.2543H35.5185C35.4498 61.3916 35.3468 61.5265 35.2095 61.6591C35.0722 61.7917 34.8958 61.9018 34.6804 61.9893C34.465 62.0769 34.2069 62.1207 33.9063 62.1207ZM34.1371 61.2685C34.4306 61.2685 34.6816 61.2105 34.8899 61.0945C35.1006 60.9785 35.2604 60.8269 35.3693 60.6399C35.4806 60.4505 35.5362 60.2481 35.5362 60.0327V59.3295C35.4984 59.3674 35.425 59.4029 35.3161 59.4361C35.2095 59.4669 35.0876 59.4941 34.9503 59.5178C34.813 59.5391 34.6792 59.5592 34.549 59.5781C34.4188 59.5947 34.3099 59.6089 34.2223 59.6207C34.0163 59.6468 33.8281 59.6906 33.6577 59.7521C33.4896 59.8137 33.3547 59.9025 33.2529 60.0185C33.1534 60.1321 33.1037 60.2836 33.1037 60.473C33.1037 60.7358 33.2008 60.9347 33.3949 61.0696C33.589 61.2022 33.8364 61.2685 34.1371 61.2685ZM38.0523 62V56.5455H39.0714V57.4332H39.1389C39.2525 57.1326 39.4384 56.8982 39.6964 56.7301C39.9545 56.5597 40.2634 56.4744 40.6233 56.4744C40.9879 56.4744 41.2933 56.5597 41.5395 56.7301C41.7881 56.9006 41.9715 57.1349 42.0899 57.4332H42.1467C42.2769 57.142 42.4841 56.91 42.7682 56.7372C43.0523 56.562 43.3908 56.4744 43.7838 56.4744C44.2786 56.4744 44.6822 56.6295 44.9947 56.9396C45.3096 57.2498 45.467 57.7173 45.467 58.3423V62H44.4052V58.4418C44.4052 58.0724 44.3046 57.8049 44.1034 57.6392C43.9022 57.4735 43.6619 57.3906 43.3825 57.3906C43.0369 57.3906 42.7682 57.4972 42.5764 57.7102C42.3847 57.9209 42.2888 58.192 42.2888 58.5234V62H41.2305V58.3743C41.2305 58.0784 41.1382 57.8404 40.9535 57.6605C40.7689 57.4806 40.5286 57.3906 40.2327 57.3906C40.0314 57.3906 39.8456 57.4439 39.6751 57.5504C39.507 57.6546 39.3709 57.8002 39.2668 57.9872C39.165 58.1742 39.1141 58.3909 39.1141 58.6371V62H38.0523Z" fill="#29A9EA"/>
<path fill-rule="evenodd" clip-rule="evenodd" d="M14.5811 22.6099C20.7551 19.7874 24.8721 17.9267 26.932 17.0277C32.8136 14.4608 34.0357 14.0149 34.8323 14.0002C35.0075 13.9969 35.3992 14.0425 35.6529 14.2585C35.8672 14.4409 35.9262 14.6874 35.9544 14.8603C35.9826 15.0333 36.0177 15.4273 35.9898 15.7351C35.6711 19.249 34.2919 27.7762 33.5903 31.7118C33.2935 33.3771 32.7089 33.9354 32.143 33.9901C30.9131 34.1088 29.9792 33.1372 28.788 32.3179C26.924 31.0358 25.8709 30.2377 24.0616 28.9867C21.9706 27.5408 23.3261 26.7462 24.5178 25.4475C24.8296 25.1076 30.2485 19.9358 30.3534 19.4667C30.3665 19.408 30.3787 19.1893 30.2549 19.0738C30.131 18.9583 29.9483 18.9978 29.8164 19.0292C29.6294 19.0737 26.6517 21.1389 20.8831 25.2247C20.0379 25.8337 19.2723 26.1304 18.5864 26.1149C17.8302 26.0977 16.3756 25.6663 15.2942 25.2974C13.9679 24.8451 12.9138 24.6059 13.0056 23.8376C13.0534 23.4374 13.5786 23.0282 14.5811 22.6099Z" fill="#29A9EA"/>
</svg>
