<svg width="51" height="65" viewBox="0 0 51 65" fill="none" xmlns="http://www.w3.org/2000/svg">
<path d="M2.6709 62L0.653857 54.7273H1.80798L3.22488 60.3594H3.29235L4.76607 54.7273H5.90954L7.38326 60.3629H7.45073L8.86408 54.7273H10.0218L8.00116 62H6.89675L5.36622 56.5526H5.3094L3.77886 62H2.6709ZM12.0389 58.7614V62H10.9771V54.7273H12.0246V57.4332H12.0921C12.22 57.1397 12.4153 56.9065 12.6781 56.7337C12.9408 56.5608 13.2841 56.4744 13.7079 56.4744C14.0819 56.4744 14.4086 56.5514 14.688 56.7053C14.9697 56.8591 15.1875 57.0888 15.3414 57.3942C15.4977 57.6972 15.5758 58.076 15.5758 58.5305V62H14.514V58.6584C14.514 58.2583 14.411 57.9482 14.205 57.728C13.9991 57.5054 13.7126 57.3942 13.3457 57.3942C13.0947 57.3942 12.8698 57.4474 12.671 57.554C12.4745 57.6605 12.3194 57.8168 12.2058 58.0227C12.0945 58.2263 12.0389 58.4725 12.0389 58.7614ZM18.62 62.1207C18.2744 62.1207 17.9619 62.0568 17.6825 61.929C17.4032 61.7988 17.1818 61.6106 17.0185 61.3643C16.8575 61.1181 16.777 60.8163 16.777 60.4588C16.777 60.151 16.8362 59.8977 16.9546 59.6989C17.0729 59.5 17.2327 59.3426 17.434 59.2266C17.6352 59.1106 17.8601 59.023 18.1087 58.9638C18.3573 58.9046 18.6106 58.8596 18.8686 58.8288C19.1953 58.791 19.4605 58.7602 19.6641 58.7365C19.8677 58.7105 20.0156 58.669 20.108 58.6122C20.2003 58.5554 20.2465 58.4631 20.2465 58.3352V58.3104C20.2465 58.0002 20.1589 57.7599 19.9837 57.5895C19.8109 57.419 19.5528 57.3338 19.2095 57.3338C18.8521 57.3338 18.5703 57.4131 18.3644 57.5717C18.1608 57.728 18.0199 57.902 17.9418 58.0938L16.9439 57.8665C17.0623 57.535 17.2351 57.2675 17.4624 57.0639C17.692 56.858 17.956 56.7088 18.2543 56.6165C18.5526 56.5218 18.8663 56.4744 19.1953 56.4744C19.4131 56.4744 19.644 56.5005 19.8878 56.5526C20.134 56.6023 20.3637 56.6946 20.5767 56.8295C20.7922 56.9645 20.9685 57.1574 21.1058 57.4084C21.2431 57.657 21.3118 57.9801 21.3118 58.3778V62H20.2749V61.2543H20.2323C20.1636 61.3916 20.0606 61.5265 19.9233 61.6591C19.786 61.7917 19.6096 61.9018 19.3942 61.9893C19.1788 62.0769 18.9207 62.1207 18.62 62.1207ZM18.8509 61.2685C19.1444 61.2685 19.3954 61.2105 19.6037 61.0945C19.8144 60.9785 19.9742 60.8269 20.0831 60.6399C20.1944 60.4505 20.25 60.2481 20.25 60.0327V59.3295C20.2121 59.3674 20.1387 59.4029 20.0298 59.4361C19.9233 59.4669 19.8014 59.4941 19.6641 59.5178C19.5268 59.5391 19.393 59.5592 19.2628 59.5781C19.1326 59.5947 19.0237 59.6089 18.9361 59.6207C18.7301 59.6468 18.5419 59.6906 18.3715 59.7521C18.2034 59.8137 18.0684 59.9025 17.9666 60.0185C17.8672 60.1321 17.8175 60.2836 17.8175 60.473C17.8175 60.7358 17.9146 60.9347 18.1087 61.0696C18.3028 61.2022 18.5502 61.2685 18.8509 61.2685ZM25.3122 56.5455V57.3977H22.3328V56.5455H25.3122ZM23.1318 55.2386H24.1936V60.3984C24.1936 60.6044 24.2244 60.7595 24.2859 60.8636C24.3475 60.9654 24.4268 61.0353 24.5239 61.0732C24.6233 61.1087 24.731 61.1264 24.847 61.1264C24.9322 61.1264 25.0068 61.1205 25.0707 61.1087C25.1347 61.0968 25.1844 61.0874 25.2199 61.0803L25.4116 61.9574C25.3501 61.9811 25.2625 62.0047 25.1489 62.0284C25.0352 62.0545 24.8932 62.0687 24.7227 62.071C24.4434 62.0758 24.1829 62.026 23.9415 61.9219C23.7 61.8177 23.5047 61.6567 23.3555 61.4389C23.2064 61.2211 23.1318 60.9477 23.1318 60.6186V55.2386ZM30.5262 57.8771L29.5639 58.0476C29.5236 57.9245 29.4597 57.8073 29.3721 57.696C29.2869 57.5848 29.1709 57.4936 29.0241 57.4226C28.8773 57.3516 28.6938 57.3161 28.4737 57.3161C28.173 57.3161 27.922 57.3835 27.7208 57.5185C27.5196 57.651 27.419 57.8227 27.419 58.0334C27.419 58.2157 27.4864 58.3625 27.6214 58.4737C27.7563 58.585 27.9741 58.6761 28.2748 58.7472L29.1413 58.946C29.6432 59.062 30.0172 59.2408 30.2634 59.4822C30.5096 59.7237 30.6327 60.0374 30.6327 60.4233C30.6327 60.75 30.5381 61.0412 30.3487 61.2969C30.1616 61.5502 29.9 61.7491 29.5639 61.8935C29.2301 62.0379 28.843 62.1101 28.4026 62.1101C27.7918 62.1101 27.2935 61.9799 26.9076 61.7195C26.5217 61.4567 26.285 61.0838 26.1974 60.6009L27.2237 60.4446C27.2876 60.7121 27.419 60.9145 27.6178 61.0518C27.8167 61.1868 28.0759 61.2543 28.3955 61.2543C28.7435 61.2543 29.0217 61.1821 29.2301 61.0376C29.4384 60.8909 29.5426 60.7121 29.5426 60.5014C29.5426 60.331 29.4786 60.1877 29.3508 60.0717C29.2253 59.9557 29.0324 59.8681 28.772 59.8089L27.8487 59.6065C27.3397 59.4905 26.9632 59.3059 26.7194 59.0526C26.4779 58.7992 26.3572 58.4785 26.3572 58.0902C26.3572 57.7682 26.4471 57.4865 26.6271 57.245C26.807 57.0036 27.0556 56.8153 27.3728 56.6804C27.69 56.5431 28.0534 56.4744 28.463 56.4744C29.0525 56.4744 29.5165 56.6023 29.8551 56.858C30.1936 57.1113 30.4173 57.451 30.5262 57.8771ZM32.5398 62H31.375L33.9922 54.7273H35.2599L37.8771 62H36.7123L34.6562 56.0483H34.5994L32.5398 62ZM32.7351 59.152H36.5135V60.0753H32.7351V59.152ZM38.8821 64.0455V56.5455H39.9191V57.4297H40.0079C40.0694 57.3161 40.1582 57.1847 40.2742 57.0355C40.3902 56.8864 40.5512 56.7562 40.7571 56.6449C40.9631 56.5312 41.2354 56.4744 41.5739 56.4744C42.0142 56.4744 42.4072 56.5857 42.7529 56.8082C43.0985 57.0308 43.3696 57.3516 43.5661 57.7706C43.765 58.1896 43.8644 58.6939 43.8644 59.2834C43.8644 59.8729 43.7661 60.3783 43.5696 60.7997C43.3731 61.2187 43.1033 61.5419 42.76 61.7692C42.4167 61.9941 42.0249 62.1065 41.5846 62.1065C41.2531 62.1065 40.982 62.0509 40.7713 61.9396C40.563 61.8284 40.3997 61.6982 40.2813 61.549C40.1629 61.3999 40.0718 61.2673 40.0079 61.1513H39.9439V64.0455H38.8821ZM39.9226 59.2727C39.9226 59.6562 39.9783 59.9924 40.0895 60.2812C40.2008 60.5701 40.3618 60.7962 40.5725 60.9595C40.7832 61.1205 41.0412 61.201 41.3466 61.201C41.6639 61.201 41.929 61.117 42.1421 60.9489C42.3552 60.7784 42.5161 60.5476 42.625 60.2564C42.7363 59.9652 42.7919 59.6373 42.7919 59.2727C42.7919 58.9129 42.7375 58.5897 42.6286 58.3033C42.5221 58.0168 42.3611 57.7907 42.1456 57.625C41.9326 57.4593 41.6662 57.3764 41.3466 57.3764C41.0389 57.3764 40.7784 57.4557 40.5654 57.6143C40.3547 57.773 40.1949 57.9943 40.086 58.2784C39.9771 58.5625 39.9226 58.8939 39.9226 59.2727ZM45.094 64.0455V56.5455H46.1309V57.4297H46.2197C46.2813 57.3161 46.3701 57.1847 46.4861 57.0355C46.6021 56.8864 46.763 56.7562 46.969 56.6449C47.175 56.5312 47.4472 56.4744 47.7858 56.4744C48.2261 56.4744 48.6191 56.5857 48.9648 56.8082C49.3104 57.0308 49.5815 57.3516 49.778 57.7706C49.9768 58.1896 50.0763 58.6939 50.0763 59.2834C50.0763 59.8729 49.978 60.3783 49.7815 60.7997C49.585 61.2187 49.3151 61.5419 48.9719 61.7692C48.6286 61.9941 48.2368 62.1065 47.7964 62.1065C47.465 62.1065 47.1939 62.0509 46.9832 61.9396C46.7749 61.8284 46.6115 61.6982 46.4932 61.549C46.3748 61.3999 46.2836 61.2673 46.2197 61.1513H46.1558V64.0455H45.094ZM46.1345 59.2727C46.1345 59.6562 46.1901 59.9924 46.3014 60.2812C46.4127 60.5701 46.5737 60.7962 46.7844 60.9595C46.9951 61.1205 47.2531 61.201 47.5585 61.201C47.8757 61.201 48.1409 61.117 48.354 60.9489C48.567 60.7784 48.728 60.5476 48.8369 60.2564C48.9482 59.9652 49.0038 59.6373 49.0038 59.2727C49.0038 58.9129 48.9494 58.5897 48.8405 58.3033C48.7339 58.0168 48.5729 57.7907 48.3575 57.625C48.1444 57.4593 47.8781 57.3764 47.5585 57.3764C47.2507 57.3764 46.9903 57.4557 46.7773 57.6143C46.5666 57.773 46.4067 57.9943 46.2978 58.2784C46.1889 58.5625 46.1345 58.8939 46.1345 59.2727Z" fill="#25D366"/>
<circle cx="25" cy="24" r="24" fill="#25D366" fill-opacity="0.1"/>
<path d="M32.8547 17.0516C30.8906 15.0828 28.275 14 25.4953 14C19.7578 14 15.0891 18.6687 15.0891 24.4062C15.0891 26.2391 15.5672 28.0297 16.4766 29.6094L15 35L20.5172 33.5516C22.0359 34.3813 23.7469 34.8172 25.4906 34.8172H25.4953C31.2281 34.8172 36 30.1484 36 24.4109C36 21.6313 34.8187 19.0203 32.8547 17.0516V17.0516ZM25.4953 33.0641C23.9391 33.0641 22.4156 32.6469 21.0891 31.8594L20.775 31.6719L17.5031 32.5297L18.375 29.3375L18.1687 29.0094C17.3016 27.6313 16.8469 26.0422 16.8469 24.4062C16.8469 19.6391 20.7281 15.7578 25.5 15.7578C27.8109 15.7578 29.9812 16.6578 31.6125 18.2937C33.2437 19.9297 34.2469 22.1 34.2422 24.4109C34.2422 29.1828 30.2625 33.0641 25.4953 33.0641V33.0641ZM30.2391 26.5859C29.9813 26.4547 28.7016 25.8266 28.4625 25.7422C28.2234 25.6531 28.05 25.6109 27.8766 25.8734C27.7031 26.1359 27.2063 26.7172 27.0516 26.8953C26.9016 27.0688 26.7469 27.0922 26.4891 26.9609C24.9609 26.1969 23.9578 25.5969 22.95 23.8672C22.6828 23.4078 23.2172 23.4406 23.7141 22.4469C23.7984 22.2734 23.7562 22.1234 23.6906 21.9922C23.625 21.8609 23.1047 20.5813 22.8891 20.0609C22.6781 19.5547 22.4625 19.625 22.3031 19.6156C22.1531 19.6063 21.9797 19.6063 21.8062 19.6063C21.6328 19.6063 21.3516 19.6719 21.1125 19.9297C20.8734 20.1922 20.2031 20.8203 20.2031 22.1C20.2031 23.3797 21.1359 24.6172 21.2625 24.7906C21.3938 24.9641 23.0953 27.5891 25.7062 28.7188C27.3562 29.4312 28.0031 29.4922 28.8281 29.3703C29.3297 29.2953 30.3656 28.7422 30.5812 28.1328C30.7969 27.5234 30.7969 27.0031 30.7313 26.8953C30.6703 26.7781 30.4969 26.7125 30.2391 26.5859Z" fill="#25D366"/>
</svg>
