<svg width="17" height="16" viewBox="0 0 17 16" fill="none" xmlns="http://www.w3.org/2000/svg">
<path d="M8.98485 0C8.6434 0 8.30194 0.184375 8.12523 0.55625L6.16936 4.69375L1.79336 5.35625C1.00861 5.475 0.694116 6.48438 1.26321 7.0625L4.42914 10.2812L3.68034 14.8281C3.54555 15.6438 4.36924 16.2656 5.07011 15.8813L8.98485 13.7375V0Z" fill="#F59E0B"/>
<path d="M8.93312 0C9.27457 0 9.61602 0.184375 9.79274 0.55625L11.7486 4.69375L16.1246 5.35625C16.9094 5.475 17.2239 6.48438 16.6548 7.0625L13.4888 10.2812L14.2376 14.8281C14.3724 15.6438 13.5487 16.2656 12.8479 15.8813L8.93312 13.7375V0Z" fill="#F59E0B"/>
</svg>
