<svg width="25" height="85" viewBox="0 0 25 85" fill="none" xmlns="http://www.w3.org/2000/svg">
<path d="M9.44263 20.3596L9.44276 20.3597C10.4069 21.2875 11.6415 21.75 12.8761 21.75C14.111 21.75 15.3446 21.2872 16.2977 20.3614L16.2995 20.3596C19.1321 17.636 22.1167 13.4489 21.0085 8.56081L9.44263 20.3596ZM9.44263 20.3596C6.61039 17.6363 3.62537 13.4392 4.73364 8.55081L9.44263 20.3596ZM12.8761 2.25C16.242 2.25 20.0222 4.22167 21.0085 8.56057L4.73369 8.55057C5.71968 4.21277 9.50882 2.25 12.8661 2.25H12.8661H12.8662H12.8662H12.8663H12.8664H12.8664H12.8665H12.8665H12.8666H12.8666H12.8667H12.8668H12.8668H12.8669H12.8669H12.867H12.867H12.8671H12.8671H12.8672H12.8673H12.8673H12.8674H12.8674H12.8675H12.8675H12.8676H12.8676H12.8677H12.8677H12.8678H12.8678H12.8679H12.8679H12.868H12.868H12.8681H12.8681H12.8682H12.8682H12.8683H12.8683H12.8684H12.8684H12.8685H12.8685H12.8686H12.8686H12.8687H12.8687H12.8688H12.8688H12.8689H12.8689H12.869H12.869H12.8691H12.8691H12.8691H12.8692H12.8692H12.8693H12.8693H12.8694H12.8694H12.8695H12.8695H12.8696H12.8696H12.8696H12.8697H12.8697H12.8698H12.8698H12.8699H12.8699H12.8699H12.87H12.87H12.8701H12.8701H12.8701H12.8702H12.8702H12.8703H12.8703H12.8704H12.8704H12.8704H12.8705H12.8705H12.8706H12.8706H12.8706H12.8707H12.8707H12.8707H12.8708H12.8708H12.8709H12.8709H12.8709H12.871H12.871H12.871H12.8711H12.8711H12.8712H12.8712H12.8712H12.8713H12.8713H12.8713H12.8714H12.8714H12.8714H12.8715H12.8715H12.8715H12.8716H12.8716H12.8717H12.8717H12.8717H12.8718H12.8718H12.8718H12.8719H12.8719H12.8719H12.872H12.872H12.872H12.872H12.8721H12.8721H12.8721H12.8722H12.8722H12.8722H12.8723H12.8723H12.8723H12.8724H12.8724H12.8724H12.8724H12.8725H12.8725H12.8725H12.8726H12.8726H12.8726H12.8727H12.8727H12.8727H12.8727H12.8728H12.8728H12.8728H12.8729H12.8729H12.8729H12.8729H12.873H12.873H12.873H12.873H12.8731H12.8731H12.8731H12.8731H12.8732H12.8732H12.8732H12.8732H12.8733H12.8733H12.8733H12.8733H12.8734H12.8734H12.8734H12.8734H12.8735H12.8735H12.8735H12.8735H12.8736H12.8736H12.8736H12.8736H12.8737H12.8737H12.8737H12.8737H12.8737H12.8738H12.8738H12.8738H12.8738H12.8739H12.8739H12.8739H12.8739H12.8739H12.874H12.874H12.874H12.874H12.874H12.8741H12.8741H12.8741H12.8741H12.8741H12.8742H12.8742H12.8742H12.8742H12.8742H12.8743H12.8743H12.8743H12.8743H12.8743H12.8743H12.8744H12.8744H12.8744H12.8744H12.8744H12.8745H12.8745H12.8745H12.8745H12.8745H12.8745H12.8746H12.8746H12.8746H12.8746H12.8746H12.8746H12.8747H12.8747H12.8747H12.8747H12.8747H12.8747H12.8747H12.8748H12.8748H12.8748H12.8748H12.8748H12.8748H12.8749H12.8749H12.8749H12.8749H12.8749H12.8749H12.8749H12.8749H12.875H12.875H12.875H12.875H12.875H12.875H12.875H12.8751H12.8751H12.8751H12.8751H12.8751H12.8751H12.8751H12.8751H12.8752H12.8752H12.8752H12.8752H12.8752H12.8752H12.8752H12.8752H12.8752H12.8753H12.8753H12.8753H12.8753H12.8753H12.8753H12.8753H12.8753H12.8753H12.8754H12.8754H12.8754H12.8754H12.8754H12.8754H12.8754H12.8754H12.8754H12.8754H12.8754H12.8755H12.8755H12.8755H12.8755H12.8755H12.8755H12.8755H12.8755H12.8755H12.8755H12.8755H12.8756H12.8756H12.8756H12.8756H12.8756H12.8756H12.8756H12.8756H12.8756H12.8756H12.8756H12.8756H12.8757H12.8757H12.8757H12.8757H12.8757H12.8757H12.8757H12.8757H12.8758H12.8758H12.8758H12.8758H12.8758H12.8758H12.8758H12.8758H12.8758H12.8759H12.8759H12.8759H12.8759H12.8759H12.8759H12.8759H12.8759H12.8759H12.8759H12.8759H12.8759H12.876H12.876H12.876H12.876H12.876H12.876H12.876H12.876H12.876H12.876H12.876H12.876H12.8761H12.8761H12.8761ZM9.22607 10.31C9.22607 12.3261 10.8599 13.96 12.8761 13.96C14.8922 13.96 16.5261 12.3261 16.5261 10.31C16.5261 8.29386 14.8922 6.66 12.8761 6.66C10.8599 6.66 9.22607 8.29386 9.22607 10.31Z" stroke="#00AC77"/>
<path d="M12.875 80.5C17.0171 80.5 20.375 77.1421 20.375 73C20.375 68.8579 17.0171 65.5 12.875 65.5C8.73286 65.5 5.375 68.8579 5.375 73C5.375 77.1421 8.73286 80.5 12.875 80.5Z" stroke="#00AC77" stroke-width="1.5" stroke-linecap="round" stroke-linejoin="round"/>
<path d="M12.875 76C14.5319 76 15.875 74.6569 15.875 73C15.875 71.3431 14.5319 70 12.875 70C11.2181 70 9.875 71.3431 9.875 73C9.875 74.6569 11.2181 76 12.875 76Z" stroke="#00AC77" stroke-width="1.5" stroke-linecap="round" stroke-linejoin="round"/>
<path d="M12.875 65V63" stroke="#00AC77" stroke-width="1.5" stroke-linecap="round" stroke-linejoin="round"/>
<path d="M4.875 73H2.875" stroke="#00AC77" stroke-width="1.5" stroke-linecap="round" stroke-linejoin="round"/>
<path d="M12.875 81V83" stroke="#00AC77" stroke-width="1.5" stroke-linecap="round" stroke-linejoin="round"/>
<path d="M20.875 73H22.875" stroke="#00AC77" stroke-width="1.5" stroke-linecap="round" stroke-linejoin="round"/>
<path d="M12.875 25L12.875 59" stroke="#00AC77" stroke-width="1.14039" stroke-linecap="round" stroke-dasharray="2.28 2.28"/>
</svg>
