<svg width="17" height="16" viewBox="0 0 17 16" fill="none" xmlns="http://www.w3.org/2000/svg">
<path d="M8.35939 0C8.00314 0 7.64689 0.184375 7.46251 0.55625L5.42189 4.69375L0.856265 5.35625C0.0375149 5.475 -0.29061 6.48438 0.30314 7.0625L3.60626 10.2812L2.82501 14.8281C2.68439 15.6438 3.54376 16.2656 4.27501 15.8813L8.35939 13.7375V0Z" fill="#FBBF24"/>
<path d="M8.30858 0C8.66483 0 9.02108 0.184375 9.20545 0.55625L11.2461 4.69375L15.8117 5.35625C16.6305 5.475 16.9586 6.48438 16.3648 7.0625L13.0617 10.2812L13.843 14.8281C13.9836 15.6438 13.1242 16.2656 12.393 15.8813L8.30858 13.7375V0Z" fill="#FBBF24"/>
</svg>
