<svg width="57" height="56" viewBox="0 0 57 56" fill="none" xmlns="http://www.w3.org/2000/svg">
<circle cx="28.375" cy="28" r="28" fill="#E5F5EE"/>
<path d="M28.3386 30.4092L28.3388 30.4094L31.4295 32.2538C31.6427 32.3922 31.8691 32.44 32.075 32.44C32.5002 32.44 32.9188 32.2265 33.1543 31.8263C33.5175 31.2266 33.3158 30.4592 32.7193 30.1095L29.6212 28.2606L29.6212 28.2606L29.6161 28.2576C29.5665 28.2288 29.4686 28.134 29.3784 27.9753C29.2885 27.8172 29.255 27.6816 29.255 27.62V23.52C29.255 22.8339 28.6911 22.27 28.005 22.27C27.3189 22.27 26.755 22.8339 26.755 23.52V27.62C26.755 28.6856 27.4172 29.8588 28.3386 30.4092ZM18.875 28C18.875 22.7661 23.1411 18.5 28.375 18.5C33.6089 18.5 37.875 22.7661 37.875 28C37.875 33.2339 33.6089 37.5 28.375 37.5C23.1411 37.5 18.875 33.2339 18.875 28Z" fill="#00AC77" stroke="#00AC77"/>
</svg>
