<svg width="57" height="56" viewBox="0 0 57 56" fill="none" xmlns="http://www.w3.org/2000/svg">
<circle cx="28.375" cy="28" r="28" fill="#E5F5EE"/>
<path d="M24.375 18.5H32.375C34.0297 18.5 35.1293 18.9703 35.8211 19.7152C36.5191 20.4669 36.875 21.5766 36.875 23V33C36.875 34.4234 36.5191 35.5331 35.8211 36.2848C35.1293 37.0297 34.0297 37.5 32.375 37.5H24.375C22.7203 37.5 21.6207 37.0297 20.9289 36.2848C20.2309 35.5331 19.875 34.4234 19.875 33V23C19.875 21.5766 20.2309 20.4669 20.9289 19.7152C21.6207 18.9703 22.7203 18.5 24.375 18.5ZM28.375 27.75H24.375C23.6889 27.75 23.125 28.3139 23.125 29C23.125 29.6861 23.6889 30.25 24.375 30.25H28.375C29.0611 30.25 29.625 29.6861 29.625 29C29.625 28.3139 29.0611 27.75 28.375 27.75ZM24.375 34.25H32.375C33.0611 34.25 33.625 33.6861 33.625 33C33.625 32.3139 33.0611 31.75 32.375 31.75H24.375C23.6889 31.75 23.125 32.3139 23.125 33C23.125 33.6861 23.6889 34.25 24.375 34.25ZM32.875 25.75H34.875C35.5611 25.75 36.125 25.1861 36.125 24.5C36.125 23.8139 35.5611 23.25 34.875 23.25H32.875C32.4611 23.25 32.125 22.9139 32.125 22.5V20.5C32.125 19.8139 31.5611 19.25 30.875 19.25C30.1889 19.25 29.625 19.8139 29.625 20.5V22.5C29.625 24.2961 31.0789 25.75 32.875 25.75Z" fill="#00AC77" stroke="#00AC77"/>
</svg>
