<svg width="57" height="56" viewBox="0 0 57 56" fill="none" xmlns="http://www.w3.org/2000/svg">
<circle cx="28.375" cy="28" r="28" fill="#E5F5EE"/>
<path d="M32.181 28.2574L32.1853 28.2509L32.1894 28.2443L34.3661 24.7496C34.6095 24.3762 34.5141 23.9112 34.2152 23.6336L34.2153 23.6335L34.2071 23.6262C30.878 20.6682 25.8622 20.6675 22.5423 23.6268L22.5422 23.6267L22.5348 23.6336C22.2396 23.9077 22.1321 24.3843 22.4132 24.7645L24.5756 28.2363C24.7176 28.4806 24.9629 28.6033 25.1756 28.6419C25.4617 28.694 25.7213 28.5876 25.8943 28.4363L25.8943 28.4363L25.897 28.4338C27.3176 27.1721 29.4524 27.1721 30.873 28.4338L30.8729 28.4339L30.8796 28.4396C31.0482 28.5841 31.2565 28.65 31.455 28.65H31.4551H31.4551H31.4552H31.4552H31.4553H31.4554H31.4554H31.4555H31.4555H31.4556H31.4557H31.4557H31.4558H31.4558H31.4559H31.456H31.456H31.4561H31.4562H31.4562H31.4563H31.4563H31.4564H31.4565H31.4565H31.4566H31.4567H31.4567H31.4568H31.4569H31.4569H31.457H31.4571H31.4571H31.4572H31.4573H31.4573H31.4574H31.4575H31.4575H31.4576H31.4577H31.4577H31.4578H31.4579H31.4579H31.458H31.4581H31.4581H31.4582H31.4583H31.4583H31.4584H31.4585H31.4586H31.4586H31.4587H31.4588H31.4588H31.4589H31.459H31.4591H31.4591H31.4592H31.4593H31.4593H31.4594H31.4595H31.4596H31.4596H31.4597H31.4598H31.4599H31.4599H31.46H31.4601H31.4602H31.4602H31.4603H31.4604H31.4605H31.4605H31.4606H31.4607H31.4608H31.4608H31.4609H31.461H31.4611H31.4611H31.4612H31.4613H31.4614H31.4615H31.4615H31.4616H31.4617H31.4618H31.4619H31.4619H31.462H31.4621H31.4622H31.4622H31.4623H31.4624H31.4625H31.4626H31.4627H31.4627H31.4628H31.4629H31.463H31.4631H31.4631H31.4632H31.4633H31.4634H31.4635H31.4636H31.4636H31.4637H31.4638H31.4639H31.464H31.4641H31.4641H31.4642H31.4643H31.4644H31.4645H31.4646H31.4646H31.4647H31.4648H31.4649H31.465H31.4651H31.4652H31.4652H31.4653H31.4654H31.4655H31.4656H31.4657H31.4658H31.4658H31.4659H31.466H31.4661H31.4662H31.4663H31.4664H31.4665H31.4666H31.4666H31.4667H31.4668H31.4669H31.467H31.4671H31.4672H31.4673H31.4674H31.4674H31.4675H31.4676H31.4677H31.4678H31.4679H31.468H31.4681H31.4682H31.4683H31.4684H31.4685H31.4685H31.4686H31.4687H31.4688H31.4689H31.469H31.4691H31.4692H31.4693H31.4694H31.4695H31.4696H31.4697H31.4698H31.4698H31.4699H31.47H31.4701H31.4702H31.4703H31.4704H31.4705H31.4706H31.4707H31.4708H31.4709H31.471H31.4711H31.4712H31.4713H31.4714H31.4715H31.4716H31.4717H31.4718H31.4719H31.472H31.472H31.4721H31.4722H31.4723H31.4724H31.4725H31.4726H31.4727H31.4728H31.4729H31.473H31.4731H31.4732H31.4733H31.4734H31.4735H31.4736H31.4737H31.4738H31.4739H31.474H31.4741H31.4742H31.4743H31.4744H31.4745H31.4746H31.4747H31.4748H31.4749H31.475H31.4751H31.4752H31.4753H31.4754H31.4755H31.4756H31.4757H31.4758H31.4759H31.476H31.4761H31.4762H31.4764H31.4765H31.4766H31.4767H31.4768H31.4769H31.477H31.4771H31.4772H31.4773H31.4774H31.4775H31.4776H31.4777H31.4778H31.4779H31.478H31.4781H31.4782H31.4783H31.4784H31.4785H31.4786H31.4787H31.4788H31.479H31.4791H31.4792H31.4793H31.4794H31.4795H31.4796H31.4797H31.4798H31.4799H31.48H31.4801H31.4802H31.4803H31.4804H31.4805H31.4807H31.4808H31.4809H31.481H31.4811H31.4812H31.4813H31.4814H31.4815H31.4816H31.4817H31.4818H31.4819H31.482H31.4822H31.4823H31.4824H31.4825H31.4826H31.4827H31.4828H31.4829H31.483H31.4831H31.4832H31.4834H31.4835H31.4836H31.4837H31.4838H31.4839H31.484H31.4841H31.4842H31.4843H31.4845H31.4846H31.4847H31.4848H31.4849H31.485H31.4851H31.4852H31.4853H31.4854H31.4856H31.4857H31.4858H31.4859H31.486H31.4861H31.4862H31.4863H31.4864H31.4866H31.4867H31.4868H31.4869H31.487H31.4871H31.4872H31.4873H31.4874H31.4876H31.4877H31.4878H31.4879H31.488H31.4881H31.4882H31.4883H31.4885H31.4886H31.4887H31.4888H31.4889H31.489H31.4891H31.4893H31.4894H31.4895H31.4896H31.4897H31.4898H31.4899H31.49H31.4902H31.4903H31.4904H31.4905H31.4906H31.4907H31.4908H31.491H31.4911H31.4912H31.4913H31.4914H31.4915H31.4916H31.4918H31.4919H31.492H31.4921H31.4922H31.4923H31.4924H31.4926H31.4927H31.4928H31.4929H31.493H31.4931H31.4932H31.4934H31.4935H31.4936H31.4937H31.4938H31.4939H31.494H31.4942H31.4943H31.4944H31.4945H31.4946H31.4947H31.4949H31.495H31.4951H31.4952H31.4953H31.4954H31.4955H31.4957H31.4958H31.4959H31.496H31.4961H31.4962H31.4964H31.4965H31.4966H31.4967H31.4968H31.4969H31.4971H31.4972H31.4973H31.4974H31.4975H31.4976H31.4978H31.4979H31.498H31.4981H31.4982H31.4983H31.4985H31.4986H31.4987H31.4988H31.4989H31.499H31.4992H31.4993H31.4994H31.4995H31.4996H31.4997H31.4999H31.5H31.5001H31.5002H31.5003H31.5004H31.5006H31.5007H31.5008H31.5009H31.501H31.5011H31.5013H31.5014H31.5015H31.5016H31.5017H31.5018H31.502H31.5021H31.5022H31.5023H31.5024H31.5025H31.5027H31.5028H31.5029H31.503H31.5031H31.5032H31.5034H31.5035H31.5036H31.5037H31.5038H31.5039H31.5041H31.5042H31.5043H31.5044H31.5045H31.5046H31.5048H31.5049H31.505H31.5299L31.5548 28.6475C31.8362 28.6194 32.0581 28.4417 32.181 28.2574ZM24.375 18.5H32.375C33.7614 18.5 34.8778 18.9599 35.6464 19.7286C36.4151 20.4972 36.875 21.6136 36.875 23V33C36.875 34.3864 36.4151 35.5028 35.6464 36.2714C34.8778 37.0401 33.7614 37.5 32.375 37.5H24.375C22.9886 37.5 21.8722 37.0401 21.1036 36.2714C20.3349 35.5028 19.875 34.3864 19.875 33V23C19.875 21.6136 20.3349 20.4972 21.1036 19.7286C21.8722 18.9599 22.9886 18.5 24.375 18.5Z" fill="#00AC77" stroke="#00AC77"/>
</svg>
