<svg width="210" height="203" viewBox="0 0 210 203" fill="none" xmlns="http://www.w3.org/2000/svg">
<path d="M209.963 36.4258C209.962 39.3059 209.53 42.1696 208.681 44.9217C207.305 49.3342 204.872 53.3442 201.595 56.6035C200.633 57.5774 199.598 58.4771 198.501 59.2951C197.779 59.8576 197.02 60.3714 196.23 60.8331C195.443 61.3159 194.63 61.756 193.795 62.1515C192.55 62.766 191.258 63.2803 189.931 63.6895C187.179 64.5388 184.316 64.9709 181.436 64.9712H176.126V202.572H27.8138V33.4412C27.838 26.6743 30.5368 20.1915 35.3217 15.4065C40.1067 10.6216 46.5895 7.92277 53.3564 7.89865H181.362C184.928 7.88492 188.464 8.54981 191.781 9.85783C192.701 10.2146 193.599 10.6242 194.472 11.0846C194.912 11.3043 195.333 11.5424 195.754 11.7987C196.1 11.9887 196.436 12.1965 196.761 12.4212C198.491 13.5154 200.094 14.7989 201.54 16.248C203.481 18.1935 205.134 20.4071 206.447 22.8214C207.335 24.4484 208.059 26.1596 208.608 27.9299L208.992 29.3031C209.229 30.2206 209.418 31.1495 209.56 32.0863C209.806 33.5202 209.941 34.971 209.963 36.4258Z" fill="#FCD34D"/>
<path d="M209 36.0671C209 38.7845 208.578 41.4865 207.75 44.0831C207.202 45.749 206.497 47.3625 205.643 48.903C204.35 51.1777 202.733 53.2654 200.839 55.105C199.901 56.0238 198.892 56.8728 197.821 57.6445C197.107 58.1628 196.375 58.6292 195.607 59.0957C194.839 59.5512 194.046 59.9664 193.232 60.3395C192.015 60.912 190.755 61.3971 189.464 61.7907C186.78 62.5921 183.987 62.9997 181.179 63H176V33.2512C176.011 28.4939 177.473 23.8455 180.201 19.8877C182.93 15.9298 186.804 12.8383 191.339 11C192.232 11.3455 193.125 11.7256 193.964 12.1575C194.393 12.3648 194.804 12.5894 195.214 12.8312C195.552 13.0105 195.88 13.2066 196.196 13.4186C197.884 14.4509 199.447 15.662 200.857 17.0292C202.75 18.8648 204.362 20.9533 205.643 23.2312C206.501 24.7698 207.207 26.3837 207.75 28.0512L208.125 29.3468C208.357 30.212 208.542 31.0886 208.679 31.9728C208.895 33.3275 209.002 34.6963 209 36.0671V36.0671Z" fill="#F59E0B"/>
<path d="M146.517 152.475H52.8611C51.2937 152.475 50.023 153.741 50.023 155.304C50.023 156.866 51.2937 158.132 52.8611 158.132H146.517C148.085 158.132 149.355 156.866 149.355 155.304C149.355 153.741 148.085 152.475 146.517 152.475Z" fill="#F59E0B"/>
<path d="M146.517 123.453H52.8611C51.2937 123.453 50.023 124.72 50.023 126.282C50.023 127.844 51.2937 129.111 52.8611 129.111H146.517C148.085 129.111 149.355 127.844 149.355 126.282C149.355 124.72 148.085 123.453 146.517 123.453Z" fill="#F59E0B"/>
<path d="M146.517 94.4121H86.2034C84.636 94.4121 83.3654 95.6787 83.3654 97.241C83.3654 98.8034 84.636 100.07 86.2034 100.07H146.517C148.084 100.07 149.355 98.8034 149.355 97.241C149.355 95.6787 148.084 94.4121 146.517 94.4121Z" fill="#F59E0B"/>
<path d="M106.949 65.374H52.2019C50.9985 65.374 50.023 66.3495 50.023 67.5529V68.8529C50.023 70.0563 50.9985 71.0318 52.2019 71.0318H106.949C108.152 71.0318 109.128 70.0563 109.128 68.8529V67.5529C109.128 66.3495 108.152 65.374 106.949 65.374Z" fill="#FCD34D"/>
<path d="M73.0022 94.4121H52.8611C51.2937 94.4121 50.023 95.6787 50.023 97.241C50.023 98.8034 51.2937 100.07 52.8611 100.07H73.0022C74.5696 100.07 75.8402 98.8034 75.8402 97.241C75.8402 95.6787 74.5696 94.4121 73.0022 94.4121Z" fill="#F59E0B"/>
<path d="M0.277939 35.6242C0.983406 40.8909 3.01138 45.8932 6.17267 50.1643C9.33396 54.4354 13.5256 57.8362 18.3565 60.0495C23.1874 62.2628 28.5002 63.2164 33.7992 62.8214C39.0983 62.4264 44.211 60.6956 48.6604 57.7906L60.7827 61.9116C61.1484 62.0322 61.541 62.0454 61.914 61.9499C62.287 61.8543 62.6248 61.654 62.8875 61.3725C63.1502 61.091 63.3268 60.7402 63.3964 60.3615C63.4661 59.9828 63.4258 59.5921 63.2804 59.2356L58.4189 47.6395C61.0045 43.3322 62.5206 38.4682 62.8405 33.4547C63.1604 28.4411 62.2746 23.4239 60.2574 18.823C58.2402 14.222 55.1502 10.1712 51.2461 7.00959C47.3419 3.84798 42.7373 1.66757 37.8175 0.650852C32.8977 -0.365862 27.806 -0.189295 22.9684 1.16578C18.1309 2.52085 13.6884 5.015 10.0126 8.43946C6.33689 11.8639 3.53493 16.119 1.84128 20.8487C0.147622 25.5783 -0.388446 30.6449 0.277939 35.6242V35.6242Z" fill="#00AC77"/>
<path d="M29.6626 50L12 29.7307L19.3747 23.0567L28.9276 34.0193L44.045 13L52 18.9418L29.6626 50Z" fill="white"/>
</svg>
