<svg width="140" height="29" viewBox="0 0 140 29" fill="none" xmlns="http://www.w3.org/2000/svg">
<path d="M140 20.4532C140 24.8715 136.418 28.4532 132 28.4532L8 28.4532C3.58173 28.4532 3.13124e-07 24.8715 6.99382e-07 20.4532L2.44784e-06 0.453235L140 0.453247L140 20.4532Z" fill="#00AC77"/>
<g clip-path="url(#clip0_9733_49345)">
<path d="M52.7333 23.373C52.7186 23.3225 52.7235 22.6769 52.7235 22.6214V22.3086L53.5113 22.3187L53.5015 22.0312C53.296 22.0413 52.792 22.0615 52.7235 22.0615V21.2241L53.5701 21.209L53.5554 20.9214C53.3498 20.9366 52.4592 20.9719 52.3711 20.9719C52.3809 21.0375 52.3858 21.8647 52.3858 21.9202V22.3742C52.3858 22.4549 52.3858 23.1863 52.3564 23.3679H52.7333V23.373Z" fill="white"/>
<path d="M55.1263 21.2341C55.7918 21.2392 55.9142 21.446 55.9142 21.6074C55.9142 21.9504 55.5569 22.1371 55.3808 22.2279C55.4884 22.3742 56.291 23.3881 56.3301 23.4385L56.5993 23.1913C56.4965 23.0904 55.8701 22.3792 55.7771 22.2581C56.0707 22.0816 56.2812 21.8395 56.2812 21.557C56.2812 21.2594 56.0071 21.0626 55.5373 21.0071C55.2388 20.9718 54.9305 20.9769 54.7642 20.9769C54.7739 21.0424 54.7837 21.7487 54.7837 21.8546V22.132C54.7837 22.2026 54.7886 23.2922 54.7739 23.3729H55.141C55.1312 23.3225 55.1214 22.4549 55.1214 22.3237V21.2341H55.1263Z" fill="white"/>
<path d="M58.8992 23.1004C58.5665 23.1206 58.0918 23.1105 58.0037 23.1105V22.2983C58.0428 22.2983 58.1994 22.3034 58.3609 22.3034C58.5273 22.3084 58.6937 22.3135 58.7524 22.3135L58.7426 22.0209C58.5273 22.0411 58.0722 22.0562 58.0086 22.0562V21.2189C58.0673 21.2189 58.7084 21.2037 58.8601 21.2037L58.8454 20.9162C58.6692 20.9263 57.7443 20.9818 57.6562 20.9818C57.6611 21.0473 57.666 21.8746 57.666 21.9301V22.3841C57.666 22.4648 57.666 23.1962 57.6562 23.3778C57.7248 23.3778 58.7965 23.4131 58.9139 23.4131L58.8992 23.1004Z" fill="white"/>
<path d="M60.1815 23.4385C60.8764 23.2922 61.2728 22.934 61.2728 22.5809C61.2728 22.2934 61.0379 22.1875 60.7688 22.0311C60.6171 21.9403 60.3626 21.8495 60.3626 21.6629C60.3626 21.3652 60.896 21.229 61.126 21.1937L61.0526 20.9113C60.5486 21.0021 60.0054 21.34 60.0054 21.7234C60.0054 21.9756 60.2256 22.1168 60.5339 22.2732C60.7932 22.4044 60.9156 22.4851 60.9156 22.6616C60.9156 22.934 60.4556 23.0854 60.0984 23.156L60.1815 23.4385Z" fill="white"/>
<path d="M62.9022 23.3728C62.8973 23.2921 62.8875 22.6615 62.8875 22.5102V22.2983L64.3947 22.2328V22.5808C64.3947 22.6464 64.3849 23.2517 64.3751 23.3728H64.752C64.7422 23.3072 64.7373 22.4497 64.7373 22.4043V22.0613C64.7373 21.9805 64.7568 21.0524 64.7666 20.9717H64.3898C64.3947 21.0473 64.3996 21.6628 64.3996 21.7233V21.9805L62.8924 22.0461V21.7939C62.8924 21.7334 62.9022 21.0322 62.912 20.9717H62.5352C62.5449 21.0524 62.5547 21.8998 62.5547 21.9604V22.3286C62.5547 22.4194 62.5498 23.2214 62.5449 23.3677H62.9022V23.3728Z" fill="white"/>
<path d="M69.1072 23.1004C68.7745 23.1206 68.2998 23.1105 68.2117 23.1105V22.2983C68.2509 22.2983 68.4074 22.3034 68.5689 22.3034C68.7353 22.3084 68.9017 22.3135 68.9604 22.3135L68.9506 22.0209C68.7353 22.0411 68.2802 22.0562 68.2166 22.0562V21.2189C68.2753 21.2189 68.9164 21.2037 69.0681 21.2037L69.0534 20.9162C68.8772 20.9263 67.9523 20.9818 67.8643 20.9818C67.8692 21.0473 67.874 21.8746 67.874 21.9301V22.3841C67.874 22.4648 67.874 23.1962 67.8643 23.3778C67.9328 23.3778 69.0045 23.4131 69.1219 23.4131L69.1072 23.1004Z" fill="white"/>
<path d="M72.1416 20.9162C72.0976 21.0272 71.2216 22.7675 71.1629 22.8482C71.0944 22.7372 70.3016 21.0726 70.2478 20.9162L69.9248 21.0877C70.0178 21.2441 71.0601 23.3778 71.1286 23.4888H71.1384C71.2656 23.2517 72.3422 21.2643 72.4548 21.0877L72.1416 20.9162Z" fill="white"/>
<path d="M74.6712 23.1004C74.3384 23.1206 73.8638 23.1105 73.7757 23.1105V22.2983C73.8148 22.2983 73.9714 22.3034 74.1329 22.3034C74.2993 22.3084 74.4657 22.3135 74.5244 22.3135L74.5146 22.0209C74.2993 22.0411 73.8442 22.0562 73.7806 22.0562V21.2189C73.8393 21.2189 74.4803 21.2037 74.632 21.2037L74.6174 20.9162C74.4412 20.9263 73.5163 20.9818 73.4282 20.9818C73.4331 21.0473 73.438 21.8746 73.438 21.9301V22.3841C73.438 22.4648 73.438 23.1962 73.4282 23.3778C73.4967 23.3778 74.5684 23.4131 74.6859 23.4131L74.6712 23.1004Z" fill="white"/>
<path d="M76.3109 21.2341C76.9764 21.2392 77.0987 21.446 77.0987 21.6074C77.0987 21.9504 76.7415 22.1371 76.5653 22.2279C76.673 22.3742 77.4755 23.3881 77.5147 23.4385L77.7838 23.1913C77.6811 23.0904 77.0547 22.3792 76.9617 22.2581C77.2553 22.0816 77.4657 21.8395 77.4657 21.557C77.4657 21.2594 77.1917 21.0626 76.7219 21.0071C76.4234 20.9718 76.1151 20.9769 75.9487 20.9769C75.9585 21.0424 75.9683 21.7487 75.9683 21.8546V22.132C75.9683 22.2026 75.9732 23.2922 75.9585 23.3729H76.3255C76.3157 23.3225 76.306 22.4549 76.306 22.3237V21.2341H76.3109Z" fill="white"/>
<path d="M79.5946 23.3728C79.5849 23.3022 79.5751 22.9995 79.5751 22.9491V22.6414C79.5751 22.2731 79.7366 21.915 79.9763 21.6527C80.177 21.4307 80.4168 21.2844 80.6076 21.2239L80.5049 20.9313C80.3189 20.9919 80.0204 21.1936 79.8638 21.3601C79.6729 21.572 79.5408 21.7687 79.4332 22.0512H79.4283C79.3451 21.7636 79.1298 21.5013 78.9634 21.3147C78.8753 21.2138 78.6404 21.0322 78.4495 20.9364L78.3027 21.229C78.4495 21.2895 78.6404 21.4307 78.7823 21.5821C79.027 21.8393 79.2276 22.1924 79.2276 22.6363V22.8784C79.2276 22.9238 79.2129 23.287 79.2129 23.3677H79.5946V23.3728Z" fill="white"/>
<path d="M81.8699 21.2443C82.7655 21.2291 83.294 21.446 83.294 21.9757C83.294 22.4751 82.8242 23.03 81.8699 23.0905V21.2443ZM81.5323 22.2884C81.5323 22.3792 81.5225 23.2317 81.5078 23.3881C82.4425 23.3881 83.6512 22.9896 83.6512 21.895C83.6512 21.6579 83.5484 21.0879 82.3887 20.9971C82.0804 20.9719 81.7182 20.9769 81.5127 20.9769C81.5274 21.0728 81.5323 21.7941 81.5323 21.8647V22.2884Z" fill="white"/>
<path d="M84.9578 22.369C84.9872 22.3136 85.3738 21.5014 85.4276 21.4207C85.4619 21.4762 85.8729 22.253 85.9121 22.3287L84.9578 22.369ZM84.4489 23.4435C84.5027 23.3275 84.7768 22.7322 84.8257 22.6213L86.0344 22.5708C86.0687 22.6314 86.4357 23.3073 86.4993 23.4384L86.8174 23.2417C86.5874 22.8836 85.7408 21.34 85.4423 20.8507H85.4325C85.3542 20.9819 84.3363 22.9239 84.1504 23.2619L84.4489 23.4435Z" fill="white"/>
<path d="M88.4076 23.3728C88.3978 23.3022 88.3881 22.9995 88.3881 22.9491V22.6414C88.3881 22.2731 88.5495 21.915 88.7893 21.6527C88.99 21.4307 89.2298 21.2844 89.4206 21.2239L89.3178 20.9313C89.1319 20.9919 88.8334 21.1936 88.6768 21.3601C88.4859 21.572 88.3538 21.7687 88.2461 22.0512H88.2413C88.1581 21.7636 87.9427 21.5013 87.7764 21.3147C87.6883 21.2138 87.4534 21.0322 87.2625 20.9364L87.1157 21.229C87.2625 21.2895 87.4534 21.4307 87.5953 21.5821C87.84 21.8393 88.0406 22.1924 88.0406 22.6363V22.8784C88.0406 22.9238 88.0259 23.287 88.0259 23.3677H88.4076V23.3728Z" fill="white"/>
<path fill-rule="evenodd" clip-rule="evenodd" d="M93.1546 19.1911H92.5135C92.2003 19.1911 91.9507 18.9339 91.9507 18.611V16.7598C91.9507 16.4369 92.2003 16.1797 92.5135 16.1797H100.906L103.172 10.1568H94.0599C93.8494 10.1568 93.6537 10.0357 93.5607 9.83898C93.5607 9.83898 92.3031 7.31177 91.6131 5.9145C91.4858 5.66228 91.202 5.54626 90.9427 5.6421C90.8448 5.67741 90.7665 5.75812 90.7224 5.85901C90.6833 5.9599 90.6833 6.07087 90.7322 6.17176C91.4907 7.83134 92.9784 11.0748 92.9784 11.0748C93.0126 11.1505 93.0322 11.2363 93.0322 11.322V14.6109C93.0322 14.9287 92.7778 15.191 92.4695 15.191C92.1563 15.191 91.9067 14.9287 91.9067 14.6109V11.4532L89.7144 6.6661C89.5333 6.27264 89.5235 5.81865 89.685 5.42015C89.8465 5.01661 90.1646 4.70386 90.561 4.55757C91.3537 4.25996 92.2346 4.61811 92.6212 5.38989L94.4122 8.99658H103.999C104.185 8.99658 104.361 9.09242 104.464 9.24879C104.566 9.40517 104.591 9.60694 104.522 9.78853L101.821 16.9716C101.738 17.1936 101.528 17.3399 101.298 17.3399H93.0812V18.031H94.0109C94.0305 18.031 94.0501 18.031 94.0648 18.036C94.2263 18.036 94.3877 18.1066 94.5003 18.2479C94.696 18.495 94.6618 18.8633 94.422 19.065C94.329 19.1457 94.2654 19.2618 94.2654 19.398C94.2654 19.635 94.4514 19.8267 94.6814 19.8267C94.9114 19.8267 95.0973 19.635 95.0973 19.398C95.0973 19.2618 95.0386 19.1457 94.9407 19.065C94.7009 18.8633 94.6618 18.495 94.8624 18.2479C94.9652 18.1167 95.112 18.0461 95.2637 18.036C95.2833 18.031 95.3077 18.031 95.3273 18.031H100.02C100.333 18.031 100.583 18.2933 100.583 18.611C100.583 18.833 100.461 19.0247 100.285 19.1205C100.226 19.1962 100.192 19.292 100.192 19.3929C100.192 19.63 100.378 19.8217 100.608 19.8217C100.838 19.8217 101.023 19.63 101.023 19.3929C101.023 19.2567 100.965 19.1407 100.867 19.06C100.627 18.8582 100.588 18.49 100.789 18.2428C100.984 17.9956 101.342 17.9553 101.581 18.1621C101.929 18.4547 102.149 18.8986 102.149 19.3929C102.149 20.2706 101.459 20.9819 100.608 20.9819C99.756 20.9819 99.066 20.2706 99.066 19.3929C99.066 19.3223 99.0709 19.2567 99.0807 19.1861H96.2082C96.2179 19.2517 96.2228 19.3223 96.2228 19.3929C96.2228 20.2706 95.5328 20.9819 94.6814 20.9819C93.8299 20.9819 93.1399 20.2706 93.1399 19.3929C93.1399 19.3273 93.1448 19.2567 93.1546 19.1911Z" fill="white"/>
<path d="M70.2771 15.9829C70.5169 15.423 70.8007 14.9085 71.0209 14.4192C71.1971 14.8379 71.4466 15.3877 71.706 15.9678L70.2771 15.9829ZM87.3264 18.8481C87.3068 18.6413 87.2921 17.2289 87.2921 16.1696V13.4154C87.3949 13.4154 89.2642 13.38 89.4502 13.3952V11.5843C88.9608 11.6347 83.1619 11.6347 82.7019 11.5843V13.3952C83.0151 13.3851 84.4636 13.4154 84.8747 13.4154V16.0132C84.8747 17.1229 84.8649 18.5858 84.8502 18.8481H87.3264ZM57.7544 18.9994C57.9403 18.5152 58.645 15.9577 58.782 15.428C58.9337 15.7307 59.9516 17.3953 60.7101 18.5807H60.8618C61.6007 17.5113 62.8339 15.5743 62.9562 15.3826C63.0345 15.6601 63.7882 17.8947 64.1013 18.949L66.3084 18.0914C66.049 17.5265 64.0965 12.8655 63.4114 11.3421H63.2597C62.7262 12.2249 61.3609 14.5503 60.9841 15.1657C60.6709 14.6361 59.2371 12.1946 58.6303 11.1807H58.4786C57.9061 12.4822 55.9535 17.8443 55.7773 18.2529L57.7544 18.9994ZM69.0145 19.0801C69.2201 18.606 69.5626 17.7938 69.6164 17.698L72.4302 17.6576C72.5037 17.7787 72.9245 18.5807 73.2034 19.07L75.0973 17.9653C74.7058 17.3802 72.2541 13.0118 71.109 11.1807H70.9132C69.9639 12.7293 67.3752 17.5214 67.0962 18.036L69.0145 19.0801ZM78.3858 13.0421C79.3645 13.0522 79.6434 13.3901 79.6434 13.8744C79.6434 14.6361 79.0709 15.0548 78.5619 15.3322C78.8311 15.7811 80.6221 18.8178 80.8619 19.2012L82.8879 17.9805C82.6285 17.6526 81.1017 15.8467 80.8081 15.4936C81.6008 14.9488 82.0413 14.2981 82.0413 13.4406C82.0413 12.4973 81.2485 11.8264 79.8 11.6246C78.8555 11.4935 77.4804 11.5036 76.0907 11.5036C76.1102 11.7104 76.1347 13.9854 76.1347 14.2981V15.9627C76.1347 16.1796 76.1445 18.606 76.1004 18.8481H78.4298C78.4102 18.6917 78.3858 16.0939 78.3858 15.7105V13.0421Z" fill="white"/>
<path fill-rule="evenodd" clip-rule="evenodd" d="M53.4772 7.98267C54.3189 7.98267 55.004 8.68887 55.004 9.55649C55.004 10.4241 54.3189 11.1303 53.4772 11.1303C52.6355 11.1303 51.9504 10.4241 51.9504 9.55649C51.9504 8.68887 52.6307 7.98267 53.4772 7.98267ZM49.1024 7.98267C49.9441 7.98267 50.6292 8.68887 50.6292 9.55649C50.6292 10.4241 49.9441 11.1303 49.1024 11.1303C48.2607 11.1303 47.5756 10.4241 47.5756 9.55649C47.5756 8.68887 48.2607 7.98267 49.1024 7.98267ZM52.3517 18.6665H54.5979V11.5843H52.3517V18.6665ZM37.8324 13.2691H35.6352V14.6765H37.8275V16.3562H35.6352V18.6665H33.4429V11.5843H37.8324V13.2691ZM43.6118 11.5843H45.7552C45.7552 11.5843 45.7552 13.4759 45.7552 15.3222C45.7552 16.2453 45.3979 17.1331 44.7666 17.7838C44.1305 18.4395 43.2741 18.8027 42.3786 18.8027C41.483 18.8027 40.6218 18.4345 39.9905 17.7838C39.3543 17.128 39.002 16.2453 39.002 15.3222V11.5843H41.1454V15.2868C41.1454 15.6248 41.2775 15.9476 41.5075 16.1847C41.7375 16.4218 42.0507 16.558 42.3786 16.558C42.7064 16.558 43.0196 16.4218 43.2496 16.1847C43.4796 15.9476 43.6118 15.6248 43.6118 15.2868V11.5843ZM47.9964 11.5843H50.1985V20.8558C50.1985 20.8558 50.4236 23.1207 47.7811 24.4473C47.3847 23.7865 46.7241 22.7222 46.7241 22.7222C46.7241 22.7222 48.0356 22.132 48.0356 20.6792C48.0356 19.2214 47.9964 11.5843 47.9964 11.5843Z" fill="white"/>
</g>
<defs>
<clipPath id="clip0_9733_49345">
<path d="M33 12.4532C33 8.03497 36.5817 4.45325 41 4.45325H97C101.418 4.45325 105 8.03497 105 12.4532V24.4532H33V12.4532Z" fill="white"/>
</clipPath>
</defs>
</svg>
