<svg width="140" height="29" viewBox="0 0 140 29" fill="none" xmlns="http://www.w3.org/2000/svg">
<path d="M140 20.4532C140 24.8715 136.418 28.4532 132 28.4532L8 28.4532C3.58173 28.4532 3.13124e-07 24.8715 6.99382e-07 20.4532L2.44784e-06 0.453235L140 0.453247L140 20.4532Z" fill="#00AC77"/>
<g clip-path="url(#clip0_9733_49456)">
<g clip-path="url(#clip1_9733_49456)">
<path fill-rule="evenodd" clip-rule="evenodd" d="M81.128 11.0623L81.9497 14.7429L87.3985 13.8614L88.264 10.8393L81.128 11.0623ZM71.4794 12.8648C72.3705 12.8648 73.0936 13.5772 73.0936 14.455C73.0936 15.3329 72.3705 16.0453 71.4794 16.0453C70.5883 16.0453 69.8652 15.3329 69.8652 14.455C69.8652 13.5772 70.5883 12.8648 71.4794 12.8648ZM71.4794 11.674C73.0351 11.674 74.2987 12.9188 74.2987 14.4514C74.2987 15.9841 73.0351 17.2289 71.4794 17.2289C69.9236 17.2289 68.66 15.9841 68.66 14.4514C68.66 12.9188 69.9236 11.674 71.4794 11.674ZM71.4794 10.368C73.7692 10.368 75.6244 12.1992 75.6244 14.4514C75.6244 16.7072 73.7655 18.5349 71.4794 18.5349C69.1896 18.5349 67.3344 16.7037 67.3344 14.4514C67.3344 12.1992 69.1932 10.368 71.4794 10.368ZM80.4305 16.9555L80.9527 15.3221L79.638 9.42896L78.3342 8.02943C78.1297 7.80997 78.1443 7.46818 78.3671 7.2667C78.5898 7.06523 78.9368 7.07962 79.1413 7.29908L80.6459 8.91448L80.887 9.99021L88.9725 9.74197C89.1478 9.73837 89.3121 9.81392 89.4217 9.95064C89.5276 10.0874 89.5641 10.2636 89.5166 10.4291L88.3553 14.491C88.2969 14.6925 88.1252 14.8436 87.9171 14.876L81.9387 15.8402L81.6721 16.6713L87.6139 16.7972C87.7162 16.8008 87.8148 16.8296 87.8951 16.8799C88.3188 17.0059 88.6292 17.3944 88.6292 17.8549C88.6292 18.4162 88.1654 18.8731 87.5957 18.8731C87.026 18.8731 86.5622 18.4162 86.5622 17.8549L82.0483 17.7614C82.0483 17.7722 82.0483 17.783 82.0483 17.7938C82.0483 18.355 81.5845 18.8119 81.0148 18.8119C80.4451 18.8119 79.9813 18.355 79.9813 17.7938C79.9849 17.4448 80.1639 17.139 80.4305 16.9555ZM71.4794 9.28865C74.3718 9.28865 76.72 11.602 76.72 14.4514C76.72 17.3009 74.3718 19.6142 71.4794 19.6142C68.587 19.6142 66.2388 17.3009 66.2388 14.4514C66.2388 11.602 68.587 9.28865 71.4794 9.28865ZM64.9167 14.7105C65.0555 18.1643 67.9406 20.9238 71.4794 20.9238C75.1058 20.9238 78.0457 18.024 78.0457 14.455C78.0457 10.8825 75.1022 7.98626 71.4794 7.98626C67.8858 7.98626 64.9642 10.8321 64.9131 14.3615C64.9204 14.3939 64.9204 14.4227 64.9204 14.4586C64.9204 14.5378 64.9204 14.6241 64.9167 14.7105ZM63.8357 13.9478H57.7771V15.7323H61.7943L61.5642 16.4374C61.5642 16.4374 60.7133 19.1681 57.2293 19.1681C54.5889 19.1681 52.4451 17.0562 52.4451 14.455C52.4451 11.8539 54.5889 9.74197 57.2293 9.74197C58.6243 9.74197 59.6578 10.3464 60.4869 11.0588C60.9251 10.609 61.4583 10.0658 61.8052 9.70959C60.6147 8.59428 59.0041 7.9107 57.2293 7.9107C53.5627 7.9107 50.5863 10.8429 50.5863 14.455C50.5863 18.0672 53.5627 20.9994 57.2293 20.9994C60.8082 20.9994 63.686 18.2039 63.8211 14.7105C63.8175 14.6241 63.8175 14.5378 63.8175 14.455C63.8175 14.2824 63.8211 14.1169 63.8357 13.9478ZM64.3762 17.2865C63.2478 20.0928 60.4869 22.0787 57.2293 22.0787C52.9564 22.0787 49.4907 18.6608 49.4907 14.455C49.4907 10.2457 52.9601 6.83137 57.2293 6.83137C59.5081 6.83137 61.5569 7.80277 62.9739 9.34621L63.3172 9.72038L62.9629 10.0838C62.9629 10.0838 61.5971 11.4797 60.9068 12.1885L60.5234 12.5842L60.129 12.2028C59.4205 11.5193 58.533 10.8249 57.2329 10.8249C55.1988 10.8249 53.5444 12.4511 53.5444 14.4586C53.5444 16.4626 55.1951 18.0924 57.2329 18.0924C58.7923 18.0924 59.6615 17.3872 60.1107 16.8188H56.6851V12.8684H63.9891C64.7305 9.46134 67.8055 6.90333 71.483 6.90333C75.7121 6.90333 79.1449 10.2852 79.1449 14.4514C79.1449 18.6177 75.7121 21.9996 71.483 21.9996C68.2693 22.0032 65.5157 20.0496 64.3762 17.2865ZM79.6343 19.6538L79.2034 19.2545L78.8345 19.7078C77.8412 20.9238 75.9385 23.3739 71.483 23.3739C68.8025 23.3739 66.3775 22.2226 64.7195 20.3986L64.3105 19.9488L63.9015 20.3986C62.2435 22.2262 59.8331 23.3739 57.1526 23.3739C52.153 23.3739 48.0956 19.3768 48.0956 14.4514C48.0956 9.5297 52.153 5.53258 57.1489 5.53258C59.8331 5.53258 62.2471 6.68746 63.9051 8.51513L64.3142 8.96485L64.7232 8.51513C66.3848 6.68746 68.7952 5.53258 71.4794 5.53258C73.32 5.53258 74.9561 6.07584 76.384 7.00766L76.8332 7.29908L77.14 6.86015C77.4504 6.41763 77.9727 5.94632 78.6848 5.94632C79.3896 5.94632 79.806 6.25213 80.0579 6.52556C80.3866 6.88174 81.9095 8.47915 81.9095 8.47915L82.0775 8.65544L82.3222 8.64825C82.3222 8.64825 88.3443 8.48635 89.177 8.47196C89.8088 8.46116 90.9044 8.92527 90.9044 10.1665C90.9044 10.7134 90.6816 11.1703 90.5757 11.602C90.4625 12.0589 89.7978 14.3435 89.7029 14.6133C89.5422 15.0667 89.2208 15.5704 89.2208 15.5704L88.9871 15.9409L89.3048 16.2431C89.3048 16.2431 89.9877 16.9015 89.9877 17.8909C89.9877 18.8731 89.177 20.1323 87.7418 20.1323H81.2704C80.6934 20.1359 79.9739 19.9668 79.6343 19.6538ZM79.3714 20.7691C79.9119 21.0462 80.6423 21.2153 81.2704 21.2153H87.7454C89.8709 21.2153 91.087 19.3552 91.087 17.8945C91.087 16.9447 90.6524 16.2036 90.3529 15.8042C90.4771 15.5775 90.6342 15.2681 90.7364 14.9803C90.835 14.7033 91.5252 12.3396 91.6421 11.8647C91.7663 11.361 92 10.8213 92 10.1773C92 8.13736 90.1886 7.38183 89.1551 7.40342C88.4247 7.41781 83.6807 7.54373 82.5377 7.57251C82.1359 7.14798 81.1243 6.09023 80.8687 5.80961C80.467 5.37428 79.806 4.87778 78.6848 4.87778C77.7901 4.87778 77.067 5.32031 76.5666 5.85278C75.0657 4.96053 73.3675 4.45325 71.4794 4.45325C68.6856 4.45325 66.1511 5.56856 64.3142 7.37104C62.4808 5.56856 59.9464 4.45325 57.1489 4.45325C51.5467 4.45325 47 8.93607 47 14.4514C47 19.9704 51.5467 24.4496 57.1489 24.4496C59.9391 24.4496 62.4699 23.3379 64.3069 21.5391C66.1438 23.3379 68.6856 24.4496 71.4794 24.4496C76.0152 24.4532 78.1881 22.1938 79.3714 20.7691Z" fill="white"/>
</g>
</g>
<defs>
<clipPath id="clip0_9733_49456">
<path d="M33 12.4532C33 8.03497 36.5817 4.45325 41 4.45325H97C101.418 4.45325 105 8.03497 105 12.4532V24.4532H33V12.4532Z" fill="white"/>
</clipPath>
<clipPath id="clip1_9733_49456">
<rect width="45" height="20" fill="white" transform="translate(47 4.45325)"/>
</clipPath>
</defs>
</svg>
