<svg width="140" height="29" viewBox="0 0 140 29" fill="none" xmlns="http://www.w3.org/2000/svg">
<path d="M140 20.4532C140 24.8715 136.418 28.4532 132 28.4532L8 28.4532C3.58173 28.4532 3.13124e-07 24.8715 6.99382e-07 20.4532L2.44784e-06 0.453235L140 0.453247L140 20.4532Z" fill="#00AC77"/>
<g clip-path="url(#clip0_9733_43165)">
<path d="M105 6.45325H104.995V22.6531H105V6.45325Z" fill="white"/>
<path d="M95.7682 20.4243C95.7682 20.3205 95.7336 20.2414 95.6644 20.187C95.6001 20.1327 95.5013 20.108 95.3728 20.108H95.0269V20.7455H95.3728C95.4963 20.7455 95.5952 20.7208 95.6644 20.6615C95.7336 20.6071 95.7682 20.528 95.7682 20.4243Z" fill="white"/>
<path d="M88.0192 20.7159H87.5547V21.1854H88.0192C88.1329 21.1854 88.2219 21.1656 88.2762 21.131C88.3355 21.0915 88.3652 21.0322 88.3652 20.9531C88.3652 20.795 88.2515 20.7159 88.0192 20.7159Z" fill="white"/>
<path d="M100.058 10.4216C100.093 10.4167 100.202 10.4266 100.202 10.3129C100.197 10.1993 100.088 10.2091 100.004 10.2091C99.9347 10.2091 99.8655 10.1993 99.8655 10.3129C99.8605 10.4315 99.9297 10.4315 100.058 10.4216Z" fill="white"/>
<path d="M89.9864 20.4243C89.9864 20.3205 89.9518 20.2414 89.8826 20.187C89.8184 20.1327 89.7146 20.108 89.5911 20.108H89.2451V20.7455H89.5911C89.7195 20.7455 89.8184 20.7208 89.8826 20.6615C89.9518 20.6071 89.9864 20.528 89.9864 20.4243Z" fill="white"/>
<path d="M97.3743 20.1673C97.2902 20.1179 97.1963 20.0981 97.0926 20.0981C96.9888 20.0981 96.8949 20.1228 96.8109 20.1673C96.7269 20.2167 96.6626 20.2809 96.6132 20.365C96.5638 20.449 96.5391 20.5379 96.5391 20.6417C96.5391 20.7455 96.5638 20.8344 96.6132 20.9185C96.6626 21.0025 96.7269 21.0667 96.8109 21.1161C96.8949 21.1656 96.9888 21.1853 97.0926 21.1853C97.1963 21.1853 97.2902 21.1606 97.3743 21.1161C97.4583 21.0667 97.5225 21.0025 97.5719 20.9185C97.6214 20.8344 97.6411 20.7455 97.6411 20.6417C97.6411 20.5379 97.6164 20.444 97.5719 20.365C97.5225 20.2809 97.4583 20.2167 97.3743 20.1673Z" fill="white"/>
<path d="M84.5647 20.4836C84.5103 20.4539 84.451 20.4391 84.3769 20.4391C84.3077 20.4391 84.2484 20.4539 84.194 20.4836C84.1397 20.5132 84.0952 20.5577 84.0655 20.617C84.0359 20.6763 84.0161 20.7405 84.0161 20.8147C84.0161 20.8888 84.0309 20.9531 84.0655 21.0124C84.0952 21.0717 84.1397 21.1112 84.194 21.1458C84.2484 21.1754 84.3126 21.1952 84.3769 21.1952C84.4461 21.1903 84.5054 21.1754 84.5647 21.1458C84.619 21.1161 84.6635 21.0717 84.6932 21.0124C84.7228 20.9531 84.7426 20.8888 84.7426 20.8147C84.7426 20.7405 84.7278 20.6763 84.6932 20.617C84.6635 20.5577 84.619 20.5132 84.5647 20.4836Z" fill="white"/>
<path d="M100.621 20.108H100.28V20.7405H100.621C100.75 20.7455 100.849 20.7158 100.913 20.6615C100.982 20.6071 101.017 20.528 101.017 20.4243C101.017 20.3205 100.982 20.2414 100.913 20.187C100.844 20.1327 100.745 20.108 100.621 20.108Z" fill="white"/>
<path d="M88.207 20.4934C88.2614 20.4539 88.291 20.3995 88.291 20.3254C88.291 20.2513 88.2614 20.1969 88.207 20.1574C88.1527 20.1179 88.0736 20.0981 87.9698 20.0981H87.5547V20.5527H87.9698C88.0736 20.5527 88.1527 20.533 88.207 20.4934Z" fill="white"/>
<path d="M71.2511 6.45325V6.4829C71.0732 12.7494 67.1789 18.917 61.1694 22.6531H104.995V6.45325H71.2511ZM100.028 9.67049C100.468 9.66061 100.844 10.0362 100.849 10.4909C100.854 10.9455 100.498 11.3063 100.038 11.3063C99.5836 11.3063 99.2179 10.9455 99.2129 10.4958C99.208 10.051 99.5787 9.67543 100.028 9.67049ZM80.7743 18.6353C80.206 18.6254 79.6426 18.6254 79.0792 18.6353C78.9162 18.6353 78.8816 18.5859 78.8816 18.4277C78.8865 17.4591 78.8914 16.4954 78.8816 15.5268C78.8717 14.5038 78.0661 13.7279 77.0481 13.7229C76.8702 13.7229 76.8504 13.7872 76.8504 13.9354C76.8504 15.4378 76.8504 16.9451 76.8553 18.4524C76.8553 18.6056 76.8158 18.6353 76.6725 18.6353C76.1289 18.6254 75.5803 18.6254 75.0367 18.6353C74.8588 18.6402 74.8094 18.5957 74.8094 18.4129C74.8192 16.9155 74.8143 15.4131 74.8192 13.9157C74.8192 13.7625 74.7748 13.7229 74.6265 13.7279H73.0204C72.8474 13.7229 72.798 13.7723 72.798 13.9503C72.8078 15.4427 72.798 16.9352 72.8078 18.4277C72.8078 18.4574 72.8078 18.4821 72.8029 18.5068C72.798 18.6106 72.7485 18.6402 72.625 18.6402C72.0814 18.6303 71.5328 18.6303 70.9892 18.6402C70.8113 18.6452 70.7619 18.6007 70.7619 18.4178C70.7668 17.7754 70.7668 17.1379 70.7668 16.4954H70.7619V12.7049C70.7619 12.7049 70.7619 12.527 70.9497 12.527H77.1716C78.0315 12.5319 78.842 12.7444 79.5685 13.2188C80.3889 13.7575 80.9226 14.484 80.9325 15.5119C80.9424 16.5003 80.9325 17.4838 80.9374 18.4722C80.9374 18.6007 80.9028 18.6353 80.7743 18.6353ZM84.8663 21.1013C84.8218 21.1853 84.7576 21.2496 84.6736 21.2941C84.5896 21.3386 84.5006 21.3633 84.3968 21.3633C84.3178 21.3633 84.2436 21.3484 84.1794 21.3188C84.1151 21.2891 84.0608 21.2447 84.0163 21.1853V21.3484H83.8285V19.851H84.0212V20.4391C84.0657 20.3798 84.1201 20.3403 84.1843 20.3106C84.2486 20.281 84.3178 20.2661 84.3968 20.2661C84.4957 20.2661 84.5896 20.2908 84.6736 20.3353C84.7576 20.3798 84.8218 20.444 84.8663 20.5281C84.9157 20.6121 84.9355 20.706 84.9355 20.8147C84.9355 20.9234 84.9108 21.0173 84.8663 21.1013ZM86.2748 20.281L85.7559 21.4522C85.7114 21.5609 85.657 21.6351 85.5977 21.6845C85.5384 21.729 85.4643 21.7487 85.3753 21.7487C85.321 21.7487 85.2716 21.7389 85.2221 21.724C85.1727 21.7092 85.1332 21.6845 85.0986 21.6499L85.1826 21.5066C85.237 21.5609 85.3012 21.5857 85.3753 21.5857C85.4248 21.5857 85.4643 21.5708 85.494 21.5511C85.5236 21.5263 85.5533 21.4819 85.578 21.4226L85.6126 21.3484L85.1381 20.281H85.3408L85.7163 21.1359L86.087 20.281H86.2748V20.276V20.281ZM88.4295 21.2496C88.3356 21.3138 88.2022 21.3484 88.0243 21.3484H87.3472V19.935H87.9798C88.1429 19.935 88.2664 19.9696 88.3554 20.0339C88.4443 20.0981 88.4888 20.1871 88.4888 20.3007C88.4888 20.3749 88.474 20.4391 88.4394 20.4935C88.4048 20.5478 88.3603 20.5874 88.301 20.617C88.385 20.6368 88.4493 20.6813 88.4987 20.7406C88.5481 20.7999 88.5679 20.8789 88.5679 20.9679C88.5679 21.0915 88.5234 21.1853 88.4295 21.2496ZM88.8891 18.6353C87.6042 18.6303 86.3193 18.6452 85.0343 18.6254C84.1102 18.6106 83.2404 18.3684 82.4843 17.81C81.0264 16.7326 80.9078 14.6767 82.2619 13.5351C83.4677 12.522 84.8713 12.354 86.3687 12.6703C86.4527 12.6901 86.4873 12.7246 86.4873 12.8136C86.4824 13.293 86.4873 13.7723 86.4873 14.2962C86.1957 14.0244 85.9041 13.8613 85.5434 13.7921C84.55 13.6043 83.5468 14.2913 83.3936 15.2945C83.2355 16.3274 83.9768 17.3059 84.9948 17.3948C85.6175 17.4492 86.2402 17.4047 86.8629 17.4146C86.9667 17.4195 86.9963 17.3751 86.9963 17.2762C86.9963 16.6881 87.021 16.0951 87.0062 15.507C86.9864 14.5631 87.0111 13.6241 86.9864 12.6851C86.9815 12.5616 87.0062 12.5171 87.1396 12.522C87.7228 12.527 88.3109 12.527 88.8941 12.522C89.0275 12.522 89.072 12.5517 89.067 12.6901C89.0621 14.6125 89.0621 16.5349 89.067 18.4524C89.072 18.6007 89.0324 18.6353 88.8891 18.6353ZM89.9912 21.3484L89.6848 20.9135C89.6452 20.9185 89.6156 20.9185 89.5958 20.9185H89.2449V21.3484H89.0423V19.935H89.5958C89.7787 19.935 89.922 19.9795 90.0307 20.0685C90.1345 20.1574 90.1889 20.276 90.1889 20.4292C90.1889 20.5379 90.1641 20.6318 90.1098 20.706C90.0554 20.785 89.9813 20.8394 89.8775 20.874L90.2136 21.3484H89.9912ZM90.8264 20.9234C90.8758 21.0074 90.94 21.0717 91.029 21.1211C91.113 21.1705 91.2118 21.1903 91.3156 21.1903C91.4441 21.1903 91.5528 21.1606 91.6467 21.1013V20.6318H91.6566H91.8494V21.1853C91.7802 21.2447 91.6962 21.2891 91.6023 21.3188C91.5084 21.3484 91.4145 21.3682 91.3107 21.3682C91.1674 21.3682 91.0389 21.3386 90.9252 21.2743C90.8115 21.2101 90.7226 21.126 90.6534 21.0173C90.5892 20.9086 90.5546 20.785 90.5546 20.6467C90.5546 20.5083 90.5892 20.3847 90.6534 20.276C90.7177 20.1673 90.8115 20.0783 90.9252 20.019C91.0389 19.9597 91.1723 19.9251 91.3156 19.9251C91.4293 19.9251 91.5331 19.9449 91.622 19.9795C91.7159 20.019 91.795 20.0685 91.8593 20.1426L91.7308 20.2661C91.6171 20.1574 91.4837 20.1031 91.3206 20.1031C91.2119 20.1031 91.118 20.1278 91.029 20.1722C90.945 20.2217 90.8758 20.281 90.8264 20.365C90.777 20.449 90.7522 20.5429 90.7522 20.6467C90.7522 20.7505 90.777 20.8444 90.8264 20.9234ZM91.9433 18.4129C91.9433 18.5611 91.9186 18.6254 91.7456 18.6205C91.1723 18.6106 90.604 18.6155 90.0307 18.6205C89.8973 18.6205 89.8528 18.5859 89.8577 18.4475C89.8676 17.9434 89.8627 17.4344 89.8627 16.9303H89.8676C89.8676 16.4114 89.8429 15.8925 89.8726 15.3736C89.922 14.4889 90.3766 13.8267 91.0784 13.3177C91.8395 12.7741 92.6994 12.5418 93.6186 12.522C94.3451 12.5072 95.0716 12.527 95.798 12.5171C95.9463 12.5171 95.9809 12.5616 95.9759 12.7049C95.9611 12.9816 95.9611 13.2633 95.9759 13.5351C95.9809 13.6982 95.9216 13.7229 95.7783 13.7229C95.1111 13.713 94.439 13.718 93.7718 13.718C92.7389 13.718 91.9433 14.4988 91.9383 15.5317C91.9334 16.4904 91.9383 17.4541 91.9433 18.4129ZM93.2677 20.9234C93.3171 21.0074 93.3814 21.0717 93.4703 21.1211C93.5544 21.1705 93.6532 21.1903 93.757 21.1903C93.8855 21.1903 93.9942 21.1606 94.0881 21.1013V20.6318H94.0831H94.0881H94.2759V21.1853C94.2067 21.2447 94.1227 21.2891 94.0337 21.3188C93.9398 21.3484 93.8459 21.3682 93.7422 21.3682C93.5988 21.3682 93.4703 21.3386 93.3567 21.2743C93.243 21.2101 93.1541 21.126 93.0849 21.0173C93.0206 20.9086 92.986 20.785 92.986 20.6467C92.986 20.5083 93.0157 20.3847 93.0849 20.276C93.1491 20.1673 93.243 20.0783 93.3567 20.019C93.4703 19.9597 93.6038 19.9251 93.7471 19.9251C93.8608 19.9251 93.9645 19.9449 94.0584 19.9795C94.1523 20.019 94.2314 20.0685 94.2957 20.1426L94.1721 20.2661C94.0584 20.1574 93.9201 20.1031 93.7619 20.1031C93.6532 20.1031 93.5593 20.1278 93.4703 20.1722C93.3863 20.2217 93.3171 20.281 93.2677 20.365C93.2183 20.449 93.1936 20.5429 93.1936 20.6467C93.1936 20.7505 93.2183 20.8444 93.2677 20.9234ZM95.7684 21.3484L95.462 20.9135C95.4224 20.9185 95.3928 20.9185 95.373 20.9185H95.0221V21.3484H94.8195V19.935H95.373C95.5559 19.935 95.6992 19.9795 95.803 20.0685C95.9067 20.1574 95.9611 20.276 95.9611 20.4292C95.9611 20.5379 95.9364 20.6318 95.882 20.706C95.8277 20.785 95.7535 20.8394 95.6498 20.874L95.9858 21.3484H95.7684ZM97.7452 21.0124C97.6809 21.1211 97.592 21.2101 97.4783 21.2694C97.3646 21.3336 97.2361 21.3633 97.0928 21.3633C96.9495 21.3633 96.821 21.3336 96.7074 21.2694C96.5937 21.2051 96.5047 21.1211 96.4405 21.0124C96.3762 20.9037 96.3416 20.7801 96.3416 20.6417C96.3416 20.5034 96.3762 20.3798 96.4405 20.2711C96.5047 20.1624 96.5937 20.0734 96.7074 20.0141C96.821 19.9498 96.9495 19.9202 97.0928 19.9202C97.2361 19.9202 97.3646 19.9498 97.4783 20.0141C97.592 20.0783 97.6809 20.1624 97.7452 20.2711C97.8094 20.3798 97.844 20.5034 97.844 20.6417C97.844 20.7801 97.8094 20.9037 97.7452 21.0124ZM96.4257 16.0556C96.3762 15.8579 96.3614 15.6602 96.3614 15.4576C96.3614 14.6866 96.3614 13.9107 96.3614 13.1398C96.3614 12.3095 96.3664 11.4793 96.3614 10.649C96.3614 10.5353 96.3713 10.476 96.5146 10.481C97.1027 10.4909 97.6958 10.4859 98.2839 10.481C98.4025 10.481 98.4371 10.5106 98.4371 10.6342C98.4321 11.2075 98.442 11.7758 98.4321 12.3491C98.4272 12.4874 98.4667 12.522 98.6051 12.522C99.292 12.5171 99.9839 12.527 100.671 12.5171C100.814 12.5171 100.859 12.5517 100.854 12.6999C100.839 12.9915 100.844 13.2831 100.854 13.5747C100.859 13.6982 100.819 13.7229 100.7 13.7229C100.004 13.718 99.3068 13.7279 98.615 13.718C98.4667 13.718 98.4222 13.7526 98.4272 13.8959C98.4519 14.5482 98.3876 15.2055 98.4618 15.8579C98.5655 16.6881 99.3167 17.3553 100.157 17.38C100.34 17.385 100.518 17.3899 100.7 17.385C100.804 17.38 100.854 17.4047 100.849 17.5233C100.844 17.8495 100.849 18.1707 100.849 18.4969C100.849 18.5661 100.844 18.6155 100.75 18.6205C99.7566 18.655 98.7929 18.5315 97.9231 18.0027C97.1768 17.548 96.6283 16.9303 96.4257 16.0556ZM99.5045 20.7406C99.5045 20.9432 99.4502 21.1013 99.3464 21.2051C99.2426 21.3138 99.0943 21.3682 98.9065 21.3682C98.7187 21.3682 98.5655 21.3138 98.4618 21.2051C98.358 21.0964 98.3036 20.9432 98.3036 20.7406V19.935H98.5062V20.7307C98.5062 21.0321 98.6397 21.1853 98.9065 21.1853C99.035 21.1853 99.1339 21.1458 99.2031 21.0717C99.2723 20.9976 99.3068 20.8839 99.3068 20.7307V19.935H99.5045V20.7406ZM101.061 20.785C100.957 20.874 100.809 20.9185 100.631 20.9185H100.28V21.3484H100.078V19.935H100.631C100.809 19.935 100.953 19.9795 101.061 20.0635C101.165 20.1525 101.219 20.2711 101.219 20.4243C101.219 20.5775 101.165 20.6961 101.061 20.785Z" fill="white"/>
<path d="M99.9938 11.1976C100.379 11.2223 100.72 10.9109 100.74 10.5156C100.76 10.14 100.444 9.80392 100.058 9.78416C99.6825 9.76439 99.3415 10.0757 99.3217 10.4563C99.3019 10.8319 99.6083 11.1729 99.9938 11.1976ZM99.6973 10.1597C99.6973 10.1004 99.7121 10.056 99.7813 10.056C99.9246 10.0609 100.068 10.051 100.206 10.0757C100.394 10.1103 100.473 10.3574 100.32 10.476C100.211 10.5601 100.241 10.5946 100.31 10.6688C100.369 10.738 100.409 10.817 100.463 10.901C100.33 10.9455 100.236 10.9307 100.177 10.8072C100.152 10.7627 100.117 10.7182 100.088 10.6787C100.038 10.6194 99.9839 10.5403 99.8999 10.5749C99.8357 10.6045 99.8802 10.6935 99.8703 10.7528C99.8653 10.7874 99.8703 10.822 99.8703 10.8516C99.8752 10.9109 99.8456 10.9307 99.7912 10.9307C99.7269 10.9307 99.6973 10.9109 99.6973 10.8417C99.6973 10.6144 99.6973 10.3871 99.6973 10.1597Z" fill="white"/>
<path d="M70.1589 6.45325H33V22.6531H58.9653C64.8957 19.6138 69.9662 13.5203 70.1589 6.45325ZM42.6616 18.3882C42.6616 18.5364 42.6221 18.5661 42.4788 18.5661C41.9253 18.5562 41.3767 18.5562 40.8232 18.5661C40.665 18.571 40.6206 18.5364 40.6206 18.3684C40.6304 16.8809 40.6255 15.3983 40.6304 13.9107C40.6354 13.7526 40.5711 13.713 40.4377 13.6982C39.9633 13.6587 39.5284 13.7575 39.133 14.0392C39.0342 14.1084 38.9996 14.1875 38.9996 14.311C38.9996 15.6651 38.9946 17.0242 39.0045 18.3832C39.0045 18.5414 38.9601 18.571 38.8118 18.571C38.2583 18.5611 37.7097 18.5661 37.1562 18.571C37.0327 18.571 36.9931 18.5463 36.9931 18.4129C36.9981 15.1314 36.9981 11.845 36.9931 8.56348C36.9931 8.43993 37.0228 8.4004 37.1513 8.4004C37.7097 8.41028 38.2682 8.41028 38.8266 8.4004C38.9798 8.4004 38.9996 8.44982 38.9996 8.58819C38.9946 9.92253 38.9946 11.2569 38.9946 12.5962V12.7345C39.4147 12.443 39.8249 12.2403 40.2845 12.1267C40.6255 12.0426 40.6255 12.0377 40.6255 11.6868C40.6255 10.9109 40.6206 10.14 40.6304 9.36903C40.6403 8.74634 41.006 8.40534 41.6287 8.4004C41.9154 8.39545 42.1971 8.41028 42.4837 8.39545C42.632 8.39051 42.6616 8.43993 42.6616 8.57831C42.6567 10.8615 42.6616 13.1447 42.6567 15.4279C42.6567 16.4163 42.6567 17.4047 42.6616 18.3882ZM48.3548 18.3536C48.3548 18.5315 48.3004 18.5661 48.1373 18.5611C47.7222 18.5513 47.3071 18.5513 46.892 18.5611C46.7585 18.5661 46.719 18.5315 46.719 18.3931C46.7289 17.8643 46.7239 17.3355 46.7239 16.8067C46.714 16.8018 46.6992 16.8018 46.6893 16.7969C46.6004 16.9896 46.5164 17.1873 46.4274 17.385C46.3039 17.6617 46.1556 17.9187 45.9678 18.151C45.3945 18.8527 44.4605 18.8082 43.9712 18.0472C43.5561 17.4047 43.4672 16.6832 43.5215 15.9419C43.6154 14.7113 44.159 13.6933 45.0338 12.8383C45.3056 12.5764 45.607 12.3787 46.0024 12.3639C46.3236 12.354 46.5757 12.4973 46.8079 12.695C46.9809 12.8433 47.1242 13.0162 47.2923 13.2188C47.3417 12.9915 47.3911 12.7938 47.4257 12.5962C47.4455 12.4924 47.4801 12.4528 47.5888 12.4578C47.8013 12.4677 48.0187 12.4627 48.2312 12.4578C48.3251 12.4578 48.3597 12.4874 48.3548 12.5813C48.3499 12.7345 48.3548 12.8927 48.3499 13.0409C48.3499 14.8102 48.3449 16.5843 48.3548 18.3536ZM54.4433 14.8843C54.3346 16.0753 53.8799 17.123 53.0695 18.0076C52.9261 18.1658 52.7631 18.3042 52.5851 18.4228C52.0514 18.7737 51.6709 18.7143 51.2508 18.23C51.2014 18.2893 51.2261 18.3536 51.2261 18.4129C51.2212 19.3321 51.2212 20.2563 51.2261 21.1755C51.2261 21.3089 51.1964 21.3534 51.0581 21.3484C50.6182 21.3386 50.1734 21.3435 49.7336 21.3484C49.6051 21.3484 49.5508 21.3237 49.5508 21.1804C49.5557 18.3338 49.5557 15.4823 49.5508 12.6357C49.5508 12.5023 49.5952 12.4775 49.7188 12.4775C50.1685 12.4825 50.6133 12.4825 51.063 12.4775C51.1915 12.4726 51.2261 12.5072 51.2261 12.6357C51.2162 13.1151 51.2212 13.5944 51.2212 14.0738C51.4287 13.6537 51.6956 13.2732 51.9526 12.8877C52.4122 12.1959 53.4203 12.2453 53.8898 12.8531C54.3494 13.4511 54.5076 14.1479 54.4433 14.8843ZM59.6423 13.9157C59.2124 14.2221 58.7824 14.5334 58.3376 14.8497C58.2734 14.6174 58.2091 14.395 58.14 14.1776C58.1152 14.1035 58.0806 13.9997 57.9868 13.9947C57.8929 13.9947 57.8583 14.0936 57.8237 14.1677C57.453 14.9387 57.2257 15.759 57.0626 16.5992C56.944 17.1972 56.8847 17.8001 56.8402 18.4079C56.8303 18.5414 56.7858 18.5661 56.6672 18.5661C56.2521 18.5611 55.837 18.5611 55.4219 18.5661C55.3082 18.5661 55.2637 18.5463 55.2637 18.4178C55.2687 16.4806 55.2687 14.5384 55.2637 12.6011C55.2637 12.4775 55.3032 12.4578 55.4169 12.4578C55.8666 12.4627 56.3114 12.4677 56.7611 12.4578C56.8896 12.4528 56.9094 12.4973 56.9094 12.611C56.8995 13.2683 56.9045 13.9305 56.9045 14.5927C57.1071 14.1282 57.3295 13.6883 57.5271 13.2337C57.621 13.0261 57.7298 12.8284 57.883 12.6555C58.2388 12.2601 58.7379 12.2552 59.069 12.6703C59.3359 12.9965 59.5287 13.372 59.6819 13.7723C59.7115 13.8415 59.7016 13.8761 59.6423 13.9157ZM62.3011 18.5957C61.2584 18.8181 60.4479 18.3783 60.0229 17.3998C59.8252 16.9451 59.7313 16.4559 59.7362 15.5614C59.7362 14.6174 60.1513 13.5747 61.1348 12.8037C61.7624 12.3145 62.4642 12.1415 63.2352 12.4034C63.7738 12.5863 64.1099 12.9866 64.3026 13.4956C64.8215 14.8794 64.7227 16.2186 63.8875 17.4541C63.507 18.0175 62.9881 18.4475 62.3011 18.5957Z" fill="white"/>
<path d="M46.5312 13.6192C46.2841 13.4166 46.0123 13.2782 45.6911 13.2436C45.3056 13.204 45.0536 13.3918 44.9893 13.7724C44.9646 13.9108 44.9597 14.0442 44.9646 14.1826C44.9794 14.9189 45.0684 15.6405 45.2562 16.3521C45.3204 16.5943 45.3649 16.8463 45.5132 17.0588C45.6318 17.2367 45.7652 17.2466 45.9135 17.0934C46.0074 16.9995 46.0667 16.8858 46.126 16.7672C46.4522 16.105 46.6795 15.4131 46.8772 14.7114C47.06 14.059 47.06 14.059 46.5312 13.6192Z" fill="white"/>
<path d="M52.768 14.8991C52.6939 14.5532 52.6296 14.2023 52.4665 13.8811C52.3282 13.6093 52.1404 13.5945 51.9624 13.8416C51.8735 13.9651 51.7944 14.1035 51.7302 14.2419C51.3793 14.998 51.1371 15.7838 50.9098 16.5794C50.8999 16.6288 50.8752 16.6783 50.9147 16.7277C51.2755 17.1823 51.6709 17.5925 52.2985 17.6321C52.6543 17.6518 52.8718 17.4739 52.936 17.1181C52.9657 16.96 52.9805 16.8018 52.9657 16.6338C52.9459 16.0506 52.8915 15.4675 52.768 14.8991Z" fill="white"/>
<path d="M62.3949 13.7773C62.2713 13.5648 62.128 13.3622 61.9007 13.2436C61.614 13.0953 61.2829 13.209 61.1594 13.5055C61.1001 13.6439 61.0803 13.7872 61.0753 13.9404C61.0605 14.4099 61.1495 14.8645 61.2681 15.3192C61.4213 15.9073 61.6091 16.4855 61.8809 17.0291C62.0044 17.2762 62.1576 17.5036 62.3949 17.6518C62.7556 17.8742 63.1164 17.721 63.2202 17.3158C63.2597 17.1626 63.2548 17.0094 63.2597 16.8512C63.2597 16.4658 63.1905 16.0902 63.0966 15.7195C62.9286 15.0474 62.7408 14.3852 62.3949 13.7773Z" fill="white"/>
</g>
<defs>
<clipPath id="clip0_9733_43165">
<rect width="72" height="16.1999" fill="white" transform="translate(33 6.45325)"/>
</clipPath>
</defs>
</svg>
