<svg width="140" height="29" viewBox="0 0 140 29" fill="none" xmlns="http://www.w3.org/2000/svg">
<path d="M140 20.4532C140 24.8715 136.418 28.4532 132 28.4532L8 28.4532C3.58173 28.4532 3.13124e-07 24.8715 6.99382e-07 20.4532L2.44784e-06 0.453235L140 0.453247L140 20.4532Z" fill="#00AC77"/>
<path fill-rule="evenodd" clip-rule="evenodd" d="M60.5503 11.9941C58.4977 11.9941 57.2801 13.2117 57.2801 14.7077C57.2801 16.2036 58.5093 17.4212 60.5503 17.4212C62.6029 17.4212 63.8321 16.2036 63.8321 14.7077C63.8321 13.2117 62.6029 11.9941 60.5503 11.9941ZM60.5503 16.8414C59.5994 16.8414 58.8804 15.8905 58.8804 14.7192C58.8804 13.548 59.5994 12.5855 60.5503 12.5855C61.5012 12.5855 62.2202 13.5364 62.2202 14.7192C62.2202 15.8789 61.5012 16.8414 60.5503 16.8414ZM69.6188 12.1912H63.8901V12.7942H65.9427V17.1893H67.5662V12.7942H69.6188V12.1912ZM75.8693 12.1912H70.1407V12.7942H72.1932V17.1893H73.8168V12.7942H75.8693V12.1912ZM78.4902 12.7826H81.1922V12.1912H77.145C76.7855 12.2028 76.3796 12.342 76.3796 12.9914V16.3892C76.3796 17.0386 76.7739 17.1777 77.145 17.1893H81.1922V16.5979H78.4902C78.1423 16.5747 78.0031 16.4355 78.0031 16.0413V14.6845H81.1458V14.1046H78.0031V13.3393C78.0031 12.945 78.1539 12.8058 78.4902 12.7826ZM54.9724 16.5979H57.3033V17.2009H53.6272C53.2677 17.1893 52.8618 17.0502 52.8618 16.4007V12.2028H54.4853V16.0528C54.4853 16.4355 54.6361 16.5747 54.9724 16.5979ZM93.4961 17.3401C92.3596 17.2473 91.6638 16.2616 92.0001 15.2295C92.3248 14.267 93.4265 13.9655 94.1571 13.8727C94.4586 13.8379 94.7833 13.8263 95.1544 13.8147C95.1776 13.8031 95.1776 13.6988 95.1776 13.664C95.1776 13.548 95.1196 13.432 95.0268 13.3393C94.6905 13.0146 93.6468 13.0146 92.8583 13.3509C92.7423 13.3972 92.6379 13.4436 92.6263 13.432C92.6263 13.4204 92.5452 13.2001 92.464 12.9334L92.3132 12.4463L92.5452 12.3536C93.1598 12.0984 93.844 11.9941 94.6093 12.0173C95.4675 12.0404 95.943 12.2144 96.3604 12.6435C96.604 12.8986 96.7431 13.1421 96.8359 13.49C96.8939 13.7219 96.9055 13.8031 96.9171 15.4846L96.9287 17.2357H95.2703V17.0154C95.2703 16.8994 95.2588 16.795 95.2588 16.795C95.2472 16.795 95.1776 16.8414 95.108 16.911C94.7021 17.2473 94.1223 17.3865 93.4961 17.3401ZM94.7369 16.1108C94.9341 16.0181 95.108 15.8673 95.1892 15.705C95.2472 15.589 95.2588 15.5194 95.2588 15.1715V14.7656L95.0036 14.7772C94.447 14.8004 94.0295 14.928 93.8092 15.1367C93.4729 15.473 93.5888 16.0297 94.0295 16.1688C94.2267 16.2384 94.5398 16.2152 94.7369 16.1108ZM103.33 17.2937C103.04 17.2241 102.715 17.0618 102.541 16.8762C102.367 16.6907 102.251 16.4819 102.17 16.1572C102.112 15.9369 102.101 15.8093 102.089 14.5917L102.066 13.2929H101.405C100.64 13.2929 100.466 13.2929 100.141 13.4552C99.8858 13.5828 99.6538 13.8031 99.5147 14.0582L99.4219 14.2322L99.4103 15.7397L99.3987 17.2473H97.6824V12.0984H99.3987V12.7594L99.5611 12.6087C99.7582 12.4231 100.06 12.2608 100.361 12.1796C100.558 12.1216 100.709 12.11 101.335 12.0984L102.078 12.0868V10.6952H102.669C102.994 10.6952 103.376 10.7068 103.515 10.7184L103.759 10.7416V12.11H105V12.6899V13.3045H104.408H103.771L103.759 14.3134C103.747 15.6354 103.782 15.8209 104.049 15.9949C104.153 16.0644 104.2 16.0644 104.571 16.076L104.988 16.0876V17.3633H104.246C103.759 17.3401 103.469 17.3169 103.33 17.2937ZM83.1288 17.1429C83.1404 17.0849 83.3375 15.647 83.5694 13.9307C83.8014 12.226 83.9985 10.788 84.0101 10.7532L84.0217 10.6837H85.9467L86.0511 11.0084C86.1091 11.1823 86.399 12.0636 86.7005 12.9682C87.002 13.8727 87.2455 14.6149 87.2571 14.6149C87.2803 14.6381 87.2108 14.8236 87.9877 12.6087L88.6603 10.7068L89.6228 10.6952C90.1563 10.6952 90.5969 10.6952 90.5969 10.6952C90.5969 10.6952 90.7941 12.168 91.026 13.9655L91.4551 17.2241L90.5042 17.2357C89.9823 17.2357 89.5533 17.2357 89.5417 17.2357C89.5301 17.2241 89.4141 16.3428 89.2633 15.2759C89.1242 14.1974 88.9966 13.3161 88.985 13.3045C88.9734 13.2929 88.6835 14.1046 88.3356 15.1019C87.9877 16.0992 87.6746 16.9922 87.6514 17.0849L87.5934 17.2473H86.341L86.0743 16.4239C85.9235 15.9717 85.6336 15.0903 85.4249 14.4757C85.2162 13.8495 85.0422 13.3509 85.0306 13.3625C85.019 13.374 84.8914 14.2554 84.7407 15.3107L84.474 17.2357H83.094L83.1288 17.1429Z" fill="white"/>
<path fill-rule="evenodd" clip-rule="evenodd" d="M39.3404 19.3578C39.0853 19.3578 38.8418 19.1027 38.8418 18.8591C38.8418 18.6968 38.923 18.604 39.0041 18.5228C39.0853 18.4416 39.2593 18.3605 39.3404 18.3605C39.5956 18.3605 39.8391 18.6156 39.8391 18.8591C39.8507 19.1142 39.5956 19.3578 39.3404 19.3578Z" fill="white"/>
<path fill-rule="evenodd" clip-rule="evenodd" d="M44.8488 21.2017C42.9353 23.1267 39.8507 23.1267 37.9372 21.2017L34.4351 17.6763C32.5216 15.7513 32.5216 12.6434 34.4351 10.7184L37.9372 7.19304C39.8507 5.26801 42.9353 5.26801 44.8488 7.19304L48.3509 10.7184C50.2643 12.6434 50.2643 15.7513 48.3509 17.6763L44.8488 21.2017ZM41.1843 9.80221C40.9291 9.80221 40.6856 9.88338 40.5233 10.0573C40.1058 10.4748 39.9434 11.2286 39.9434 12.3187C39.9434 13.6639 40.2797 16.2615 41.3582 17.6879C41.5206 17.943 41.6945 18.1053 41.938 18.1865C42.1004 18.2677 42.3555 18.4416 42.6918 18.4416C42.773 18.4416 42.8542 18.4416 42.9469 18.4416C43.5268 18.2793 44.2805 17.6067 44.8604 16.7601C44.9415 16.5978 45.1155 16.505 45.2778 16.505C45.359 16.505 45.4402 16.505 45.533 16.5862C45.6141 16.6674 45.6953 16.7485 45.6953 16.8413C45.6953 16.9225 45.6953 17.0964 45.6141 17.1776C44.8604 18.3489 43.9442 19.1026 43.1093 19.2766C42.9469 19.2766 42.773 19.3578 42.6106 19.3578C42.0308 19.3578 41.6945 19.1026 41.3582 18.9403C41.1031 18.7779 40.8596 18.5228 40.6044 18.1865C39.1085 16.2615 39.0157 12.655 39.0157 12.3187C39.0157 11.3909 39.0969 10.0573 39.8507 9.30355C40.187 8.96725 40.6856 8.8049 41.1843 8.8049H41.2654C41.7641 8.8049 42.2627 8.96725 42.599 9.30355C43.3528 10.0573 43.5152 11.3214 43.434 12.3187C43.434 13.3276 43.2716 15.2526 42.1816 16.9341C42.1004 17.0964 41.9264 17.1892 41.7641 17.1892C41.6829 17.1892 41.6017 17.1892 41.509 17.108C41.2538 16.9457 41.2538 16.6905 41.3466 16.4354C42.1004 15.2642 42.4251 13.919 42.4251 12.2375C42.4251 11.1474 42.2627 10.3125 41.8453 9.97616C41.7641 9.88339 41.5901 9.80221 41.1843 9.80221Z" fill="white"/>
</svg>
