<svg width="72" height="20" viewBox="0 0 72 20" fill="none" xmlns="http://www.w3.org/2000/svg">
<path fill-rule="evenodd" clip-rule="evenodd" d="M27.5503 7.54063C25.4977 7.54063 24.2801 8.75827 24.2801 10.2542C24.2801 11.7502 25.5093 12.9678 27.5503 12.9678C29.6029 12.9678 30.8321 11.7502 30.8321 10.2542C30.8321 8.75827 29.6029 7.54063 27.5503 7.54063ZM27.5503 12.388C26.5994 12.388 25.8804 11.4371 25.8804 10.2658C25.8804 9.09457 26.5994 8.13206 27.5503 8.13206C28.5012 8.13206 29.2202 9.08297 29.2202 10.2658C29.2202 11.4255 28.5012 12.388 27.5503 12.388ZM36.6188 7.73777H30.8901V8.3408H32.9427V12.7359H34.5662V8.3408H36.6188V7.73777ZM42.8693 7.73777H37.1407V8.3408H39.1932V12.7359H40.8168V8.3408H42.8693V7.73777ZM45.4902 8.3292H48.1922V7.73777H44.145C43.7855 7.74937 43.3796 7.88853 43.3796 8.53794V11.9357C43.3796 12.5851 43.7739 12.7243 44.145 12.7359H48.1922V12.1445H45.4902C45.1423 12.1213 45.0031 11.9821 45.0031 11.5878V10.231H48.1458V9.6512H45.0031V8.88583C45.0031 8.49155 45.1539 8.35239 45.4902 8.3292ZM21.9724 12.1445H24.3033V12.7475H20.6272C20.2677 12.7359 19.8618 12.5967 19.8618 11.9473V7.74937H21.4853V11.5994C21.4853 11.9821 21.6361 12.1213 21.9724 12.1445ZM60.4961 12.8866C59.3596 12.7939 58.6638 11.8082 59.0001 10.7761C59.3248 9.81356 60.4265 9.51204 61.1571 9.41927C61.4586 9.38448 61.7833 9.37289 62.1544 9.36129C62.1776 9.34969 62.1776 9.24533 62.1776 9.21054C62.1776 9.09457 62.1196 8.97861 62.0268 8.88583C61.6905 8.56113 60.6468 8.56113 59.8583 8.89743C59.7423 8.94381 59.6379 8.9902 59.6263 8.97861C59.6263 8.96701 59.5452 8.74668 59.464 8.47996L59.3132 7.9929L59.5452 7.90013C60.1598 7.645 60.844 7.54063 61.6093 7.56383C62.4675 7.58702 62.943 7.76097 63.3604 8.19004C63.604 8.44517 63.7431 8.68869 63.8359 9.03659C63.8939 9.26852 63.9055 9.3497 63.9171 11.0312L63.9287 12.7823H62.2703V12.5619C62.2703 12.446 62.2588 12.3416 62.2588 12.3416C62.2472 12.3416 62.1776 12.388 62.108 12.4576C61.7021 12.7939 61.1223 12.933 60.4961 12.8866ZM61.7369 11.6574C61.9341 11.5646 62.108 11.4139 62.1892 11.2515C62.2472 11.1356 62.2588 11.066 62.2588 10.7181V10.3122L62.0036 10.3238C61.447 10.347 61.0295 10.4746 60.8092 10.6833C60.4729 11.0196 60.5888 11.5762 61.0295 11.7154C61.2267 11.785 61.5398 11.7618 61.7369 11.6574ZM70.3299 12.8403C70.04 12.7707 69.7153 12.6083 69.5414 12.4228C69.3674 12.2372 69.2515 12.0285 69.1703 11.7038C69.1123 11.4835 69.1007 11.3559 69.0891 10.1383L69.0659 8.83945H68.4049C67.6395 8.83945 67.4656 8.83945 67.1409 9.0018C66.8858 9.12936 66.6538 9.34969 66.5147 9.60481L66.4219 9.77876L66.4103 11.2863L66.3987 12.7939H64.6824V7.645H66.3987V8.30601L66.5611 8.15525C66.7582 7.9697 67.0597 7.80736 67.3612 7.72618C67.5584 7.6682 67.7091 7.6566 68.3353 7.645L69.0775 7.6334V6.24182H69.6689C69.9936 6.24182 70.3763 6.25342 70.5155 6.26501L70.759 6.28821V7.6566H71.9998V8.23642V8.85104H71.4084H70.7706L70.759 9.85994C70.7474 11.1819 70.7822 11.3675 71.0489 11.5414C71.1533 11.611 71.1997 11.611 71.5708 11.6226L71.9882 11.6342V12.9098H71.2461C70.759 12.8866 70.4691 12.8634 70.3299 12.8403ZM50.1288 12.6895C50.1404 12.6315 50.3375 11.1935 50.5694 9.47725C50.8014 7.77256 50.9985 6.33459 51.0101 6.2998L51.0217 6.23022H52.9467L53.0511 6.55493C53.1091 6.72887 53.399 7.61021 53.7005 8.51474C54.002 9.41927 54.2455 10.1615 54.2571 10.1615C54.2803 10.1846 54.2108 10.3702 54.9877 8.15525L55.6603 6.25342L56.6228 6.24182C57.1563 6.24182 57.5969 6.24182 57.5969 6.24182C57.5969 6.24182 57.7941 7.71458 58.026 9.51204L58.4551 12.7707L57.5042 12.7823C56.9823 12.7823 56.5533 12.7823 56.5417 12.7823C56.5301 12.7707 56.4141 11.8893 56.2633 10.8225C56.1242 9.74397 55.9966 8.86264 55.985 8.85104C55.9734 8.83944 55.6835 9.6512 55.3356 10.6485C54.9877 11.6458 54.6746 12.5387 54.6514 12.6315L54.5934 12.7939H53.341L53.0743 11.9705C52.9235 11.5182 52.6336 10.6369 52.4249 10.0223C52.2162 9.39608 52.0422 8.89743 52.0306 8.90902C52.019 8.92062 51.8914 9.80196 51.7407 10.8572L51.474 12.7823H50.094L50.1288 12.6895Z" fill="#ED1C25"/>
<path fill-rule="evenodd" clip-rule="evenodd" d="M6.34045 14.9045C6.08532 14.9045 5.8418 14.6494 5.8418 14.4059C5.8418 14.2435 5.92297 14.1507 6.00415 14.0696C6.08533 13.9884 6.25927 13.9072 6.34045 13.9072C6.59557 13.9072 6.8391 14.1623 6.8391 14.4059C6.8507 14.661 6.59557 14.9045 6.34045 14.9045Z" fill="white"/>
<path fill-rule="evenodd" clip-rule="evenodd" d="M11.8488 16.7483C9.93533 18.6733 6.85065 18.6733 4.93723 16.7483L1.43507 13.2229C-0.478357 11.2979 -0.478357 8.19004 1.43507 6.26501L4.93723 2.73967C6.85065 0.814642 9.93533 0.814642 11.8488 2.73967L15.3509 6.26501C17.2643 8.19004 17.2643 11.2979 15.3509 13.2229L11.8488 16.7483ZM8.18427 5.34884C7.92914 5.34884 7.68562 5.43001 7.52326 5.60396C7.10579 6.02144 6.94344 6.77521 6.94344 7.86528C6.94344 9.21048 7.27974 11.8081 8.35821 13.2345C8.52057 13.4896 8.69451 13.652 8.93804 13.7331C9.10039 13.8143 9.35552 13.9883 9.69182 13.9883C9.77299 13.9883 9.85417 13.9883 9.94694 13.9883C10.5268 13.8259 11.2805 13.1533 11.8604 12.3068C11.9415 12.1444 12.1155 12.0516 12.2778 12.0516C12.359 12.0516 12.4402 12.0516 12.533 12.1328C12.6141 12.214 12.6953 12.2952 12.6953 12.3879C12.6953 12.4691 12.6953 12.6431 12.6141 12.7242C11.8604 13.8955 10.9442 14.6493 10.1093 14.8232C9.94694 14.8232 9.77299 14.9044 9.61064 14.9044C9.03081 14.9044 8.69451 14.6493 8.35821 14.4869C8.10309 14.3246 7.85956 14.0694 7.60444 13.7331C6.10849 11.8081 6.01571 8.20158 6.01571 7.86528C6.01571 6.93756 6.09689 5.60396 6.85066 4.85019C7.18696 4.51389 7.68561 4.35154 8.18427 4.35154H8.26544C8.76409 4.35154 9.26274 4.51389 9.59904 4.85019C10.3528 5.60396 10.5152 6.86798 10.434 7.86528C10.434 8.87418 10.2716 10.7992 9.18157 12.4807C9.10039 12.6431 8.92644 12.7358 8.76409 12.7358C8.68292 12.7358 8.60174 12.7358 8.50897 12.6547C8.25385 12.4923 8.25385 12.2372 8.34662 11.9821C9.10039 10.8108 9.4251 9.46561 9.4251 7.78411C9.4251 6.69404 9.26274 5.85909 8.84527 5.52279C8.76409 5.43002 8.59014 5.34884 8.18427 5.34884Z" fill="#ED1C25"/>
</svg>
