<svg width="140" height="29" viewBox="0 0 140 29" fill="none" xmlns="http://www.w3.org/2000/svg">
<path d="M140 20.4532C140 24.8715 136.418 28.4532 132 28.4532L8 28.4532C3.58173 28.4532 3.13124e-07 24.8715 6.99382e-07 20.4532L2.44784e-06 0.453235L140 0.453247L140 20.4532Z" fill="#00AC77"/>
<path d="M37.5716 15.2579C37.5716 16.4555 37.5716 17.4448 37.6341 17.9655C37.6757 18.3299 37.7486 18.6007 38.1235 18.6528C38.3005 18.6736 38.5713 18.7048 38.6859 18.7048C38.7587 18.7048 38.79 18.7465 38.79 18.7777C38.79 18.8402 38.7275 18.8819 38.5921 18.8819C37.8944 18.8819 37.1134 18.8402 37.0509 18.8402C36.9884 18.8402 36.197 18.8819 35.8325 18.8819C35.6971 18.8819 35.6347 18.861 35.6347 18.7777C35.6347 18.7361 35.6555 18.7048 35.7388 18.7048C35.8533 18.7048 35.9991 18.684 36.1137 18.6528C36.3636 18.6007 36.4261 18.3299 36.4782 17.9655C36.5406 17.4448 36.5406 16.4555 36.5406 15.2579V9.96777L34.6766 9.99901C33.8956 10.0094 33.604 10.0927 33.3957 10.3947C33.2603 10.603 33.2187 10.6967 33.1874 10.78C33.1458 10.8842 33.1146 10.905 33.0625 10.905C33.0208 10.905 33 10.8738 33 10.8009C33 10.6759 33.2499 9.60329 33.2708 9.49916C33.302 9.42626 33.3541 9.25964 33.3957 9.25964C33.479 9.25964 33.604 9.38461 33.9476 9.40543C34.3121 9.44709 34.7911 9.46792 34.9369 9.46792H39.6231C40.0188 9.46792 40.3104 9.44709 40.5082 9.40543C40.6957 9.38461 40.8102 9.34295 40.8519 9.34295C40.9144 9.34295 40.9144 9.41585 40.9144 9.48874C40.9144 9.86364 40.8727 10.728 40.8727 10.8633C40.8727 10.9779 40.8311 11.03 40.7894 11.03C40.7269 11.03 40.7061 10.9883 40.6853 10.8217V10.6863C40.6436 10.3114 40.3416 10.0198 39.1441 9.99901L37.5716 9.96777V15.2579Z" fill="white"/>
<path d="M42.0079 13.9144C42.0079 12.2691 42.0079 11.9671 41.987 11.6338C41.9558 11.2694 41.8933 11.0923 41.5393 11.0403C41.4455 11.0298 41.2581 11.0194 41.1644 11.0194C41.1227 11.0194 41.0811 10.9674 41.0811 10.9361C41.0811 10.8736 41.1331 10.8528 41.2581 10.8528C41.7579 10.8528 42.4661 10.8736 42.5286 10.8736C42.6014 10.8736 44.9029 10.8841 45.1528 10.8736C45.3611 10.8632 45.5693 10.8216 45.6526 10.8112C45.7047 10.8007 45.7568 10.7591 45.7984 10.7591C45.8401 10.7591 45.8505 10.8112 45.8505 10.8632C45.8505 10.9361 45.788 11.0611 45.7672 11.3631C45.7568 11.4672 45.7255 11.9358 45.7047 12.0608C45.6943 12.1129 45.6526 12.1754 45.6006 12.1754C45.5381 12.1754 45.5173 12.1233 45.5173 12.04C45.5173 11.9671 45.5069 11.79 45.4548 11.6651C45.3819 11.488 45.2673 11.4152 44.6633 11.3423C44.4759 11.3214 43.2054 11.3006 43.0805 11.3006C43.0284 11.3006 43.018 11.3423 43.018 11.4152V14.2997C43.018 14.3726 43.018 14.4143 43.0805 14.4143C43.2159 14.4143 44.6633 14.4143 44.9133 14.3935C45.1736 14.3726 45.3402 14.3518 45.4548 14.2477C45.5277 14.1748 45.5798 14.1123 45.6214 14.1123C45.6631 14.1123 45.6839 14.1331 45.6839 14.1956C45.6839 14.2581 45.6214 14.4351 45.6006 14.7788C45.5798 14.987 45.5485 15.3932 45.5485 15.4661C45.5485 15.5494 45.5277 15.6639 45.4444 15.6639C45.3923 15.6639 45.3715 15.6223 45.3715 15.5598C45.3715 15.4557 45.3715 15.3515 45.3194 15.2057C45.2778 15.0599 45.184 14.935 44.7571 14.8829C44.4551 14.8412 43.2783 14.8308 43.1013 14.8308C43.0388 14.8308 43.0284 14.8725 43.0284 14.9037V15.7889C43.0284 16.1534 43.018 17.3926 43.0284 17.6009C43.0492 18.309 43.2575 18.4548 44.3405 18.4548C44.6321 18.4548 45.1528 18.4548 45.4444 18.3402C45.736 18.2153 45.8817 18.0278 45.9442 17.6009C45.9651 17.4759 45.9963 17.4342 46.0588 17.4342C46.1213 17.4342 46.1317 17.5176 46.1317 17.6009C46.1317 17.6842 46.0171 18.4027 45.9546 18.6318C45.8817 18.9026 45.7672 18.9026 45.3402 18.9026C44.5176 18.9026 43.8823 18.8817 43.4345 18.8609C42.9763 18.8401 42.6848 18.8401 42.5181 18.8401C42.4973 18.8401 42.2786 18.8401 42.0391 18.8505C41.8308 18.8609 41.5809 18.8713 41.4039 18.8713C41.2893 18.8713 41.2268 18.8505 41.2268 18.788C41.2268 18.7464 41.2477 18.7047 41.3102 18.7047C41.4143 18.7047 41.5497 18.6631 41.6434 18.6526C41.8517 18.611 41.8829 18.4027 41.935 18.0903C41.9975 17.6529 41.9975 16.8198 41.9975 15.7889V13.9144H42.0079Z" fill="white"/>
<path d="M47.6417 13.9145C47.6417 12.2692 47.6417 11.9672 47.6208 11.6339C47.6 11.2694 47.5375 11.0924 47.173 11.0508C47.0897 11.0403 46.9023 11.0299 46.7982 11.0299C46.7565 11.0299 46.7148 10.9779 46.7148 10.9466C46.7148 10.8841 46.7669 10.8633 46.8919 10.8633C47.3917 10.8633 48.0999 10.8841 48.1623 10.8841C48.2352 10.8841 50.5367 10.8946 50.7866 10.8841C50.9949 10.8737 51.2031 10.8321 51.2864 10.8217C51.3385 10.8112 51.3906 10.7696 51.4322 10.7696C51.4739 10.7696 51.4843 10.8217 51.4843 10.8737C51.4843 10.9466 51.4218 11.0716 51.401 11.3736C51.3906 11.4777 51.3593 11.9463 51.3385 12.0713C51.3281 12.1234 51.2864 12.1858 51.2344 12.1858C51.1719 12.1858 51.1511 12.1338 51.1511 12.0505C51.1511 11.9776 51.1406 11.8005 51.0886 11.6756C51.0157 11.4985 50.9011 11.4257 50.2971 11.3528C50.1097 11.3319 48.8392 11.3111 48.7143 11.3111C48.6622 11.3111 48.6518 11.3528 48.6518 11.4257V14.3102C48.6518 14.3831 48.6518 14.4248 48.7143 14.4248C48.8496 14.4248 50.2971 14.4248 50.5471 14.404C50.8074 14.3831 50.974 14.3623 51.0886 14.2582C51.1615 14.1853 51.2135 14.1228 51.2552 14.1228C51.2969 14.1228 51.3177 14.1436 51.3177 14.2061C51.3177 14.2686 51.2552 14.4456 51.2344 14.7893C51.2135 14.9975 51.1823 15.4037 51.1823 15.4766C51.1823 15.5599 51.1615 15.6744 51.0782 15.6744C51.0261 15.6744 51.0053 15.6328 51.0053 15.5703C51.0053 15.4661 51.0053 15.362 50.9532 15.2162C50.9115 15.0704 50.8178 14.9455 50.3909 14.8934C50.0889 14.8517 48.9121 14.8413 48.7351 14.8413C48.6726 14.8413 48.6622 14.883 48.6622 14.9142V15.7994C48.6622 16.1639 48.6518 17.4031 48.6622 17.6114C48.683 18.3195 48.8913 18.4653 49.9743 18.4653C50.2659 18.4653 50.7866 18.4653 51.0782 18.3507C51.3697 18.2258 51.5155 18.0383 51.578 17.6114C51.5988 17.4864 51.6301 17.4447 51.6926 17.4447C51.7551 17.4447 51.7655 17.5281 51.7655 17.6114C51.7655 17.6947 51.6509 18.4028 51.5884 18.6319C51.5155 18.9027 51.401 18.9027 50.974 18.9027C50.1513 18.9027 49.5161 18.8818 49.0683 18.861C48.6101 18.8402 48.3185 18.8402 48.1519 18.8402C48.1311 18.8402 47.9124 18.8402 47.6729 18.8506C47.4646 18.861 47.2147 18.8714 47.0377 18.8714C46.9231 18.8714 46.8606 18.8506 46.8606 18.7881C46.8606 18.7464 46.8815 18.7048 46.9439 18.7048C47.0481 18.7048 47.1835 18.6631 47.2772 18.6527C47.4855 18.6111 47.5167 18.4028 47.5688 18.0904C47.6312 17.653 47.6312 16.8199 47.6312 15.789V13.9145H47.6417Z" fill="white"/>
<path d="M53.2857 13.9146C53.2857 12.2692 53.2857 11.9672 53.2649 11.634C53.244 11.2695 53.1816 11.0925 52.8171 11.0508C52.7338 11.0404 52.5463 11.03 52.4422 11.03C52.4005 11.03 52.3589 10.9779 52.3589 10.9467C52.3589 10.8842 52.411 10.8634 52.5359 10.8634C53.0358 10.8634 53.7127 10.8842 53.7751 10.8842C53.8793 10.8842 54.5353 10.8634 54.8582 10.8634C54.9831 10.8634 55.0352 10.8842 55.0352 10.9467C55.0352 10.9883 54.9935 11.03 54.9519 11.03C54.879 11.03 54.8165 11.03 54.6811 11.0508C54.3895 11.1133 54.3167 11.2591 54.2958 11.634C54.2438 11.9672 54.2438 12.2692 54.2438 13.9146V14.5498H54.2958C54.4729 14.3519 56.4306 12.415 56.8472 11.988C57.1596 11.6756 57.4512 11.4049 57.4512 11.2278C57.4512 11.0925 57.3991 11.03 57.3158 11.0196C57.2533 11.0091 57.2116 10.9571 57.2116 10.9154C57.2116 10.8634 57.2637 10.8425 57.3366 10.8425C57.5657 10.8425 57.8989 10.8634 58.1593 10.8634C58.2218 10.8634 58.9403 10.8425 59.2215 10.8425C59.336 10.8425 59.3881 10.8634 59.3881 10.9154C59.3881 10.9675 59.3673 10.9987 59.2736 10.9987C59.1069 10.9987 58.8778 11.0612 58.6591 11.1445C58.2009 11.3632 57.9927 11.5923 57.5032 12.0609C57.2325 12.3109 55.358 14.1124 55.1185 14.3728C55.4101 14.6852 57.6907 16.9762 58.1385 17.3823C59.0653 18.205 59.1902 18.3404 59.7109 18.559C60.0025 18.6736 60.3149 18.7048 60.3878 18.7048C60.4607 18.7048 60.5232 18.7465 60.5232 18.7881C60.5232 18.8298 60.4711 18.8715 60.2837 18.8715H59.7213C59.4089 18.8715 59.2111 18.8715 58.9611 18.8506C58.3884 18.7986 58.0968 18.559 57.6282 18.205C57.1283 17.8197 54.8165 15.3829 54.2958 14.7581H54.2438V15.7994C54.2438 16.82 54.2438 17.6635 54.2958 18.1008C54.3375 18.4133 54.3791 18.6111 54.7228 18.6632C54.8686 18.684 55.0456 18.7152 55.1497 18.7152C55.2122 18.7152 55.2331 18.7673 55.2331 18.7986C55.2331 18.8506 55.181 18.8819 55.056 18.8819C54.5145 18.8819 53.8585 18.8402 53.7647 18.8402C53.671 18.8402 53.0149 18.8819 52.6817 18.8819C52.5672 18.8819 52.5047 18.861 52.5047 18.7986C52.5047 18.7569 52.5255 18.7152 52.588 18.7152C52.6921 18.7152 52.8275 18.6944 52.9212 18.6632C53.1295 18.6111 53.1607 18.4133 53.2128 18.1008C53.2753 17.6635 53.2753 16.8304 53.2753 15.7994V13.9146H53.2857Z" fill="white"/>
<path d="M61.3562 15.7891C61.3562 16.8096 61.3562 17.6531 61.4083 18.0905C61.45 18.4029 61.4812 18.6008 61.804 18.6529C61.9707 18.6737 62.1998 18.7049 62.3039 18.7049C62.3664 18.7049 62.3872 18.757 62.3872 18.7882C62.3872 18.8403 62.3351 18.8715 62.2102 18.8715C61.5958 18.8715 60.8876 18.8299 60.8356 18.8299C60.7731 18.8299 60.0858 18.8715 59.7525 18.8715C59.638 18.8715 59.5755 18.8507 59.5755 18.7882C59.5755 18.7466 59.5963 18.7049 59.6588 18.7049C59.763 18.7049 59.8983 18.6841 59.9921 18.6529C60.2003 18.6008 60.242 18.4029 60.2836 18.0905C60.3357 17.6531 60.3461 16.82 60.3461 15.7891V13.9146C60.3461 12.2693 60.3461 11.9673 60.3253 11.6341C60.3045 11.2696 60.2107 11.1134 59.9712 11.0613C59.8463 11.0405 59.7109 11.0196 59.638 11.0196C59.5859 11.0196 59.5547 10.9676 59.5547 10.9363C59.5547 10.8739 59.6068 10.853 59.7317 10.853C60.0962 10.853 60.7835 10.8739 60.846 10.8739C60.898 10.8739 61.6062 10.853 61.9498 10.853C62.0748 10.853 62.1269 10.8739 62.1269 10.9363C62.1269 10.978 62.0748 11.0196 62.0435 11.0196C61.9707 11.0196 61.8978 11.0196 61.7728 11.0405C61.4708 11.103 61.4083 11.2487 61.3875 11.6236C61.3771 11.9569 61.3771 12.2589 61.3771 13.9042V15.7891H61.3562Z" fill="white"/>
<path d="M63.4078 13.9146C63.4078 12.2692 63.4078 11.9673 63.3869 11.634C63.3661 11.3008 63.3036 11.0925 62.9392 11.0508C62.8558 11.0404 62.6684 11.03 62.5643 11.03C62.5226 11.03 62.481 10.978 62.481 10.9467C62.481 10.8842 62.533 10.8634 62.658 10.8634C63.1578 10.8634 63.8243 10.8842 63.918 10.8842C64.0118 10.8842 64.7095 10.8634 65.0323 10.8634C65.1573 10.8634 65.2197 10.8842 65.2197 10.9467C65.2197 10.9884 65.1677 11.03 65.1156 11.03C65.0427 11.03 64.9802 11.03 64.8449 11.0508C64.5533 11.1029 64.4908 11.2904 64.47 11.634C64.4491 11.9673 64.4491 12.2692 64.4491 13.9146V15.4038C64.4491 16.9346 64.7824 17.5802 65.2614 17.9968C65.8029 18.4862 66.2715 18.5695 66.8963 18.5695C67.5732 18.5695 68.2189 18.2675 68.5938 17.8197C69.104 17.2053 69.2186 16.3306 69.2186 15.2475V13.9146C69.2186 12.2692 69.2082 11.9673 69.1978 11.634C69.1873 11.3008 69.1249 11.0925 68.7604 11.0508C68.6771 11.0404 68.4896 11.03 68.3855 11.03C68.3334 11.03 68.3022 10.978 68.3022 10.9467C68.3022 10.8842 68.3543 10.8634 68.4792 10.8634C68.9687 10.8634 69.6039 10.8842 69.6664 10.8842C69.7393 10.8842 70.2704 10.8634 70.5932 10.8634C70.7182 10.8634 70.7702 10.8842 70.7702 10.9467C70.7702 10.9884 70.7286 11.03 70.6869 11.03C70.614 11.03 70.5515 11.03 70.4162 11.0508C70.1142 11.1133 70.0517 11.2904 70.0309 11.634C69.958 11.9673 69.9684 12.2692 69.9684 13.9146V15.0497C69.9684 16.1952 69.8226 17.4865 68.9478 18.2363C68.146 18.9236 67.3025 19.0069 66.6464 19.0069C66.2819 19.0069 65.1364 18.986 64.3554 18.2571C63.8243 17.7677 63.4078 17.0283 63.4078 15.4766V13.9146Z" fill="white"/>
<path d="M84.256 17.2677C84.308 17.7155 84.3913 18.4132 84.9328 18.5903C85.2973 18.7048 85.6201 18.7048 85.7451 18.7048C85.8076 18.7048 85.8492 18.7152 85.8492 18.7673C85.8492 18.8402 85.7347 18.8819 85.5889 18.8819C85.3182 18.8819 83.9644 18.8402 83.5062 18.809C83.2146 18.7881 83.1521 18.7465 83.1521 18.684C83.1521 18.6319 83.1729 18.6111 83.2354 18.6007C83.2979 18.5903 83.3083 18.3716 83.2875 18.1529L82.6835 11.7069H82.6418L79.5802 18.205C79.3199 18.7569 79.2782 18.8714 79.1637 18.8714C79.0804 18.8714 79.0179 18.7465 78.7784 18.2987C78.4556 17.6843 77.383 15.5287 77.3205 15.4037C77.2059 15.1746 75.8105 12.1859 75.6751 11.8422H75.623L75.1232 17.6322C75.1128 17.8301 75.1128 18.0592 75.1128 18.2674C75.1128 18.4549 75.2482 18.6215 75.4356 18.6528C75.6439 18.7048 75.8313 18.7152 75.9146 18.7152C75.9667 18.7152 76.0188 18.7361 76.0188 18.7777C76.0188 18.861 75.9459 18.8923 75.7897 18.8923C75.3315 18.8923 74.7275 18.8506 74.6233 18.8506C74.5088 18.8506 73.9152 18.8923 73.5716 18.8923C73.4466 18.8923 73.3633 18.8714 73.3633 18.7777C73.3633 18.7361 73.4258 18.7152 73.4882 18.7152C73.5924 18.7152 73.6757 18.7152 73.8631 18.6736C74.2797 18.6007 74.3109 18.1112 74.363 17.6322L75.2586 9.48874C75.269 9.34295 75.321 9.25964 75.3939 9.25964C75.4668 9.25964 75.5189 9.31171 75.5814 9.44709L79.4032 17.299L83.0792 9.4575C83.1313 9.34295 83.1834 9.25964 83.2667 9.25964C83.35 9.25964 83.3916 9.36378 83.4125 9.59288L84.256 17.2677Z" fill="white"/>
<path d="M88.2236 11.0611C88.359 10.7071 88.4111 10.6446 88.484 10.6446C88.5985 10.6446 88.6298 10.7904 88.7443 11.0299C88.9422 11.4777 90.7021 15.8618 91.379 17.4759C91.7747 18.4236 92.0767 18.559 92.3162 18.6423C92.4828 18.6943 92.639 18.7048 92.7536 18.7048C92.816 18.7048 92.8889 18.7256 92.8889 18.7881C92.8889 18.8505 92.764 18.8714 92.639 18.8714C92.4724 18.8714 91.6601 18.8714 90.8999 18.8505C90.6917 18.8401 90.5146 18.8401 90.5146 18.7777C90.5146 18.7256 90.5355 18.7256 90.5875 18.7048C90.65 18.6839 90.7646 18.5902 90.6917 18.4132L89.7024 15.9764C89.6815 15.9243 89.6607 15.9139 89.5982 15.9139H87.0677C87.0156 15.9139 86.9844 15.9347 86.9532 15.9972L86.3283 17.6946C86.2242 17.955 86.1617 18.2153 86.1617 18.4028C86.1617 18.611 86.3492 18.6943 86.5366 18.6943H86.6408C86.7241 18.6943 86.7553 18.736 86.7553 18.7777C86.7553 18.8401 86.6928 18.861 86.5887 18.861C86.3283 18.861 85.7243 18.8193 85.5994 18.8193C85.4848 18.8193 84.9329 18.861 84.4851 18.861C84.3497 18.861 84.2769 18.8401 84.2769 18.7777C84.2769 18.7256 84.3289 18.6943 84.381 18.6943C84.4539 18.6943 84.6205 18.6839 84.7038 18.6735C85.2037 18.611 85.4119 18.2361 85.6306 17.6946L88.2236 11.0611ZM89.442 15.4765C89.4941 15.4765 89.4941 15.4557 89.4837 15.4036L88.4007 12.4982C88.3382 12.3316 88.2757 12.3316 88.2132 12.4982L87.1823 15.4036C87.1718 15.4557 87.1823 15.4765 87.2239 15.4765H89.442Z" fill="white"/>
<path d="M93.0972 13.9146C93.0972 12.2692 93.0972 11.9673 93.0764 11.634C93.0556 11.2695 92.9931 11.0925 92.6286 11.0508C92.5453 11.0404 92.3579 11.03 92.2537 11.03C92.2121 11.03 92.1704 10.978 92.1704 10.9467C92.1704 10.8842 92.2225 10.8634 92.3474 10.8634C92.8473 10.8634 93.5867 10.8842 93.6492 10.8842C93.7637 10.8842 94.6905 10.8634 95.0238 10.8634C95.7215 10.8634 96.5025 10.9259 97.0752 11.3216C97.346 11.5195 97.8354 12.0297 97.8354 12.7691C97.8354 13.5605 97.5126 14.3207 96.4921 15.1955C97.3876 16.3202 98.1478 17.2782 98.7935 17.9447C99.3454 18.5278 99.7099 18.632 99.9911 18.6632C100.199 18.7049 100.314 18.7049 100.376 18.7049C100.439 18.7049 100.481 18.7569 100.481 18.7882C100.481 18.8507 100.418 18.8715 100.22 18.8715H99.5329C98.908 18.8715 98.6373 18.809 98.3561 18.6632C97.8771 18.4133 97.4814 17.903 96.8566 17.1012C96.3984 16.5284 95.9089 15.8411 95.6694 15.5495C95.6173 15.5079 95.5965 15.4975 95.5132 15.4975L94.1178 15.4766C94.0657 15.4766 94.0449 15.4975 94.0449 15.56V15.8099C94.0449 16.8304 94.0449 17.6531 94.0969 18.0905C94.1386 18.4029 94.2011 18.6007 94.5343 18.6528C94.6801 18.6736 94.9196 18.7049 95.0238 18.7049C95.0966 18.7049 95.1071 18.7569 95.1071 18.7882C95.1071 18.8403 95.055 18.8715 94.93 18.8715C94.326 18.8715 93.6283 18.8298 93.5763 18.8298C93.5658 18.8298 92.8265 18.8715 92.4932 18.8715C92.3787 18.8715 92.3162 18.8507 92.3162 18.7882C92.3162 18.7465 92.337 18.7049 92.3995 18.7049C92.5036 18.7049 92.639 18.6841 92.7327 18.6528C92.941 18.6007 92.9723 18.4029 93.0243 18.0905C93.0868 17.6531 93.0868 16.82 93.0868 15.7891V13.9146H93.0972ZM94.0449 14.8206C94.0449 14.8831 94.0657 14.9247 94.1178 14.956C94.2844 15.0393 94.8467 15.1226 95.3257 15.1226C95.5861 15.1226 95.8881 15.1122 96.1484 14.9351C96.5233 14.6852 96.8149 14.1229 96.8149 13.3106C96.8149 11.9881 96.0859 11.2279 94.9196 11.2279C94.5968 11.2279 94.2427 11.2695 94.1282 11.2904C94.0761 11.3112 94.0449 11.3424 94.0449 11.4049V14.8206Z" fill="white"/>
<path d="M102.063 15.789C102.063 16.8095 102.063 17.653 102.116 18.0904C102.157 18.4028 102.199 18.6007 102.542 18.6527C102.688 18.6736 102.938 18.7048 103.042 18.7048C103.115 18.7048 103.126 18.7569 103.126 18.7881C103.126 18.8402 103.074 18.8714 102.949 18.8714C102.345 18.8714 101.647 18.8298 101.584 18.8298C101.532 18.8298 100.772 18.8714 100.449 18.8714C100.324 18.8714 100.272 18.8506 100.272 18.7881C100.272 18.7465 100.293 18.7152 100.356 18.7152C100.46 18.7152 100.585 18.6944 100.678 18.6632C100.908 18.6111 100.97 18.4028 101.001 18.0904C101.053 17.653 101.053 16.8199 101.053 15.789V11.3319L99.4704 11.3528C98.7831 11.3632 98.5228 11.4361 98.3562 11.686C98.2312 11.8735 98.2208 11.9464 98.1791 12.0192C98.1583 12.1026 98.1167 12.1234 98.0646 12.1234C98.0438 12.1234 97.9917 12.1026 97.9917 12.0401C97.9917 11.9255 98.2208 10.9779 98.2312 10.8946C98.252 10.8321 98.3041 10.6967 98.3458 10.6967C98.4187 10.6967 98.5332 10.78 98.8352 10.8217C99.1476 10.8633 99.5746 10.8737 99.6995 10.8737H103.844C104.209 10.8737 104.459 10.8529 104.636 10.8217C104.802 10.8009 104.896 10.7696 104.948 10.7696C105 10.7696 105 10.8321 105 10.8946C105 11.2174 104.958 11.9776 104.958 12.1026C104.958 12.1859 104.906 12.2379 104.854 12.2379C104.802 12.2379 104.781 12.1963 104.771 12.0505L104.761 11.9359C104.719 11.6131 104.49 11.3736 103.438 11.3528L102.063 11.3319V15.789Z" fill="white"/>
</svg>
