<svg width="140" height="29" viewBox="0 0 140 29" fill="none" xmlns="http://www.w3.org/2000/svg">
<path d="M140 20.4532C140 24.8715 136.418 28.4532 132 28.4532L8 28.4532C3.58173 28.4532 3.13124e-07 24.8715 6.99382e-07 20.4532L2.44784e-06 0.453235L140 0.453247L140 20.4532Z" fill="#00AC77"/>
<g clip-path="url(#clip0_9733_42737)">
<path fill-rule="evenodd" clip-rule="evenodd" d="M44.1192 7.45325H44.519C44.781 7.51888 45.037 7.63873 45.2107 7.84277C45.4608 8.10816 45.5371 8.48912 45.4593 8.83156C45.3006 9.59206 45.1404 10.3511 44.9801 11.1102C44.9292 11.3599 44.8514 11.611 44.8738 11.8678C44.8888 12.0262 44.9831 12.1989 45.1538 12.2445C45.4698 12.3259 45.8306 12.2631 46.1151 12.4386C46.2439 12.5099 46.2903 12.6612 46.2499 12.7924C46.169 12.9237 46.0088 12.9751 45.8666 13.0221C45.0071 13.2875 44.1491 13.5601 43.2896 13.8254C42.9363 13.9439 42.5185 13.8026 42.3149 13.5044C42.1666 13.3047 42.1277 13.0464 42.1876 12.811C42.514 11.3185 42.8105 9.82035 43.1339 8.32646C43.2267 7.87559 43.6445 7.52031 44.1192 7.45325Z" fill="white"/>
<path fill-rule="evenodd" clip-rule="evenodd" d="M36.9817 7.88556C37.362 7.78426 37.7933 7.86559 38.0927 8.11386C38.8249 8.71455 39.5556 9.3181 40.2863 9.92022C40.4945 10.09 40.7939 10.294 41.0709 10.1428C41.2985 9.97015 41.4093 9.69763 41.631 9.51785C41.7552 9.39514 41.9679 9.33664 42.1251 9.43795C42.2673 9.54781 42.2239 9.74472 42.2014 9.89453C42.0143 10.7421 41.8316 11.591 41.6444 12.4386C41.5591 12.8195 41.1488 13.0892 40.7445 13.0464C40.4645 13.0507 40.2354 12.8837 40.0438 12.7082C38.8788 11.7437 37.7079 10.7863 36.5415 9.82462C36.26 9.60203 36.0983 9.25246 36.1237 8.90432C36.1342 8.43346 36.5055 8.00542 36.9817 7.88556Z" fill="white"/>
<path fill-rule="evenodd" clip-rule="evenodd" d="M36.8392 11.4583C36.8377 11.3185 36.938 11.1844 37.0848 11.1544C37.2674 11.1473 37.4097 11.2714 37.5385 11.377C38.2153 11.952 38.9055 12.5127 39.5793 13.0906C40.0226 13.4873 39.792 14.2677 39.2215 14.429C37.8245 14.8741 36.4289 15.3236 35.0319 15.7716C34.695 15.8786 34.3491 16.0299 33.9853 15.9628C33.4941 15.8957 33.0943 15.5119 33 15.0511V14.6801C33.0749 14.292 33.3594 13.9438 33.7547 13.8126C34.7264 13.4901 35.7057 13.1905 36.6775 12.868C36.9096 12.7867 37.1896 12.6041 37.1432 12.333C37.0623 12.0348 36.8302 11.7765 36.8392 11.4583Z" fill="white"/>
<path fill-rule="evenodd" clip-rule="evenodd" d="M47.8254 12.9836C48.1968 12.8837 48.6205 12.9579 48.9185 13.1962C49.2629 13.4559 49.4276 13.9125 49.3183 14.3177C49.2314 14.7072 48.9005 15.0254 48.5022 15.1381C47.5799 15.4392 46.653 15.7259 45.7306 16.027C45.4941 16.1055 45.2185 16.2467 45.1886 16.5107C45.2245 16.8389 45.5105 17.1043 45.4985 17.4438C45.515 17.5922 45.4027 17.7349 45.25 17.7634C45.0658 17.7663 44.9251 17.6407 44.7948 17.5323C44.115 16.9573 43.4232 16.3937 42.7479 15.8144C42.3406 15.422 42.5413 14.6844 43.0788 14.5032C44.6645 13.9995 46.2427 13.4844 47.8254 12.9836Z" fill="white"/>
<path fill-rule="evenodd" clip-rule="evenodd" d="M39.0255 15.0982C39.2681 15.0169 39.5511 15.0383 39.7682 15.1738C40.0901 15.3579 40.2488 15.7488 40.159 16.0927C39.8341 17.5866 39.5316 19.0862 39.2142 20.5815C39.1273 21.011 38.753 21.3534 38.3113 21.4519H37.7842C37.1898 21.3334 36.754 20.7484 36.8693 20.172C37.0535 19.2417 37.2601 18.3143 37.4518 17.3854C37.5057 17.1485 37.4997 16.8346 37.2541 16.6977C36.9322 16.5792 36.5579 16.6591 36.2509 16.4936C36.1117 16.4251 36.0308 16.2496 36.1057 16.1112C36.1775 15.9971 36.3153 15.9486 36.4396 15.9044C37.3006 15.639 38.163 15.3693 39.0255 15.0982Z" fill="white"/>
<path fill-rule="evenodd" clip-rule="evenodd" d="M41.2562 15.9101C41.5497 15.8259 41.8926 15.873 42.1277 16.0684C43.354 17.0886 44.5908 18.0945 45.8201 19.1119C46.1046 19.343 46.2573 19.7097 46.2199 20.0635C46.184 20.4359 45.9384 20.7869 45.5835 20.951C45.1583 21.1665 44.5998 21.1037 44.2404 20.7984C43.4962 20.1905 42.7595 19.5756 42.0154 18.9692C41.8447 18.8393 41.641 18.6995 41.4104 18.7266C41.1649 18.7723 41.066 19.0205 40.9178 19.1846C40.7755 19.3573 40.5809 19.5884 40.3189 19.5228C40.1092 19.4843 40.0943 19.2374 40.1332 19.0762C40.3204 18.2215 40.506 17.3654 40.6947 16.5108C40.7456 16.2297 40.9717 15.9942 41.2562 15.9101Z" fill="white"/>
<path fill-rule="evenodd" clip-rule="evenodd" d="M51.7992 7.60023C52.449 7.36195 53.2501 7.41617 53.7921 7.86134C54.2249 8.1895 54.4195 8.69603 54.5992 9.17544C55.7866 11.9963 57.0743 14.7772 58.3396 17.5666C59.5674 14.409 60.8147 11.2572 62.1144 8.1253C62.1938 7.9127 62.3255 7.70581 62.5412 7.59737C62.932 7.38478 63.468 7.51319 63.739 7.84707C63.9127 8.06965 63.9097 8.37499 63.7974 8.62183C62.3555 12.3701 60.9375 16.1269 59.4371 19.8552C59.259 20.279 59.1077 20.7427 58.7409 21.058C58.4669 21.3106 58.0865 21.4162 57.7167 21.4533H57.239C56.6117 21.4048 56.0726 20.9938 55.8016 20.4645C55.1742 19.2745 54.6337 18.0446 54.0736 16.8246C53.0779 14.6002 52.0927 12.373 51.1898 10.1129C51.0265 9.64772 50.76 9.17401 50.8693 8.67034C50.9517 8.18808 51.3245 7.77573 51.7992 7.60023Z" fill="white"/>
<path fill-rule="evenodd" clip-rule="evenodd" d="M75.2793 10.7649C75.2748 10.2028 75.8513 9.79183 76.4038 9.77471C76.862 9.74902 77.3381 9.99016 77.5313 10.3939C78.5495 12.3672 79.5692 14.3391 80.5874 16.3124C81.4304 14.439 82.2584 12.5613 83.0954 10.685C83.1928 10.4796 83.2572 10.247 83.4338 10.0872C83.6929 9.8275 84.0942 9.73618 84.458 9.78469C84.9926 9.84034 85.4612 10.3055 85.4583 10.8248C85.4553 13.2633 85.4583 15.7032 85.4568 18.1416C85.4373 18.7109 84.8593 19.1789 84.2709 19.1461C83.6629 19.1746 83.0895 18.6624 83.0954 18.0803C83.0954 16.4337 83.0909 14.7871 83.0984 13.1406C82.5025 14.3762 81.917 15.6176 81.3271 16.8575C81.101 17.314 80.9243 17.8234 80.502 18.1559C80.0603 18.4598 79.4075 18.3785 79.0212 18.0289C78.8445 17.8734 78.7576 17.6536 78.6438 17.4582C77.8398 16.0085 77.0477 14.5546 76.2376 13.1078C76.2376 14.9983 76.2376 16.8889 76.2376 18.7794C76.2631 19.2873 75.2568 19.2831 75.2808 18.7751C75.2763 16.107 75.2793 13.4359 75.2793 10.7649Z" fill="white"/>
<path fill-rule="evenodd" clip-rule="evenodd" d="M101.217 10.0101C101.442 9.80036 101.775 9.76754 102.074 9.77468C102.348 9.77468 102.647 9.83318 102.847 10.0272C103.038 10.2213 103.092 10.4995 103.094 10.7578C103.095 11.3313 103.094 11.9035 103.094 12.4771C103.552 12.5013 104.044 12.4086 104.476 12.5941C104.628 12.7867 104.639 13.2133 104.324 13.2604C103.914 13.3403 103.493 13.2932 103.079 13.3061C103.077 14.5303 103.079 15.7545 103.077 16.9787C103.077 17.2569 103.068 17.5409 103.158 17.8105C103.197 17.9176 103.278 18.0388 103.411 18.0445C103.57 18.0331 103.685 17.9133 103.815 17.8377C104.012 17.7021 104.26 17.5994 104.504 17.6679C104.747 17.7235 104.92 17.9233 104.997 18.143V18.514C104.868 18.8878 104.434 19.0205 104.073 19.1033C103.402 19.216 102.673 19.1175 102.095 18.7637C101.423 18.3028 100.946 17.548 100.946 16.7476C100.94 15.6004 100.946 14.4547 100.943 13.3075C100.684 13.3032 100.419 13.3189 100.166 13.2633C99.8639 13.1933 99.8309 12.7667 100.009 12.5755C100.295 12.4343 100.634 12.4914 100.945 12.4799C100.946 11.9278 100.942 11.3756 100.946 10.8248C100.952 10.5366 100.99 10.2184 101.217 10.0101Z" fill="white"/>
<path fill-rule="evenodd" clip-rule="evenodd" d="M64.2481 10.5167C64.5865 10.4568 64.9458 10.4539 65.2752 10.5609C65.5073 10.6323 65.7035 10.8234 65.7379 11.0589C65.7799 11.3314 65.7724 11.6596 65.5358 11.8536C65.2752 12.0705 64.9084 12.0819 64.5805 12.0733C64.2855 12.0676 63.9546 12.0106 63.7554 11.7851C63.5788 11.5654 63.5758 11.2629 63.6357 11.0032C63.7045 10.7321 63.9741 10.5623 64.2481 10.5167Z" fill="white"/>
<path fill-rule="evenodd" clip-rule="evenodd" d="M64.2404 12.537C64.6222 12.4557 65.061 12.4471 65.4024 12.6526C65.7078 12.8466 65.7632 13.2262 65.7662 13.5501C65.7707 15.0425 65.7677 16.5364 65.7677 18.0303C65.7587 18.3214 65.7483 18.6467 65.5296 18.8736C65.3395 19.0804 65.04 19.1475 64.7645 19.1475C64.474 19.1575 64.1566 19.1275 63.9215 18.9478C63.6924 18.7694 63.61 18.474 63.616 18.2029C63.6205 16.5749 63.613 14.9469 63.619 13.3204C63.628 12.9665 63.8676 12.6155 64.2404 12.537Z" fill="white"/>
<path fill-rule="evenodd" clip-rule="evenodd" d="M67.2653 12.7468C67.5109 12.5342 67.8627 12.507 68.1802 12.5227C68.4572 12.5313 68.7357 12.6469 68.9004 12.8638C69.0382 13.0221 69.0756 13.2304 69.1579 13.4145C69.682 12.8309 70.4846 12.5085 71.2857 12.5199C72.0703 12.4942 72.9088 12.7211 73.4389 13.2975C73.8431 13.7741 73.9135 14.4133 73.936 15.004C73.9405 15.7987 73.933 16.5949 73.939 17.3896C73.9465 17.7934 73.9974 18.2086 73.8821 18.601C73.7967 18.9007 73.4913 19.0918 73.1813 19.1275C72.8279 19.1632 72.4356 19.1689 72.1347 18.9649C71.8876 18.7879 71.8097 18.4797 71.8053 18.1987C71.8023 17.1913 71.8053 16.184 71.8053 15.1781C71.7918 14.7614 71.7753 14.332 71.6091 13.941C71.5267 13.7298 71.3336 13.5672 71.1105 13.4987C70.7766 13.396 70.4097 13.3988 70.0758 13.4987C69.6461 13.63 69.3047 13.9924 69.2089 14.4133C69.11 14.7771 69.143 15.1552 69.137 15.5262C69.137 16.3795 69.137 17.2327 69.137 18.0874C69.134 18.3656 69.1025 18.6695 68.8974 18.885C68.6833 19.1004 68.3524 19.1532 68.0544 19.1475C67.7699 19.1532 67.4629 19.1004 67.2488 18.9092C67.0542 18.7252 66.9928 18.4526 66.9883 18.2001C66.9883 16.632 66.9883 15.0625 66.9883 13.4944C66.9928 13.2276 67.0497 12.9351 67.2653 12.7468Z" fill="white"/>
<path fill-rule="evenodd" clip-rule="evenodd" d="M88.5921 12.6469C89.6148 12.4743 90.6929 12.4443 91.6886 12.7568C92.2307 12.9337 92.7667 13.2262 93.0707 13.7042C93.3626 14.1822 93.3926 14.7543 93.3866 15.2937C93.3746 16.2026 93.4151 17.1114 93.4001 18.0218C93.3896 18.2729 93.2653 18.5126 93.0737 18.6824C92.6559 19.0805 91.8458 19.0405 91.5179 18.5554C91.4026 18.387 91.3412 18.1944 91.2619 18.0103C91.0013 18.4598 90.5941 18.8465 90.073 19.0048C89.4755 19.1918 88.8182 19.1889 88.2118 19.0491C87.544 18.8935 86.9241 18.4412 86.7084 17.8035C86.5452 17.3098 86.5647 16.7433 86.8282 16.2839C87.1292 15.7902 87.6533 15.4549 88.2073 15.2609C89.1686 14.897 90.2167 14.8428 91.2394 14.8599C91.2559 14.4476 91.1765 14.0095 90.9085 13.6742C90.5686 13.2362 89.9128 13.0949 89.3827 13.2547C89.0278 13.3931 88.7823 13.6885 88.4723 13.8925C88.1339 14.1422 87.6173 14.1294 87.2774 13.8897C87.0259 13.6714 87.1037 13.249 87.3777 13.0792C87.7371 12.8452 88.1668 12.7282 88.5921 12.6469ZM89.4546 15.8844C88.7957 16.271 88.5607 17.1814 88.944 17.8177C89.1401 18.1473 89.5549 18.3242 89.9457 18.2586C90.4338 18.1987 90.8202 17.8463 91.0507 17.451C91.3981 16.8532 91.2873 16.1412 91.3128 15.4863C90.6734 15.4549 89.9951 15.5277 89.4546 15.8844Z" fill="white"/>
<path fill-rule="evenodd" clip-rule="evenodd" d="M94.7732 13.4945C94.7627 13.0008 95.2059 12.5385 95.727 12.5214C96.0355 12.5028 96.3828 12.557 96.5925 12.7953C96.8081 13.0208 96.8231 13.3389 96.877 13.6229C97.1869 13.2762 97.4609 12.8638 97.9071 12.6598C98.3039 12.4629 98.852 12.4443 99.1964 12.7511C99.5333 13.0536 99.5452 13.5829 99.3176 13.9482C99.2338 14.0923 99.0811 14.2122 98.9044 14.2221C98.5465 14.2464 98.2246 14.0538 97.8697 14.0481C97.5642 14.0595 97.3232 14.2778 97.1809 14.5189C96.9309 14.907 96.865 15.3722 96.8455 15.8188C96.844 16.5935 96.8455 17.3669 96.8455 18.1431C96.85 18.4056 96.7467 18.6738 96.5475 18.8579C96.1882 19.2332 95.5009 19.2517 95.1176 18.9007C94.893 18.7109 94.7657 18.4284 94.7717 18.1431C94.7732 16.5935 94.7717 15.044 94.7732 13.4945Z" fill="white"/>
</g>
<defs>
<clipPath id="clip0_9733_42737">
<rect width="72" height="14" fill="white" transform="translate(33 7.45325)"/>
</clipPath>
</defs>
</svg>
