<svg width="25" height="24" viewBox="0 0 25 24" fill="none" xmlns="http://www.w3.org/2000/svg">
<path d="M10.5446 3.15016L10.545 3.14985C11.6293 2.27904 13.3695 2.28414 14.4699 3.16073C14.4701 3.16084 14.4702 3.16094 14.4703 3.16105L21.016 8.39756C21.0166 8.39802 21.0171 8.39849 21.0177 8.39895C21.3949 8.70711 21.7216 9.18942 21.9324 9.74099C22.143 10.2922 22.2215 10.8699 22.1482 11.351L20.8893 18.8845C20.8892 18.885 20.8891 18.8855 20.889 18.8859C20.6394 20.3188 19.2451 21.5 17.8019 21.5H7.20192C5.73744 21.5 4.37445 20.3476 4.12489 18.8965C4.12483 18.8961 4.12477 18.8958 4.12471 18.8955L2.86508 11.3576L2.86489 11.3565C2.78274 10.8718 2.85647 10.293 3.0666 9.74192C3.27671 9.19094 3.60744 8.70909 3.99376 8.40086L3.99463 8.40016L10.5446 3.15016ZM12.5019 19.25C13.1881 19.25 13.7519 18.6862 13.7519 18V15C13.7519 14.3139 13.1881 13.75 12.5019 13.75C11.8158 13.75 11.2519 14.3139 11.2519 15V18C11.2519 18.6862 11.8158 19.25 12.5019 19.25Z" fill="#00AC77" stroke="#00AC77"/>
</svg>
