<svg width="25" height="24" viewBox="0 0 25 24" fill="none" xmlns="http://www.w3.org/2000/svg">
<path d="M12.5 6.43994V9.76994" stroke="#9CA3AF" stroke-width="1.5" stroke-miterlimit="10" stroke-linecap="round"/>
<path d="M12.5189 2C8.83892 2 5.85892 4.98 5.85892 8.66V10.76C5.85892 11.44 5.57892 12.46 5.22892 13.04L3.95892 15.16C3.17892 16.47 3.71892 17.93 5.15892 18.41C9.93892 20 15.1089 20 19.8889 18.41C21.2389 17.96 21.8189 16.38 21.0889 15.16L19.8189 13.04C19.4689 12.46 19.1889 11.43 19.1889 10.76V8.66C19.1789 5 16.1789 2 12.5189 2Z" stroke="#9CA3AF" stroke-width="1.5" stroke-miterlimit="10" stroke-linecap="round"/>
<path d="M15.8319 18.8201C15.8319 20.6501 14.3319 22.1501 12.5019 22.1501C11.5919 22.1501 10.7519 21.7701 10.1519 21.1701C9.55187 20.5701 9.17188 19.7301 9.17188 18.8201" stroke="#9CA3AF" stroke-width="1.5" stroke-miterlimit="10"/>
</svg>
