<svg width="25" height="24" viewBox="0 0 25 24" fill="none" xmlns="http://www.w3.org/2000/svg">
<path d="M5.90972 12.4274L5.90975 12.4274L5.91269 12.4224C6.06285 12.1659 6.19195 11.8204 6.28324 11.4888C6.37443 11.1576 6.44118 10.792 6.44118 10.4898V8.6298C6.44118 5.27743 9.16599 2.55942 12.5219 2.5498C15.8649 2.55018 18.5912 5.27568 18.5912 8.6298V10.4998C18.5912 10.8022 18.658 11.1681 18.7509 11.5006C18.8435 11.8323 18.9758 12.1797 19.1334 12.4387C19.1337 12.4392 19.134 12.4396 19.1343 12.4401L20.2613 14.3152C20.2615 14.3155 20.2617 14.3159 20.2619 14.3162C20.5955 14.8783 20.6584 15.5393 20.4332 16.1436C20.2056 16.7445 19.7281 17.2141 19.1021 17.4258C18.0459 17.7778 16.9626 18.0508 15.8718 18.2261L15.8718 18.226L15.8617 18.2279C15.7479 18.2486 15.6599 18.2642 15.5759 18.2719L15.5574 18.2735L15.539 18.2766C15.3746 18.304 15.2082 18.3226 15.026 18.3429L15.0259 18.3427L15.0136 18.3444C14.8078 18.3725 14.5903 18.3915 14.3579 18.4117L14.3579 18.4117L14.353 18.4121C13.7493 18.4706 13.1354 18.4998 12.5212 18.4998C11.8967 18.4998 11.2725 18.4705 10.6586 18.4121L10.6586 18.4119L10.6481 18.4112C10.3915 18.3922 10.1446 18.3637 9.89721 18.3256L9.89722 18.3255L9.88726 18.3242C9.73996 18.3046 9.59544 18.2853 9.46067 18.2661C9.39819 18.255 9.33768 18.2467 9.28782 18.2399L9.28374 18.2394C9.22696 18.2316 9.18292 18.2256 9.14062 18.2179L9.14063 18.2178L9.13554 18.217C8.04679 18.0306 6.98184 17.7763 5.9293 17.4254L5.92572 17.4243C5.26302 17.2089 4.77414 16.735 4.56014 16.1564L4.55934 16.1542C4.34974 15.5953 4.41752 14.9234 4.78092 14.3054L5.90972 12.4274ZM12.4912 11.2598C13.1873 11.2598 13.7512 10.6959 13.7512 9.9998V6.89981C13.7512 6.20366 13.1873 5.6398 12.4912 5.6398C11.795 5.6398 11.2312 6.20366 11.2312 6.89981V9.9998C11.2312 10.6959 11.795 11.2598 12.4912 11.2598Z" fill="#00AC77" stroke="#00AC77"/>
<path d="M10.5952 20.6143C10.6457 20.6193 10.6963 20.6239 10.7471 20.6282C11.3286 20.6792 11.923 20.71 12.5197 20.71C13.107 20.71 13.6921 20.6791 14.2642 20.628L14.2642 20.628L14.2671 20.6277C14.3101 20.6237 14.3577 20.6197 14.4083 20.6156C13.9471 21.1572 13.2618 21.5 12.4997 21.5C11.8408 21.5 11.1921 21.2319 10.7395 20.7628L10.7308 20.7538L10.7217 20.7452C10.6779 20.7042 10.6357 20.6604 10.5952 20.6143Z" fill="#292D32" stroke="#00AC77"/>
</svg>
