<svg width="25" height="24" viewBox="0 0 25 24" fill="none" xmlns="http://www.w3.org/2000/svg">
<path d="M6.87644 19.3365L6.87018 19.3427L6.86415 19.3492C6.45024 19.7935 6.0818 20.0593 5.7804 20.1894C5.48391 20.3174 5.28295 20.3035 5.14904 20.2458C5.01147 20.1865 4.85038 20.0405 4.71876 19.7177C4.58647 19.3934 4.5 18.9247 4.5 18.3V7.04C4.5 5.01737 4.74812 3.9484 5.30763 3.35034C5.85604 2.76414 6.831 2.5 8.72 2.5H16.28C18.1692 2.5 19.1438 2.76423 19.6908 3.35002C20.2489 3.94758 20.495 5.01607 20.49 7.03876V7.04V18.29C20.49 18.9151 20.4041 19.384 20.2723 19.7085C20.1413 20.0315 19.9809 20.177 19.8444 20.2359C19.7114 20.2933 19.511 20.3075 19.2136 20.1793C18.9115 20.049 18.5417 19.783 18.1252 19.3385C17.6213 18.7981 16.9631 18.5296 16.3003 18.5657C15.6375 18.6018 15.0124 18.9401 14.57 19.53L14.5696 19.5305L13.5613 20.8782C13.5611 20.8786 13.5608 20.8789 13.5606 20.8792C13.2359 21.3075 12.8459 21.4825 12.495 21.4825C12.1442 21.4825 11.7541 21.3076 11.4295 20.8793C11.4292 20.8789 11.4289 20.8786 11.4287 20.8782L10.4205 19.5307C10.4205 19.5306 10.4204 19.5306 10.4204 19.5305C10.4204 19.5305 10.4204 19.5305 10.4204 19.5305C9.5244 18.3319 7.91291 18.2433 6.88146 19.3314L6.87644 19.3365ZM6.78 11C6.78 11.8261 7.45386 12.5 8.28 12.5C9.10614 12.5 9.78 11.8261 9.78 11C9.78 10.1739 9.10614 9.5 8.28 9.5C7.45386 9.5 6.78 10.1739 6.78 11ZM6.78 7C6.78 7.82614 7.45386 8.5 8.28 8.5C9.10614 8.5 9.78 7.82614 9.78 7C9.78 6.17386 9.10614 5.5 8.28 5.5C7.45386 5.5 6.78 6.17386 6.78 7ZM11.23 12.25H16.73C17.4161 12.25 17.98 11.6861 17.98 11C17.98 10.3139 17.4161 9.75 16.73 9.75H11.23C10.5439 9.75 9.98 10.3139 9.98 11C9.98 11.6861 10.5439 12.25 11.23 12.25ZM11.23 8.25H16.73C17.4161 8.25 17.98 7.68614 17.98 7C17.98 6.31386 17.4161 5.75 16.73 5.75H11.23C10.5439 5.75 9.98 6.31386 9.98 7C9.98 7.68614 10.5439 8.25 11.23 8.25Z" fill="#00AC77" stroke="#00AC77"/>
</svg>
