<svg width="25" height="24" viewBox="0 0 25 24" fill="none" xmlns="http://www.w3.org/2000/svg">
<path d="M3.30626 10.8955L3.30627 10.8955L3.30433 10.893C2.75727 10.1897 2.4988 9.27828 2.58738 8.32765C2.58741 8.32728 2.58745 8.3269 2.58748 8.32653L2.85622 5.58947C3.06438 4.12252 3.48401 3.19141 4.11886 2.61702C4.75087 2.0452 5.6819 1.75 7.08965 1.75H9.48965H10.9697H14.0097H15.4896H17.8497C19.2521 1.75 20.184 2.04507 20.8165 2.61418C21.4512 3.18536 21.8703 4.10946 22.0733 5.56058L22.3619 8.31786C22.362 8.31857 22.3621 8.31928 22.3622 8.31999C22.4504 9.24282 22.21 10.1263 21.6896 10.82L21.6896 10.8199L21.6841 10.8275C21.0337 11.7295 19.9888 12.25 18.8096 12.25C17.7324 12.25 16.6849 11.7181 16.0043 10.843L15.5855 10.3046L15.1981 10.866C14.6035 11.7278 13.6289 12.25 12.4997 12.25C11.3742 12.25 10.3705 11.7012 9.78441 10.8308L9.39228 10.2483L8.97013 10.8094C8.30017 11.6997 7.23535 12.25 6.13965 12.25C4.98687 12.25 3.96675 11.7559 3.30626 10.8955Z" fill="#00AC77" stroke="#00AC77"/>
<path d="M11.902 17.1576L11.903 17.1575C12.9855 17.0446 13.7136 17.233 14.1635 17.5957C14.6012 17.9486 14.8756 18.5488 14.8711 19.4979H14.8711V19.5002V21.8802H10.1211V19.1502C10.1211 18.122 10.8917 17.2611 11.902 17.1576Z" fill="#00AC77" stroke="#00AC77"/>
<path d="M21.8689 14.4001V17.3801C21.8689 20.1401 19.6289 22.3801 16.8689 22.3801C16.5989 22.3801 16.3789 22.1601 16.3789 21.8901V19.5001C16.3789 18.2201 15.9889 17.2201 15.2289 16.5401C14.5589 15.9301 13.6489 15.6301 12.5189 15.6301C12.2689 15.6301 12.0189 15.6401 11.7489 15.6701C9.96891 15.8501 8.61891 17.3501 8.61891 19.1501V21.8901C8.61891 22.1601 8.39891 22.3801 8.12891 22.3801C5.36891 22.3801 3.12891 20.1401 3.12891 17.3801V14.4201C3.12891 13.7201 3.81891 13.2501 4.46891 13.4801C4.73891 13.5701 5.00891 13.6401 5.28891 13.6801C5.40891 13.7001 5.53891 13.7201 5.65891 13.7201C5.81891 13.7401 5.97891 13.7501 6.13891 13.7501C7.29891 13.7501 8.43891 13.3201 9.33891 12.5801C10.1989 13.3201 11.3189 13.7501 12.4989 13.7501C13.6889 13.7501 14.7889 13.3401 15.6489 12.6001C16.5489 13.3301 17.6689 13.7501 18.8089 13.7501C18.9889 13.7501 19.1689 13.7401 19.3389 13.7201C19.4589 13.7101 19.5689 13.7001 19.6789 13.6801C19.9889 13.6401 20.2689 13.5501 20.5489 13.4601C21.1989 13.2401 21.8689 13.7201 21.8689 14.4001Z" fill="#00AC77"/>
</svg>
